<svg width="1113" height="468" viewBox="0 0 1113 468" fill="none" xmlns="http://www.w3.org/2000/svg">
<path d="M233.941 236.2C261.941 241.8 284.541 252 301.741 266.8C318.941 281.6 327.541 304.2 327.541 334.6C327.541 379.8 311.141 411.6 278.341 430C245.541 448 199.741 457 140.941 457H0.540626V40H124.741C184.741 40 230.541 48.4 262.141 65.2C294.141 81.6 310.141 109 310.141 147.4C310.141 171.8 302.741 191.4 287.941 206.2C273.541 220.6 255.541 230.6 233.941 236.2ZM111.541 117.4V204.4H140.341C159.941 204.4 174.341 200.8 183.541 193.6C192.741 186.4 197.341 174.8 197.341 158.8C197.341 144 192.341 133.4 182.341 127C172.741 120.6 156.941 117.4 134.941 117.4H111.541ZM141.541 377.8C165.141 377.8 182.941 374.4 194.941 367.6C206.941 360.4 212.941 347.2 212.941 328C212.941 309.6 207.341 296.4 196.141 288.4C184.941 280 168.741 275.8 147.541 275.8H111.541V377.8H141.541ZM514.825 126.4C564.825 126.4 604.025 141.4 632.425 171.4C660.825 201.4 675.025 243.4 675.025 297.4C675.025 331.8 668.625 361.8 655.825 387.4C643.025 413 624.425 432.8 600.025 446.8C576.025 460.8 547.625 467.8 514.825 467.8C464.825 467.8 425.625 452.8 397.225 422.8C368.825 392.8 354.625 350.8 354.625 296.8C354.625 262.4 361.025 232.4 373.825 206.8C386.625 181.2 405.025 161.4 429.025 147.4C453.425 133.4 482.025 126.4 514.825 126.4ZM514.825 203.8C497.625 203.8 484.825 211.4 476.425 226.6C468.425 241.4 464.425 264.8 464.425 296.8C464.425 330 468.425 354 476.425 368.8C484.825 383.2 497.625 390.4 514.825 390.4C532.025 390.4 544.625 383 552.625 368.2C561.025 353 565.225 329.4 565.225 297.4C565.225 264.6 561.025 240.8 552.625 226C544.625 211.2 532.025 203.8 514.825 203.8ZM812.416 467.8C782.416 467.8 759.216 459.4 742.816 442.6C726.416 425.8 718.216 401.6 718.216 370V11.2L825.016 0.399978V366.4C825.016 378 830.216 383.8 840.616 383.8C845.016 383.8 849.616 383 854.416 381.4L874.216 457C857.816 464.2 837.216 467.8 812.416 467.8ZM1112.91 441.4C1100.51 450.2 1086.11 456.8 1069.71 461.2C1053.31 465.6 1037.31 467.8 1021.71 467.8C947.713 467.8 910.713 427 910.713 345.4V210.4H869.312V137.2H910.713V69.4L1017.51 56.8V137.2H1090.11L1079.31 210.4H1017.51V344.2C1017.51 358.6 1019.71 368.8 1024.11 374.8C1028.91 380.8 1035.91 383.8 1045.11 383.8C1056.31 383.8 1067.11 380.8 1077.51 374.8L1112.91 441.4Z" fill="#3A3B75"/>
</svg>
