<svg width="957" height="788" viewBox="0 0 957 788" fill="none" xmlns="http://www.w3.org/2000/svg">
<path d="M162.406 0.49997C184.406 0.49997 204.24 3.83331 221.906 10.5C239.573 17.1667 256.073 27 271.406 40L227.906 91.5C217.573 83.8333 207.573 78 197.906 74C188.24 70 177.906 68 166.906 68C144.906 68 127.74 77.5 115.406 96.5C103.073 115.5 96.9063 144.167 96.9063 182.5C96.9063 220.833 103.073 249.333 115.406 268C128.073 286.667 145.573 296 167.906 296C179.906 296 190.906 293.667 200.906 289C211.24 284 222.406 276.833 234.406 267.5L275.406 319.5C261.74 333.167 245.24 344.333 225.906 353C206.906 361.667 186.24 366 163.906 366C130.906 366 102.073 359 77.4063 345C53.0729 330.667 34.2396 309.833 20.9063 282.5C7.57292 254.833 0.90625 221.5 0.90625 182.5C0.90625 144.5 7.73958 111.833 21.4063 84.5C35.0729 57.1667 54.0729 36.3333 78.4063 22C102.74 7.66664 130.74 0.49997 162.406 0.49997ZM413.191 81.5C454.858 81.5 487.525 94 511.191 119C534.858 144 546.691 179 546.691 224C546.691 252.667 541.358 277.667 530.691 299C520.025 320.333 504.525 336.833 484.191 348.5C464.191 360.167 440.525 366 413.191 366C371.525 366 338.858 353.5 315.191 328.5C291.525 303.5 279.691 268.5 279.691 223.5C279.691 194.833 285.025 169.833 295.691 148.5C306.358 127.167 321.691 110.667 341.691 99C362.025 87.3333 385.858 81.5 413.191 81.5ZM413.191 146C398.858 146 388.191 152.333 381.191 165C374.525 177.333 371.191 196.833 371.191 223.5C371.191 251.167 374.525 271.167 381.191 283.5C388.191 295.5 398.858 301.5 413.191 301.5C427.525 301.5 438.025 295.333 444.691 283C451.691 270.333 455.191 250.667 455.191 224C455.191 196.667 451.691 176.833 444.691 164.5C438.025 152.167 427.525 146 413.191 146ZM887.184 81.5C907.85 81.5 924.517 88.6667 937.184 103C949.85 117 956.184 136.5 956.184 161.5V357H867.184V177.5C867.184 156.833 861.184 146.5 849.184 146.5C836.85 146.5 825.517 156.667 815.184 177V357H726.184V177.5C726.184 156.833 720.184 146.5 708.184 146.5C695.85 146.5 684.517 156.667 674.184 177V357H585.184V90.5H662.684L669.184 120C679.517 107 690.85 97.3333 703.184 91C715.85 84.6667 730.35 81.5 746.684 81.5C760.684 81.5 773.017 85 783.684 92C794.35 98.6666 802.35 108.5 807.684 121.5C818.684 107.833 830.517 97.8333 843.184 91.5C855.85 84.8333 870.517 81.5 887.184 81.5ZM206.662 463C195.995 463 188.329 465.667 183.662 471C178.995 476 176.662 484.833 176.662 497.5V512.5H239.162L229.162 573.5H176.662V779H87.6621V573.5H49.6621V512.5H87.6621V493.5C87.6621 465.833 96.8288 443.167 115.162 425.5C133.829 407.5 160.495 398.5 195.162 398.5C208.829 398.5 222.329 400.167 235.662 403.5C248.995 406.5 260.662 410.667 270.662 416L246.662 473C233.662 466.333 220.329 463 206.662 463ZM372.42 503.5C414.087 503.5 446.753 516 470.42 541C494.087 566 505.92 601 505.92 646C505.92 674.667 500.587 699.667 489.92 721C479.253 742.333 463.753 758.833 443.42 770.5C423.42 782.167 399.753 788 372.42 788C330.753 788 298.087 775.5 274.42 750.5C250.753 725.5 238.92 690.5 238.92 645.5C238.92 616.833 244.253 591.833 254.92 570.5C265.587 549.167 280.92 532.667 300.92 521C321.253 509.333 345.087 503.5 372.42 503.5ZM372.42 568C358.087 568 347.42 574.333 340.42 587C333.753 599.333 330.42 618.833 330.42 645.5C330.42 673.167 333.753 693.167 340.42 705.5C347.42 717.5 358.087 723.5 372.42 723.5C386.753 723.5 397.253 717.333 403.92 705C410.92 692.333 414.42 672.667 414.42 646C414.42 618.667 410.92 598.833 403.92 586.5C397.253 574.167 386.753 568 372.42 568ZM697.412 504.5C706.079 504.5 715.079 506 724.412 509L709.912 595C701.245 592.333 693.245 591 685.912 591C670.912 591 659.412 596.167 651.412 606.5C643.745 616.5 637.745 631.833 633.412 652.5V779H544.412V512.5H621.912L629.912 563C635.245 545.333 644.079 531.167 656.412 520.5C669.079 509.833 682.745 504.5 697.412 504.5ZM924.049 766C913.716 773.333 901.716 778.833 888.049 782.5C874.382 786.167 861.049 788 848.049 788C786.382 788 755.549 754 755.549 686V573.5H721.049V512.5H755.549V456L844.549 445.5V512.5H905.049L896.049 573.5H844.549V685C844.549 697 846.382 705.5 850.049 710.5C854.049 715.5 859.882 718 867.549 718C876.882 718 885.882 715.5 894.549 710.5L924.049 766Z" fill="#3A3B75"/>
</svg>
