<svg width="11" height="7" viewBox="0 0 11 7" fill="none" xmlns="http://www.w3.org/2000/svg">
<g clip-path="url(#clip0_286_188)">
<path d="M9.71409 1.71409L5.71409 5.71409C5.62113 5.80782 5.51053 5.88221 5.38867 5.93298C5.26681 5.98375 5.1361 6.00989 5.00409 6.00989C4.87208 6.00989 4.74137 5.98375 4.61951 5.93298C4.49766 5.88221 4.38705 5.80782 4.29409 5.71409L0.294092 1.71409C0.200853 1.62085 0.126893 1.51016 0.0764322 1.38834C0.0259719 1.26652 9.82427e-10 1.13595 0 1.00409C-9.82427e-10 0.872232 0.0259719 0.741664 0.0764322 0.619842C0.126893 0.49802 0.200853 0.38733 0.294092 0.294091C0.38733 0.200853 0.498021 0.126892 0.619843 0.0764313C0.741665 0.0259709 0.872233 -9.82427e-10 1.00409 0C1.13595 9.82428e-10 1.26652 0.0259709 1.38834 0.0764313C1.51016 0.126892 1.62085 0.200853 1.71409 0.294091L5.00409 3.59409L8.29409 0.294091C8.4824 0.105788 8.73779 0 9.00409 0C9.27039 0 9.52579 0.105788 9.71409 0.294091C9.90239 0.482395 10.0082 0.73779 10.0082 1.00409C10.0082 1.27039 9.90239 1.52579 9.71409 1.71409Z" fill="white"/>
</g>
<defs>
<clipPath id="clip0_286_188">
<rect width="11" height="7" fill="white"/>
</clipPath>
</defs>
</svg>
