<svg width="11" height="23" viewBox="0 0 11 23" fill="none" xmlns="http://www.w3.org/2000/svg">
<path fill-rule="evenodd" clip-rule="evenodd" d="M10.6986 0.0490405H6.83105C4.31963 0.0490405 2.51142 2.0597 2.51142 4.26652V7.60128H0.452055C0.200913 7.60128 0 7.60128 0 7.84648V11.1812C0 11.4264 0.251142 11.4264 0.452055 11.4264H2.51142V11.6716V22.7548C2.51142 23 2.76256 23 2.76256 23H7.08219C7.33333 23 7.33333 23 7.33333 22.7548V11.4264H10.4977C10.4977 11.4264 10.7489 11.4264 10.7489 11.1812L11 7.84648C11 7.60128 11 7.60128 10.7489 7.60128H7.33333V5.14925C7.33333 4.46269 7.78539 4.02132 8.48858 4.02132H10.7489C11 4.02132 11 4.02132 11 3.77612V0.441365C11 0.196162 11 0 10.7489 0L10.6986 0.0490405Z" fill="#00DCF0"/>
</svg>
