<svg width="48" height="48" viewBox="0 0 48 48" fill="none" xmlns="http://www.w3.org/2000/svg">
<path d="M24 4C12.9721 4 4 12.9721 4 24C4 35.0279 12.9721 44 24 44C35.0279 44 44 35.0279 44 24C44 12.9721 35.0279 4 24 4ZM24 7C33.4066 7 41 14.5934 41 24C41 32.3808 34.9672 39.3064 27 40.7207V29H30.625C31.129 29 31.5552 28.623 31.6172 28.123L31.9922 25.123C32.0282 24.839 31.938 24.5539 31.748 24.3379C31.559 24.1229 31.287 24 31 24H27V20.5C27 19.397 27.897 18.5 29 18.5H31C31.552 18.5 32 18.053 32 17.5V14.125C32 13.607 31.6048 13.1749 31.0898 13.1289C31.0308 13.1239 29.62 13 27.834 13C23.427 13 21 15.6162 21 20.3672V24H17C16.448 24 16 24.447 16 25V28C16 28.553 16.448 29 17 29H21V40.7207C13.0328 39.3064 7 32.3808 7 24C7 14.5934 14.5934 7 24 7Z" fill="#00DCF0"/>
</svg>
