<svg width="48" height="48" viewBox="0 0 48 48" fill="none" xmlns="http://www.w3.org/2000/svg">
<path d="M16.5 5C10.1664 5 5 10.1664 5 16.5V31.5C5 37.8328 10.1662 43 16.5 43H31.5C37.8329 43 43 37.8329 43 31.5V16.5C43 10.1662 37.8328 5 31.5 5H16.5ZM16.5 8H31.5C36.2112 8 40 11.7878 40 16.5V31.5C40 36.2111 36.2111 40 31.5 40H16.5C11.7878 40 8 36.2112 8 31.5V16.5C8 11.7876 11.7876 8 16.5 8ZM34 12C32.895 12 32 12.895 32 14C32 15.105 32.895 16 34 16C35.105 16 36 15.105 36 14C36 12.895 35.105 12 34 12ZM24 14C18.4952 14 14 18.4952 14 24C14 29.5048 18.4952 34 24 34C29.5048 34 34 29.5048 34 24C34 18.4952 29.5048 14 24 14ZM24 17C27.8832 17 31 20.1168 31 24C31 27.8832 27.8832 31 24 31C20.1168 31 17 27.8832 17 24C17 20.1168 20.1168 17 24 17Z" fill="#00DCF0"/>
</svg>
