<svg width="23" height="23" viewBox="0 0 23 23" fill="none" xmlns="http://www.w3.org/2000/svg">
<path d="M20.8525 16.1C20.8525 18.7108 18.705 20.8243 16.1218 20.8243H6.87821C4.26387 20.8243 2.1475 18.6797 2.1475 16.1V7.08649C2.1475 4.25811 4.29499 2.36216 6.87821 2.36216H16.1218C18.7361 2.36216 20.8525 4.25811 20.8525 7.08649V16.1ZM11.6089 15.3851C9.46143 15.3851 7.81191 13.7378 7.81191 11.5932C7.81191 9.6973 9.46143 8.05 11.6089 8.05C13.5074 8.05 15.157 9.6973 15.157 11.5932C15.157 13.7378 13.5074 15.3851 11.6089 15.3851ZM11.6089 6.15405C8.27876 6.15405 5.9134 8.51622 5.9134 11.5932C5.9134 14.9189 8.27876 17.2811 11.6089 17.2811C14.6901 17.2811 17.3045 14.9189 17.3045 11.5932C17.3045 8.51622 14.6901 6.15405 11.6089 6.15405ZM17.5534 4.25811C16.8376 4.25811 16.1218 4.97297 16.1218 5.68784C16.1218 6.4027 16.8376 7.11757 17.5534 7.11757C18.2693 7.11757 18.9851 6.4027 18.9851 5.68784C18.9851 4.97297 18.2693 4.25811 17.5534 4.25811ZM16.1218 0H6.87821C3.08119 0 0 3.07703 0 7.11757V16.1311C0 19.923 3.08119 23 6.87821 23H16.1218C19.9188 23 23 19.923 23 16.1311V7.11757C23 3.07703 19.9188 0 16.1218 0V0Z" fill="#00DCF0"/>
</svg>
