<svg width="17" height="10" viewBox="0 0 17 10" fill="none" xmlns="http://www.w3.org/2000/svg">
<path d="M5.29289 0.292893C5.68342 -0.0976311 6.31658 -0.0976311 6.70711 0.292893C7.09763 0.683418 7.09763 1.31658 6.70711 1.70711L5.29289 0.292893ZM2 5L1.29289 5.70711L0.585786 5L1.29289 4.29289L2 5ZM6.70711 8.29289C7.09763 8.68342 7.09763 9.31658 6.70711 9.70711C6.31658 10.0976 5.68342 10.0976 5.29289 9.70711L6.70711 8.29289ZM16 4C16.5523 4 17 4.44772 17 5C17 5.55228 16.5523 6 16 6V4ZM6.70711 1.70711L2.70711 5.70711L1.29289 4.29289L5.29289 0.292893L6.70711 1.70711ZM2.70711 4.29289L6.70711 8.29289L5.29289 9.70711L1.29289 5.70711L2.70711 4.29289ZM2 4L16 4V6L2 6V4Z" fill="#00DCF0"/>
</svg>
