<svg width="23" height="23" viewBox="0 0 23 23" fill="none" xmlns="http://www.w3.org/2000/svg">
<path d="M5.04012 7.38486H0.757202L0.496914 7.6469V21.8925C0.496914 21.8925 0.757202 21.8925 0.757202 22.1546H5.04012C5.04012 21.8925 5.04012 21.8925 5.30041 21.8925V7.6469C5.04012 7.6469 5.04012 7.38486 5.04012 7.38486ZM2.76852 0C1.25412 0 0 1.26257 0 2.78719C0 4.31181 1.25412 5.33616 2.76852 5.33616C4.02263 5.33616 5.30041 4.31181 5.30041 2.78719C5.30041 1.26257 4.0463 0 2.76852 0V0ZM17.4156 6.86077C14.6471 6.86077 13.6296 8.38539 12.8724 9.40974V7.62308C12.8724 7.36104 12.6121 7.36104 12.6121 7.36104H8.32922C8.06893 7.36104 8.06893 7.36104 8.06893 7.62308C8.06893 9.91001 8.06893 19.82 8.06893 21.8687C8.06893 21.8687 8.06893 22.1308 8.32922 22.1308H12.6121L12.8724 21.8687V13.7215C12.8724 13.4595 12.8724 12.9592 13.1327 12.6972C13.393 11.6728 14.1502 10.9105 15.6646 10.9105C17.4393 10.9105 18.1965 12.1731 18.1965 14.2218V21.8449C18.1965 21.8449 18.1965 22.1069 18.4568 22.1069H22.7397L23 21.8449V13.6977C23 9.12388 20.4681 6.83695 17.4393 6.83695L17.4156 6.86077Z" fill="#00DCF0"/>
</svg>
