<svg width="25" height="25" viewBox="0 0 25 25" fill="none" xmlns="http://www.w3.org/2000/svg">
<path d="M2.82211 25H22.1772C22.9259 25 23.6437 24.7025 24.1731 24.1733C24.7024 23.6441 25 22.9265 25 22.1779V8.71013L16.1289 1.32079C15.1124 0.467619 13.8273 0 12.5 0C11.1727 0 9.88757 0.467627 8.87107 1.32079L0 8.71013V22.1779C0 22.9265 0.297585 23.6441 0.826911 24.1733C1.35627 24.7025 2.07404 25 2.82283 25H2.82211ZM22.1772 22.5811H2.82211C2.59934 22.5811 2.41876 22.4006 2.41876 22.1779V12.0394L12.4995 17.0784L22.5803 12.0394V22.1779C22.5803 22.285 22.5378 22.3874 22.4622 22.463C22.3865 22.5387 22.2841 22.5811 22.1769 22.5811L22.1772 22.5811ZM10.423 3.17882C11.0044 2.68982 11.7399 2.42153 12.4996 2.42153C13.2594 2.42153 13.9949 2.68979 14.5763 3.17882L22.1973 9.52789L12.4996 14.3774L2.79835 9.53998L10.423 3.17882Z" fill="#00DCF0"/>
</svg>
