<svg width="17" height="10" viewBox="0 0 17 10" fill="none" xmlns="http://www.w3.org/2000/svg">
<path d="M11.7071 9.70711C11.3166 10.0976 10.6834 10.0976 10.2929 9.70711C9.90237 9.31658 9.90237 8.68342 10.2929 8.29289L11.7071 9.70711ZM15 5L15.7071 4.29289L16.4142 5L15.7071 5.70711L15 5ZM10.2929 1.70711C9.90237 1.31658 9.90237 0.683418 10.2929 0.292894C10.6834 -0.0976303 11.3166 -0.0976302 11.7071 0.292894L10.2929 1.70711ZM1 6C0.447715 6 -3.97973e-07 5.55228 -3.49691e-07 5C-3.01409e-07 4.44772 0.447715 4 1 4L1 6ZM10.2929 8.29289L14.2929 4.29289L15.7071 5.70711L11.7071 9.70711L10.2929 8.29289ZM14.2929 5.70711L10.2929 1.70711L11.7071 0.292894L15.7071 4.29289L14.2929 5.70711ZM15 6L1 6L1 4L15 4L15 6Z" fill="#00DCF0"/>
</svg>
