<svg width="32" height="33" viewBox="0 0 32 33" fill="none" xmlns="http://www.w3.org/2000/svg">
<path d="M31.2428 3.9925L17.2428 17.9925C17.0801 18.1565 16.8866 18.2867 16.6733 18.3756C16.4601 18.4644 16.2313 18.5102 16.0003 18.5102C15.7693 18.5102 15.5406 18.4644 15.3273 18.3756C15.1141 18.2867 14.9205 18.1565 14.7578 17.9925L0.757824 3.9925C0.428293 3.66297 0.243164 3.21603 0.243164 2.75C0.243164 2.28398 0.428293 1.83704 0.757824 1.5075C1.08736 1.17797 1.5343 0.992844 2.00032 0.992844C2.46635 0.992844 2.91329 1.17797 3.24282 1.5075L16.0003 14.2825L28.7578 1.5075C29.0874 1.17797 29.5343 0.992844 30.0003 0.992844C30.4664 0.992844 30.9133 1.17797 31.2428 1.5075C31.5724 1.83704 31.7575 2.28398 31.7575 2.75C31.7575 3.21603 31.5724 3.66297 31.2428 3.9925V3.9925Z" fill="white"/>
<path d="M31.2428 17.9997L17.2428 31.9997C17.0801 32.1637 16.8866 32.2939 16.6733 32.3827C16.4601 32.4716 16.2313 32.5173 16.0003 32.5173C15.7693 32.5173 15.5406 32.4716 15.3273 32.3827C15.1141 32.2939 14.9205 32.1637 14.7578 31.9997L0.757824 17.9997C0.428293 17.6701 0.243164 17.2232 0.243164 16.7572C0.243164 16.2911 0.428293 15.8442 0.757824 15.5147C1.08736 15.1851 1.5343 15 2.00032 15C2.46635 15 2.91329 15.1851 3.24282 15.5147L16.0003 28.2897L28.7578 15.5147C29.0874 15.1851 29.5343 15 30.0003 15C30.4664 15 30.9133 15.1851 31.2428 15.5147C31.5724 15.8442 31.7575 16.2911 31.7575 16.7572C31.7575 17.2232 31.5724 17.6701 31.2428 17.9997V17.9997Z" fill="white"/>
</svg>
