<svg width="20" height="20" viewBox="0 0 20 20" fill="none" xmlns="http://www.w3.org/2000/svg">
<path d="M11.9047 1.31735C11.7544 0.928414 11.4952 0.595069 11.1606 0.360276C10.8259 0.125482 10.4311 0 10.0271 0C9.623 0 9.22821 0.125482 8.89355 0.360276C8.5589 0.595069 8.29971 0.928414 8.1494 1.31735L6.44596 5.63323L6.36853 5.69345L1.88733 6.03471C1.62274 6.05311 1.36427 6.12553 1.12675 6.24783C0.889235 6.37012 0.677357 6.53987 0.503289 6.74733C0.18109 7.13169 0.00251569 7.62315 1.42049e-07 8.13243C-0.00011089 8.43895 0.0648696 8.74175 0.190326 9.01929C0.315782 9.29684 0.498635 9.54233 0.725897 9.73834L4.16181 12.7494V12.8197L3.11652 17.3865C3.07864 17.5577 3.05916 17.7327 3.05844 17.9084C3.05404 18.188 3.10601 18.4654 3.21101 18.7229C3.31601 18.9805 3.47173 19.2124 3.6682 19.4039C3.99259 19.7333 4.41485 19.9394 4.8664 19.9886C5.31795 20.0378 5.77227 19.9272 6.1556 19.6749L10.0271 17.2158H10.1238L13.8985 19.6749C14.2829 19.9259 14.7378 20.0348 15.1894 19.9838C15.641 19.9328 16.0627 19.7249 16.3859 19.3939C16.5824 19.2024 16.7381 18.9704 16.8431 18.7129C16.9481 18.4554 17.0001 18.1779 16.9957 17.8984C16.9955 17.726 16.976 17.5542 16.9376 17.3865L15.8342 12.8297V12.7595L19.2701 9.74837C19.4785 9.56797 19.6499 9.34612 19.7742 9.09591C19.8986 8.8457 19.9733 8.57219 19.9941 8.29154C20.0148 8.01088 19.9811 7.72876 19.895 7.46182C19.8089 7.19488 19.6721 6.94852 19.4927 6.73729C19.3187 6.52983 19.1068 6.36008 18.8693 6.23779C18.6318 6.11549 18.3733 6.04307 18.1087 6.02467L13.6275 5.68342L13.5501 5.62319L11.8466 1.30731L11.9047 1.31735ZM14.5857 11.2138C14.3617 11.4121 14.1817 11.6582 14.0581 11.9354C13.9345 12.2126 13.8701 12.5143 13.8695 12.8197C13.8691 12.9888 13.8886 13.1573 13.9275 13.3215L14.9922 17.8181V17.8682H14.9148H14.8664L11.053 15.4092C10.7291 15.2054 10.3575 15.0977 9.97866 15.0977C9.59982 15.0977 9.22823 15.2054 8.90433 15.4092L5.18774 17.9686H5.11031V17.9184L6.18464 13.3817C6.22362 13.2175 6.24312 13.049 6.24271 12.8799C6.24205 12.5745 6.1777 12.2729 6.05407 11.9957C5.93045 11.7185 5.75047 11.4723 5.52649 11.274L2.09058 8.26291V8.19265V8.12239H2.14865L6.63953 7.78113C7.01541 7.7517 7.37588 7.61395 7.68028 7.3834C7.98469 7.15285 8.22092 6.83868 8.36233 6.47633L9.93995 2.11027V2.06008H10.0561V2.11027L11.7595 6.42615C11.9009 6.7885 12.1372 7.10266 12.4416 7.33321C12.746 7.56376 13.1064 7.70152 13.4823 7.73095L17.9732 8.0722H18.0313V8.14246V8.21272L14.5857 11.2138Z" fill="#00DCF0"/>
</svg>
