<svg width="36" height="36" viewBox="0 0 36 36" fill="none" xmlns="http://www.w3.org/2000/svg">
<path d="M5.5 0C2.48023 0 0 2.48023 0 5.5V30.5C0 33.5198 2.48023 36 5.5 36H30.5C33.5198 36 36 33.5198 36 30.5V5.5C36 2.48023 33.5198 0 30.5 0H5.5ZM5.5 3H30.5C31.8982 3 33 4.10177 33 5.5V30.5C33 31.8982 31.8982 33 30.5 33H5.5C4.10177 33 3 31.8982 3 30.5V5.5C3 4.10177 4.10177 3 5.5 3ZM20.4355 7.02344C20.053 7.03988 19.6913 7.20197 19.4244 7.47648C19.1575 7.751 19.0057 8.11717 19 8.5V22C19 24.2276 17.2276 26 15 26C12.7724 26 11 24.2276 11 22C11 19.7724 12.7724 18 15 18C15.1988 18.0028 15.3961 17.9661 15.5806 17.892C15.765 17.8178 15.9329 17.7078 16.0745 17.5682C16.216 17.4287 16.3284 17.2624 16.4051 17.079C16.4819 16.8956 16.5214 16.6988 16.5214 16.5C16.5214 16.3012 16.4819 16.1044 16.4051 15.921C16.3284 15.7376 16.216 15.5713 16.0745 15.4318C15.9329 15.2922 15.765 15.1822 15.5806 15.108C15.3961 15.0339 15.1988 14.9972 15 15C11.1516 15 8 18.1516 8 22C8 25.8484 11.1516 29 15 29C18.8484 29 22 25.8484 22 22V14.3359C23.2681 15.317 24.7824 16 26.5 16C26.6988 16.0028 26.8961 15.9661 27.0806 15.892C27.265 15.8178 27.4329 15.7078 27.5745 15.5682C27.716 15.4287 27.8284 15.2624 27.9051 15.079C27.9819 14.8956 28.0214 14.6988 28.0214 14.5C28.0214 14.3012 27.9819 14.1044 27.9051 13.921C27.8284 13.7376 27.716 13.5713 27.5745 13.4318C27.4329 13.2922 27.265 13.1822 27.0806 13.108C26.8961 13.0339 26.6988 12.9972 26.5 13C23.9965 13 22 11.0035 22 8.5C21.997 8.29946 21.9539 8.10155 21.8731 7.91798C21.7923 7.73441 21.6755 7.5689 21.5297 7.43123C21.3838 7.29357 21.2119 7.18655 21.0239 7.11651C20.836 7.04647 20.6359 7.01482 20.4355 7.02344Z" fill="#00DCF0"/>
</svg>
