<svg width="48" height="48" viewBox="0 0 48 48" fill="none" xmlns="http://www.w3.org/2000/svg">
<path d="M11.5 6C8.48023 6 6 8.48023 6 11.5V36.5C6 39.5198 8.48023 42 11.5 42H36.5C39.5198 42 42 39.5198 42 36.5V11.5C42 8.48023 39.5198 6 36.5 6H11.5ZM11.5 9H36.5C37.8982 9 39 10.1018 39 11.5V36.5C39 37.8982 37.8982 39 36.5 39H11.5C10.1018 39 9 37.8982 9 36.5V11.5C9 10.1018 10.1018 9 11.5 9ZM26.4355 13.0234C26.053 13.0399 25.6913 13.202 25.4244 13.4765C25.1575 13.751 25.0057 14.1172 25 14.5V28C25 30.2276 23.2276 32 21 32C18.7724 32 17 30.2276 17 28C17 25.7724 18.7724 24 21 24C21.1988 24.0028 21.3961 23.9661 21.5806 23.892C21.765 23.8178 21.9329 23.7078 22.0745 23.5682C22.216 23.4287 22.3284 23.2624 22.4051 23.079C22.4819 22.8956 22.5214 22.6988 22.5214 22.5C22.5214 22.3012 22.4819 22.1044 22.4051 21.921C22.3284 21.7376 22.216 21.5713 22.0745 21.4318C21.9329 21.2922 21.765 21.1822 21.5806 21.108C21.3961 21.0339 21.1988 20.9972 21 21C17.1516 21 14 24.1516 14 28C14 31.8484 17.1516 35 21 35C24.8484 35 28 31.8484 28 28V20.3359C29.2681 21.317 30.7824 22 32.5 22C32.6988 22.0028 32.8961 21.9661 33.0806 21.892C33.265 21.8178 33.4329 21.7078 33.5745 21.5682C33.716 21.4287 33.8284 21.2624 33.9051 21.079C33.9819 20.8956 34.0214 20.6988 34.0214 20.5C34.0214 20.3012 33.9819 20.1044 33.9051 19.921C33.8284 19.7376 33.716 19.5713 33.5745 19.4318C33.4329 19.2922 33.265 19.1822 33.0806 19.108C32.8961 19.0339 32.6988 18.9972 32.5 19C29.9965 19 28 17.0035 28 14.5C27.997 14.2995 27.9539 14.1016 27.8731 13.918C27.7923 13.7344 27.6755 13.5689 27.5297 13.4312C27.3838 13.2936 27.2119 13.1866 27.0239 13.1165C26.836 13.0465 26.6359 13.0148 26.4355 13.0234Z" fill="#00DCF0"/>
</svg>
