<svg width="48" height="48" viewBox="0 0 48 48" fill="none" xmlns="http://www.w3.org/2000/svg">
<path d="M32.0003 6C26.5689 6 22.161 10.3887 22.0433 15.793C17.241 15.217 14.1139 13.4215 12.1956 11.6523C10.0683 9.69038 9.39485 7.94727 9.39485 7.94727C9.29653 7.69954 9.13399 7.48248 8.92395 7.31842C8.71391 7.15435 8.46395 7.04921 8.19979 7.0138C7.93563 6.9784 7.66681 7.014 7.42098 7.11696C7.17515 7.21992 6.96118 7.38652 6.8011 7.59961C6.8011 7.59961 5.00032 10 5.00032 13.5C5.00032 15.501 5.63212 16.9816 6.38509 18.2363C6.35735 18.2233 6.17024 18.1582 6.17024 18.1582C5.93117 18.0388 5.66456 17.9855 5.39797 18.0037C5.13138 18.0219 4.87448 18.111 4.65385 18.2617C4.43322 18.4124 4.25685 18.6194 4.14299 18.8611C4.02912 19.1028 3.98189 19.3706 4.00618 19.6367C4.00618 19.6367 4.58352 23.8568 8.5511 26.9414L8.13704 27.0449C7.91228 27.101 7.70356 27.2084 7.52726 27.3587C7.35095 27.509 7.21184 27.6981 7.12084 27.9111C7.02984 28.1241 6.98941 28.3553 7.00272 28.5866C7.01604 28.8179 7.08273 29.043 7.19759 29.2441C7.19759 29.2441 7.87037 30.3822 9.27962 31.5801C10.1152 32.2903 11.3426 33.0232 12.7894 33.7012C11.0126 34.3504 8.36314 35 4.50032 35C4.21207 35 3.92992 35.083 3.68761 35.2391C3.44531 35.3952 3.25312 35.6179 3.13402 35.8804C3.01493 36.1428 2.97399 36.4341 3.01609 36.7193C3.05819 37.0044 3.18155 37.2714 3.37141 37.4883C3.37141 37.4883 4.51765 38.751 6.78352 39.8496C9.0494 40.9482 12.5398 42 17.5003 42C26.22 42 32.485 37.8172 36.3949 32.5156C40.3047 27.2141 42.0003 20.8611 42.0003 16C42.0003 15.6915 41.9811 15.3874 41.9534 15.0859C44.0647 13.0516 44.8569 11.5222 44.8949 11.4473C45.0849 11.0663 45.0141 10.6087 44.7191 10.3047C44.4251 9.99969 43.9694 9.9138 43.5824 10.0918L43.4202 10.166C43.2812 10.23 43.1423 10.2944 43.0023 10.3574C43.4093 9.70842 43.7304 9.01487 43.9534 8.29688C44.0774 7.90087 43.9436 7.46694 43.6156 7.21094C43.2876 6.95494 42.8358 6.92753 42.4808 7.14453C41.2585 7.88736 40.087 8.40739 38.8675 8.75586C37.0729 7.05347 34.6572 6 32.0003 6ZM32.0003 9C35.8835 9 39.0003 12.1168 39.0003 16C39.0003 20.1389 37.4459 26.0359 33.9808 30.7344C30.5157 35.4328 25.2806 39 17.5003 39C13.7351 39 11.2305 38.3189 9.35384 37.582C11.3197 37.2768 13.0123 36.8694 14.2288 36.3984C16.3385 35.5818 17.4769 34.6387 17.4769 34.6387C17.6857 34.4595 17.8412 34.2263 17.9263 33.9646C18.0115 33.7029 18.0231 33.4229 17.9598 33.1551C17.8964 32.8873 17.7607 32.6421 17.5674 32.4463C17.374 32.2505 17.1306 32.1116 16.8636 32.0449C14.1409 31.3642 12.3946 30.2633 11.2991 29.3457L12.8636 28.9551C13.173 28.8779 13.4497 28.7041 13.6536 28.4589C13.8576 28.2138 13.9781 27.91 13.9977 27.5917C14.0173 27.2735 13.9349 26.9572 13.7626 26.6889C13.5903 26.4206 13.337 26.2142 13.0394 26.0996C9.79426 24.8515 8.43155 23.0864 7.73469 21.6074C8.58267 21.783 9.37222 22 10.5003 22C10.8381 21.9997 11.166 21.8854 11.4307 21.6757C11.6955 21.4659 11.8817 21.1729 11.9592 20.8441C12.0367 20.5153 12.001 20.1699 11.8578 19.864C11.7146 19.558 11.4724 19.3093 11.1702 19.1582C11.1702 19.1582 8.00032 17.7 8.00032 13.5C8.00032 12.7459 8.20916 12.2684 8.36165 11.6973C8.88483 12.4004 9.316 13.0786 10.1605 13.8574C12.7351 16.232 16.9907 18.6532 23.4202 18.998C23.6237 19.0089 23.8272 18.9782 24.0184 18.9078C24.2096 18.8374 24.3845 18.7289 24.5323 18.5887C24.6802 18.4485 24.7979 18.2797 24.8784 18.0925C24.9588 17.9053 25.0003 17.7037 25.0003 17.5V16C25.0003 12.1168 28.1171 9 32.0003 9Z" fill="#00DCF0"/>
</svg>
