<svg width="500" height="501" viewBox="0 0 500 501" fill="none" xmlns="http://www.w3.org/2000/svg">
<path d="M250.015 0.000409448C191.742 -0.0851596 135.277 20.2136 90.3994 57.3836C45.5243 94.5536 15.0612 146.253 4.29891 203.523C-6.46817 260.79 3.13809 320.022 31.4542 370.948L0.653052 478.771C-0.440704 482.599 -0.128224 486.692 1.53478 490.308C3.19779 493.924 6.09972 496.826 9.71586 498.489C13.332 500.152 17.4245 500.464 21.2525 499.371L129.076 468.569C173.728 493.28 224.87 503.731 275.643 498.512C326.408 493.296 374.352 472.658 413.049 439.384C451.741 406.105 479.316 361.781 492.07 312.369C504.824 262.959 502.144 210.822 484.391 162.973C466.637 115.129 434.66 73.8657 392.765 44.7303C350.867 15.5958 301.05 -0.0142765 250.017 9.79725e-06L250.015 0.000409448ZM250.015 466.685C211.2 466.626 173.119 456.127 139.763 436.282C135.816 433.953 131.084 433.35 126.679 434.615L40.9422 459.118L65.4413 373.348C66.7099 368.943 66.1072 364.211 63.7745 360.264C39.4917 319.138 29.4875 271.138 35.3211 223.735C41.1509 176.33 62.4945 132.187 96.0263 98.1775C129.554 64.1657 173.388 42.1973 220.707 35.6904C268.02 29.1797 316.159 38.4992 357.627 62.1942C399.094 85.8894 431.562 122.632 449.978 166.693C468.39 210.762 471.72 259.681 459.439 305.832C447.161 351.987 419.966 392.789 382.088 421.875C344.211 450.968 297.777 466.716 250.017 466.676L250.015 466.685Z" fill="#00DCF0"/>
<path d="M388.204 307.31C387.687 306.86 329.202 263.741 309.384 267.193C299.383 268.96 293.981 275.411 284.982 286.126C283.415 287.975 282.113 289.46 281.016 290.777C278.147 289.694 274.632 288.228 270.598 286.275C245.816 274.217 225.797 254.19 213.747 229.409C211.798 225.391 210.332 221.875 209.246 219.007C210.578 217.838 212.148 216.521 213.911 215.022C224.61 206.056 231.062 200.639 232.829 190.62C236.278 170.902 193.163 112.284 192.712 111.8V111.804C187.615 104.85 179.653 100.564 171.045 100.137C150.392 100.137 100.142 163.937 100.142 178.875C100.142 181.457 101.024 243.379 178.311 322.033C256.68 399.048 318.602 400.016 321.202 400.016C336.136 400.016 400.022 349.679 400.022 329.031C399.576 320.374 395.23 312.386 388.206 307.311L388.204 307.31ZM318.685 366.33C306.936 364.864 259.981 355.545 201.833 298.411C144.227 239.775 135.011 192.646 133.679 181.369C144.39 165.502 156.6 150.702 170.146 137.167C180.589 152.313 190.008 168.14 198.346 184.539C196.497 186.205 194.179 188.106 192.527 189.539C186.772 193.906 181.515 198.907 176.861 204.439L172.795 210.105L173.996 216.988C176.132 226.364 179.424 235.441 183.796 244.005C199.134 275.509 224.593 300.961 256.097 316.292C264.662 320.675 273.736 323.971 283.115 326.11L289.997 327.294L295.649 323.261C301.185 318.603 306.188 313.35 310.567 307.591C312.033 305.842 313.901 303.572 315.568 301.772V301.776C331.967 310.087 347.79 319.485 362.935 329.909C349.382 343.432 334.564 355.628 318.685 366.328V366.33Z" fill="#00DCF0"/>
</svg>
