<svg width="27" height="27" viewBox="0 0 27 27" fill="none" xmlns="http://www.w3.org/2000/svg">
<path fill-rule="evenodd" clip-rule="evenodd" d="M5.51996 3.86917C7.76385 2.01068 10.5871 0.995742 13.5007 1.00002L13.5008 1C16.0525 0.999286 18.5433 1.77979 20.6382 3.23651C22.733 4.69328 24.3318 6.75645 25.2195 9.14863C26.1072 11.5411 26.2411 14.1479 25.6034 16.6184C24.9658 19.089 23.587 21.3052 21.6524 22.9691C19.7176 24.6329 17.3204 25.6647 14.7821 25.9255C12.2435 26.1865 9.68638 25.664 7.45378 24.4284L2.06262 25.9685C1.87123 26.0232 1.6666 26.0076 1.48579 25.9244C1.30499 25.8413 1.15989 25.6962 1.07674 25.5154C0.993589 25.3346 0.977965 25.1299 1.03265 24.9385L2.57271 19.5474C1.1569 17.0011 0.676592 14.0395 1.21495 11.1761C1.75306 8.31262 3.27621 5.72767 5.51996 3.86917ZM7.98815 22.8141C9.65592 23.8063 11.56 24.3312 13.5007 24.3342L13.5008 24.3337C15.8889 24.3358 18.2105 23.5484 20.1044 22.0937C21.9983 20.6394 23.358 18.5993 23.9719 16.2916C24.586 13.984 24.4195 11.5381 23.4989 9.33466C22.5781 7.13158 20.9547 5.29447 18.8813 4.10971C16.8079 2.92496 14.401 2.45898 12.0353 2.78452C9.6694 3.10986 7.4777 4.20828 5.8013 5.90887C4.12472 7.60936 3.05754 9.81649 2.76605 12.1867C2.47437 14.5569 2.97458 16.9569 4.18872 19.0132C4.30536 19.2105 4.33549 19.4471 4.27206 19.6674L3.04711 23.9559L7.33393 22.7307C7.55417 22.6675 7.79078 22.6976 7.98815 22.8141ZM16.4689 14.3596C17.4599 14.187 20.3841 16.343 20.4099 16.3655L20.41 16.3655C20.7612 16.6193 20.9785 17.0187 21.0008 17.4515C21.0008 18.4839 17.8065 21.0008 17.0598 21.0008C16.9298 21.0008 13.8338 20.9524 9.91528 17.1016C6.05093 13.1689 6.00684 10.0728 6.00684 9.94373C6.00684 9.19685 8.51937 6.00682 9.55198 6.00682C9.98242 6.02821 10.3805 6.24251 10.6354 6.59018V6.58999C10.6579 6.61419 12.8136 9.5451 12.6412 10.531C12.5528 11.0319 12.2303 11.3028 11.6953 11.7511C11.6726 11.7704 11.6506 11.7891 11.6292 11.8072C11.5675 11.8594 11.5115 11.9069 11.462 11.9503C11.5164 12.0937 11.5896 12.2695 11.6871 12.4704C12.2896 13.7095 13.2906 14.7108 14.5296 15.3137C14.7313 15.4114 14.9071 15.4847 15.0505 15.5388C15.0809 15.5024 15.1144 15.4634 15.1515 15.4201C15.1815 15.3852 15.2138 15.3476 15.2488 15.3063L15.2514 15.3032C15.6998 14.7693 15.9698 14.4478 16.4689 14.3596ZM11.0914 15.9205C13.9988 18.7772 16.3465 19.2432 16.934 19.3165V19.3163C17.7279 18.7814 18.4688 18.1716 19.1465 17.4954C18.3892 16.9742 17.5981 16.5043 16.7781 16.0888V16.0886C16.7072 16.1652 16.6291 16.2587 16.5622 16.3388C16.5504 16.3528 16.5391 16.3664 16.5281 16.3795C16.3091 16.6675 16.059 16.9301 15.7822 17.163L15.4996 17.3646L15.1555 17.3055C14.6866 17.1985 14.2328 17.0337 13.8046 16.8146C12.2294 16.048 10.9565 14.7754 10.1895 13.2002C9.97096 12.772 9.80633 12.3182 9.69956 11.8494L9.63947 11.5053L9.84279 11.2219C10.0755 10.9453 10.3383 10.6953 10.6261 10.4769C10.6565 10.4505 10.6915 10.421 10.7281 10.39C10.7909 10.3369 10.8586 10.2796 10.917 10.2269C10.5002 9.40697 10.0292 8.61561 9.50704 7.85835C8.82973 8.53508 8.21923 9.27506 7.68368 10.0684C7.7503 10.6323 8.21108 12.9887 11.0914 15.9205Z" fill="#00DCF0"/>
<path d="M13.5007 1.00002L13.5004 1.20002L13.5205 1.20005L13.5402 1.19608L13.5007 1.00002ZM5.51996 3.86917L5.39239 3.71515L5.39238 3.71515L5.51996 3.86917ZM13.5008 1L13.5008 0.8L13.4809 0.800006L13.4613 0.80394L13.5008 1ZM20.6382 3.23651L20.7524 3.07231L20.7524 3.07231L20.6382 3.23651ZM25.2195 9.14863L25.407 9.07906L25.407 9.07905L25.2195 9.14863ZM25.6034 16.6184L25.4098 16.5684V16.5685L25.6034 16.6184ZM21.6524 22.9691L21.7828 23.1208L21.7828 23.1208L21.6524 22.9691ZM14.7821 25.9255L14.7617 25.7266H14.7617L14.7821 25.9255ZM7.45378 24.4284L7.55062 24.2534L7.47831 24.2134L7.39884 24.2361L7.45378 24.4284ZM2.06262 25.9685L2.00769 25.7762L2.00767 25.7762L2.06262 25.9685ZM1.48579 25.9244L1.56935 25.7427H1.56935L1.48579 25.9244ZM1.07674 25.5154L1.25844 25.4318H1.25844L1.07674 25.5154ZM1.03265 24.9385L1.22496 24.9935L1.22496 24.9935L1.03265 24.9385ZM2.57271 19.5474L2.76502 19.6023L2.78778 19.5226L2.74751 19.4502L2.57271 19.5474ZM1.21495 11.1761L1.4115 11.2131L1.4115 11.213L1.21495 11.1761ZM13.5007 24.3342L13.5004 24.5342L13.6716 24.5345L13.6983 24.3654L13.5007 24.3342ZM7.98815 22.8141L8.09041 22.6422L8.08978 22.6418L7.98815 22.8141ZM13.5008 24.3337L13.501 24.1337L13.33 24.1336L13.3033 24.3025L13.5008 24.3337ZM20.1044 22.0937L19.9826 21.9351L19.9826 21.9351L20.1044 22.0937ZM23.9719 16.2916L23.7786 16.2402L23.7786 16.2402L23.9719 16.2916ZM23.4989 9.33466L23.6834 9.25756L23.6834 9.25754L23.4989 9.33466ZM18.8813 4.10971L18.9805 3.93606L18.9805 3.93606L18.8813 4.10971ZM12.0353 2.78452L12.0626 2.98265L12.0626 2.98265L12.0353 2.78452ZM5.8013 5.90887L5.94372 6.04929L5.94374 6.04927L5.8013 5.90887ZM2.76605 12.1867L2.96455 12.2111L2.96455 12.2111L2.76605 12.1867ZM4.18872 19.0132L4.0165 19.1149L4.01654 19.1149L4.18872 19.0132ZM4.27206 19.6674L4.07987 19.612L4.07975 19.6124L4.27206 19.6674ZM3.04711 23.9559L2.8548 23.9009L2.75592 24.2471L3.10207 24.1482L3.04711 23.9559ZM7.33393 22.7307L7.38889 22.923L7.38914 22.923L7.33393 22.7307ZM20.4099 16.3655L20.2786 16.5163L20.2942 16.5299L20.3122 16.54L20.4099 16.3655ZM16.4689 14.3596L16.4346 14.1626L16.4341 14.1627L16.4689 14.3596ZM20.41 16.3655L20.5272 16.2034L20.5178 16.1967L20.5077 16.191L20.41 16.3655ZM21.0008 17.4515H21.2011L21.2006 17.4412L21.0008 17.4515ZM9.91528 17.1016L9.7726 17.2418L9.77509 17.2443L9.91528 17.1016ZM9.55198 6.00682L9.56191 5.80682H9.55198V6.00682ZM10.6354 6.59018L10.474 6.70842L10.8354 7.20132V6.59018H10.6354ZM10.6354 6.58999L10.7817 6.4537L10.4353 6.0817V6.58999H10.6354ZM12.6412 10.531L12.8381 10.5657L12.8382 10.5655L12.6412 10.531ZM11.6953 11.7511L11.5668 11.5978L11.5657 11.5987L11.6953 11.7511ZM11.6292 11.8072L11.7585 11.9597L11.7585 11.9597L11.6292 11.8072ZM11.462 11.9503L11.3301 11.8L11.2259 11.8914L11.275 12.0212L11.462 11.9503ZM11.6871 12.4704L11.5072 12.5577L11.5072 12.5579L11.6871 12.4704ZM14.5296 15.3137L14.4421 15.4936L14.4425 15.4937L14.5296 15.3137ZM15.0505 15.5388L14.9799 15.7259L15.113 15.7762L15.2042 15.6669L15.0505 15.5388ZM15.1515 15.4201L14.9998 15.2898L14.9998 15.2898L15.1515 15.4201ZM15.2488 15.3063L15.4014 15.4356L15.402 15.4349L15.2488 15.3063ZM15.2514 15.3032L15.4045 15.4319L15.4045 15.4319L15.2514 15.3032ZM16.934 19.3165L16.9092 19.5149L17.134 19.543V19.3165H16.934ZM11.0914 15.9205L10.9487 16.0607L10.9512 16.0632L11.0914 15.9205ZM16.934 19.3163L16.8222 19.1505L16.734 19.2099V19.3163H16.934ZM19.1465 17.4954L19.2878 17.637L19.4581 17.4671L19.2599 17.3307L19.1465 17.4954ZM16.7781 16.0888H16.5781V16.2116L16.6877 16.2671L16.7781 16.0888ZM16.7781 16.0886H16.9781V15.5781L16.6313 15.9527L16.7781 16.0886ZM16.5622 16.3388L16.4087 16.2105L16.4087 16.2105L16.5622 16.3388ZM16.5281 16.3795L16.3747 16.2509L16.3689 16.2584L16.5281 16.3795ZM15.7822 17.163L15.8984 17.3258L15.9048 17.3212L15.9109 17.316L15.7822 17.163ZM15.4996 17.3646L15.4657 17.5618L15.5479 17.5759L15.6158 17.5274L15.4996 17.3646ZM15.1555 17.3055L15.1109 17.5008L15.1216 17.5026L15.1555 17.3055ZM13.8046 16.8146L13.8957 16.6365L13.8921 16.6347L13.8046 16.8146ZM10.1895 13.2002L10.3694 13.1127L10.3677 13.1093L10.1895 13.2002ZM9.69956 11.8494L9.50228 11.8838L9.50455 11.8938L9.69956 11.8494ZM9.63947 11.5053L9.47699 11.3886L9.42801 11.4569L9.44245 11.5396L9.63947 11.5053ZM9.84279 11.2219L9.68975 11.0932L9.68479 11.0991L9.68031 11.1053L9.84279 11.2219ZM10.6261 10.4769L10.7473 10.6366L10.7571 10.628L10.6261 10.4769ZM10.7281 10.39L10.5989 10.2373L10.5989 10.2373L10.7281 10.39ZM10.917 10.2269L11.051 10.3755L11.1648 10.2729L11.0953 10.1363L10.917 10.2269ZM9.50704 7.85835L9.67169 7.74481L9.53545 7.54723L9.36567 7.71686L9.50704 7.85835ZM7.68368 10.0684L7.51792 9.95653L7.47635 10.0181L7.48506 10.0919L7.68368 10.0684ZM13.501 0.800021C10.5407 0.795674 7.67223 1.82687 5.39239 3.71515L5.64754 4.0232C7.85547 2.19448 10.6335 1.19581 13.5004 1.20002L13.501 0.800021ZM13.4613 0.80394L13.4612 0.80396L13.5402 1.19608L13.5403 1.19606L13.4613 0.80394ZM20.7524 3.07231C18.624 1.59227 16.0933 0.799275 13.5008 0.8L13.5009 1.2C16.0117 1.1993 18.4627 1.96731 20.5241 3.40072L20.7524 3.07231ZM25.407 9.07905C24.5051 6.64858 22.8807 4.55239 20.7524 3.07231L20.524 3.40071C22.5853 4.83417 24.1585 6.86432 25.032 9.21822L25.407 9.07905ZM25.7971 16.6684C26.445 14.1584 26.3089 11.5098 25.407 9.07906L25.032 9.21821C25.9055 11.5724 26.0373 14.1375 25.4098 16.5684L25.7971 16.6684ZM21.7828 23.1208C23.7484 21.4302 25.1492 19.1785 25.7971 16.6684L25.4098 16.5685C24.7823 18.9995 23.4256 21.1802 21.522 22.8175L21.7828 23.1208ZM14.8026 26.1245C17.3815 25.8595 19.817 24.8111 21.7828 23.1208L21.522 22.8175C19.6181 24.4546 17.2593 25.47 14.7617 25.7266L14.8026 26.1245ZM7.35694 24.6034C9.62527 25.8587 12.2233 26.3896 14.8026 26.1245L14.7617 25.7266C12.2637 25.9834 9.74749 25.4692 7.55062 24.2534L7.35694 24.6034ZM2.11756 26.1608L7.50871 24.6207L7.39884 24.2361L2.00769 25.7762L2.11756 26.1608ZM1.40223 26.1061C1.62648 26.2092 1.88024 26.2286 2.11757 26.1608L2.00767 25.7762C1.86221 25.8178 1.70672 25.8059 1.56935 25.7427L1.40223 26.1061ZM0.895035 25.5989C0.998131 25.8231 1.17803 26.003 1.40223 26.1061L1.56935 25.7427C1.43194 25.6795 1.32165 25.5692 1.25844 25.4318L0.895035 25.5989ZM0.840348 24.8836C0.77254 25.1209 0.7919 25.3747 0.895035 25.5989L1.25844 25.4318C1.19528 25.2944 1.18339 25.139 1.22496 24.9935L0.840348 24.8836ZM2.3804 19.4924L0.840345 24.8836L1.22496 24.9935L2.76502 19.6023L2.3804 19.4924ZM1.01839 11.1392C0.47141 14.0484 0.959417 17.0575 2.39791 19.6446L2.74751 19.4502C1.35439 16.9447 0.881774 14.0306 1.4115 11.2131L1.01839 11.1392ZM5.39238 3.71515C3.11269 5.60342 1.56513 8.22979 1.01839 11.1392L1.4115 11.213C1.941 8.39546 3.43974 5.85192 5.64754 4.0232L5.39238 3.71515ZM13.501 24.1342C11.5962 24.1313 9.72733 23.6161 8.09041 22.6422L7.88589 22.9859C9.58452 23.9965 11.5238 24.5312 13.5004 24.5342L13.501 24.1342ZM13.3033 24.3025L13.3032 24.303L13.6983 24.3654L13.6984 24.365L13.3033 24.3025ZM19.9826 21.9351C18.1237 23.3629 15.8449 24.1358 13.501 24.1337L13.5006 24.5337C15.9328 24.5358 18.2973 23.7339 20.2262 22.2523L19.9826 21.9351ZM23.7786 16.2402C23.1761 18.5053 21.8415 20.5077 19.9826 21.9351L20.2262 22.2523C22.1551 20.7712 23.54 18.6934 24.1652 16.343L23.7786 16.2402ZM23.3143 9.41176C24.2179 11.5745 24.3813 13.9752 23.7786 16.2402L24.1652 16.343C24.7906 13.9928 24.621 11.5017 23.6834 9.25756L23.3143 9.41176ZM18.7821 4.28336C20.8171 5.44623 22.4105 7.2494 23.3143 9.41179L23.6834 9.25754C22.7456 7.01376 21.0922 5.1427 18.9805 3.93606L18.7821 4.28336ZM12.0626 2.98265C14.3845 2.66313 16.747 3.12049 18.7821 4.28336L18.9805 3.93606C16.8688 2.72942 14.4174 2.25484 12.0081 2.58638L12.0626 2.98265ZM5.94374 6.04927C7.58915 4.38011 9.74035 3.30199 12.0626 2.98265L12.0081 2.58638C9.59845 2.91774 7.36625 4.03645 5.65887 5.76846L5.94374 6.04927ZM2.96455 12.2111C3.25066 9.8847 4.29812 7.71836 5.94372 6.04929L5.65889 5.76845C3.95132 7.50036 2.86442 9.74828 2.56755 12.1623L2.96455 12.2111ZM4.36094 18.9115C3.16923 16.8932 2.67826 14.5375 2.96455 12.2111L2.56755 12.1623C2.27048 14.5763 2.77993 17.0206 4.0165 19.1149L4.36094 18.9115ZM4.46425 19.7227C4.54291 19.4496 4.50554 19.1561 4.3609 18.9114L4.01654 19.1149C4.10517 19.2649 4.12807 19.4447 4.07987 19.612L4.46425 19.7227ZM3.23942 24.0108L4.46437 19.7223L4.07975 19.6124L2.8548 23.9009L3.23942 24.0108ZM7.27898 22.5384L2.99215 23.7636L3.10207 24.1482L7.38889 22.923L7.27898 22.5384ZM8.08978 22.6418C7.8451 22.4974 7.55176 22.4601 7.27873 22.5385L7.38914 22.923C7.55657 22.8749 7.73647 22.8978 7.88652 22.9863L8.08978 22.6418ZM20.5412 16.2146C20.5316 16.2062 20.5085 16.1893 20.4908 16.1763C20.4671 16.1588 20.4334 16.1342 20.3907 16.1035C20.3053 16.042 20.184 15.9558 20.0363 15.8537C19.7409 15.6497 19.3385 15.3811 18.905 15.1183C18.4725 14.8561 18.0043 14.5968 17.5782 14.4134C17.3652 14.3216 17.1584 14.247 16.9689 14.201C16.7822 14.1556 16.5974 14.1342 16.4346 14.1626L16.5032 14.5567C16.5882 14.5419 16.7115 14.5501 16.8745 14.5897C17.0347 14.6286 17.2192 14.6943 17.42 14.7808C17.8217 14.9537 18.272 15.2024 18.6976 15.4604C19.1223 15.7178 19.5178 15.9817 19.8089 16.1828C19.9544 16.2833 20.0735 16.368 20.1569 16.428C20.1986 16.4581 20.2313 16.4819 20.2537 16.4984C20.2822 16.5194 20.285 16.5219 20.2786 16.5163L20.5412 16.2146ZM20.5077 16.191L20.5076 16.1909L20.3122 16.54L20.3124 16.5401L20.5077 16.191ZM21.2006 17.4412C21.1751 16.9479 20.9275 16.4926 20.5272 16.2034L20.2929 16.5277C20.595 16.7459 20.7819 17.0894 20.8011 17.4618L21.2006 17.4412ZM17.0598 21.2008C17.1976 21.2008 17.3617 21.1461 17.525 21.0733C17.695 20.9974 17.8895 20.8901 18.0964 20.7611C18.5106 20.5029 18.9878 20.15 19.4399 19.7657C19.8915 19.3817 20.3237 18.9617 20.645 18.5681C20.8055 18.3714 20.9418 18.1772 21.0388 17.9941C21.1342 17.8141 21.2008 17.6278 21.2008 17.4515H20.8008C20.8008 17.5334 20.7676 17.6516 20.6854 17.8068C20.6048 17.9589 20.4857 18.1307 20.3351 18.3152C20.0341 18.6839 19.6211 19.0866 19.1808 19.4609C18.7409 19.8349 18.2796 20.1756 17.8848 20.4216C17.6873 20.5448 17.5097 20.6421 17.3621 20.7079C17.2078 20.7768 17.1087 20.8008 17.0598 20.8008V21.2008ZM9.77509 17.2443C13.7351 21.1358 16.8834 21.2008 17.0598 21.2008V20.8008C16.9762 20.8008 13.9324 20.769 10.0555 16.959L9.77509 17.2443ZM5.80685 9.94373C5.80685 10.1192 5.86751 13.2676 9.77262 17.2418L10.0579 16.9614C6.23436 13.0703 6.20684 10.0264 6.20684 9.94373H5.80685ZM9.55198 5.80682C9.37573 5.80682 9.18954 5.87333 9.0096 5.9686C8.82652 6.06552 8.63245 6.20164 8.43596 6.36199C8.04277 6.68287 7.62322 7.11456 7.23979 7.56567C6.856 8.01721 6.50356 8.49391 6.2458 8.90776C6.11705 9.11448 6.00985 9.30881 5.93414 9.47873C5.86139 9.64198 5.80685 9.80596 5.80685 9.94373H6.20684C6.20684 9.89478 6.23081 9.7957 6.29951 9.64153C6.36523 9.49404 6.46239 9.31662 6.58533 9.11923C6.83093 8.7249 7.17116 8.26405 7.54457 7.82472C7.91835 7.38497 8.32055 6.97247 8.68887 6.67189C8.87315 6.5215 9.04478 6.40257 9.19675 6.32211C9.35185 6.24 9.47007 6.20682 9.55198 6.20682V5.80682ZM10.7967 6.47194C10.5062 6.07568 10.0525 5.83144 9.5619 5.80707L9.54205 6.20658C9.91234 6.22497 10.2548 6.40934 10.474 6.70842L10.7967 6.47194ZM10.4353 6.58999V6.59018H10.8354V6.58999H10.4353ZM12.8382 10.5655C12.8666 10.4031 12.8451 10.2186 12.7998 10.0323C12.7537 9.84315 12.6791 9.63653 12.5874 9.42358C12.4039 8.99765 12.1446 8.5292 11.8825 8.09626C11.6197 7.66236 11.3512 7.25946 11.1471 6.96375C11.045 6.8158 10.9589 6.69438 10.8974 6.60897C10.8666 6.56628 10.842 6.53246 10.8245 6.50872C10.8157 6.49689 10.8086 6.48733 10.8033 6.4803C10.803 6.47991 10.7916 6.46432 10.7817 6.4537L10.489 6.72628C10.4805 6.71718 10.4746 6.70878 10.4838 6.72096C10.488 6.7265 10.4942 6.73489 10.5025 6.7461C10.519 6.76843 10.5428 6.80102 10.5728 6.84272C10.6328 6.92607 10.7174 7.0453 10.8179 7.19093C11.019 7.48238 11.2829 7.87836 11.5403 8.30346C11.7983 8.72951 12.047 9.18015 12.22 9.5818C12.3065 9.78265 12.3722 9.96695 12.4111 10.1269C12.4507 10.2897 12.4589 10.4124 12.4442 10.4965L12.8382 10.5655ZM11.8238 11.9044C12.3459 11.4668 12.735 11.1508 12.8381 10.5657L12.4442 10.4963C12.3707 10.9131 12.1147 11.1387 11.5668 11.5978L11.8238 11.9044ZM11.7585 11.9597C11.7799 11.9417 11.802 11.9229 11.8248 11.9035L11.5657 11.5987C11.5432 11.6179 11.5213 11.6365 11.4999 11.6546L11.7585 11.9597ZM11.5939 12.1007C11.6418 12.0586 11.6965 12.0123 11.7585 11.9597L11.4999 11.6546C11.4386 11.7066 11.3811 11.7552 11.3301 11.8L11.5939 12.1007ZM11.8671 12.3831C11.7724 12.188 11.7014 12.0178 11.6491 11.8795L11.275 12.0212C11.3313 12.1697 11.4069 12.351 11.5072 12.5577L11.8671 12.3831ZM14.6171 15.1339C13.4183 14.5506 12.4499 13.5818 11.867 12.383L11.5072 12.5579C12.1293 13.8372 13.1628 14.8711 14.4421 15.4936L14.6171 15.1339ZM15.1211 15.3517C14.983 15.2996 14.8128 15.2286 14.6168 15.1337L14.4425 15.4937C14.6499 15.5942 14.8312 15.6698 14.9799 15.7259L15.1211 15.3517ZM14.9998 15.2898C14.9629 15.3328 14.9284 15.373 14.8969 15.4108L15.2042 15.6669C15.2334 15.6318 15.2659 15.594 15.3032 15.5505L14.9998 15.2898ZM15.0962 15.177C15.0617 15.2177 15.0298 15.2549 14.9998 15.2898L15.3032 15.5505C15.3332 15.5156 15.3659 15.4775 15.4014 15.4356L15.0962 15.177ZM15.0982 15.1746L15.0957 15.1777L15.402 15.4349L15.4045 15.4319L15.0982 15.1746ZM16.4341 14.1627C15.851 14.2657 15.5358 14.6537 15.0982 15.1746L15.4045 15.4319C15.8639 14.885 16.0887 14.6299 16.5037 14.5566L16.4341 14.1627ZM16.9587 19.118C16.4121 19.0498 14.1057 18.6019 11.2316 15.7779L10.9512 16.0632C13.8918 18.9525 16.281 19.4366 16.9092 19.5149L16.9587 19.118ZM16.734 19.3163V19.3165H17.134V19.3163H16.734ZM19.0052 17.3538C18.3366 18.021 17.6056 18.6226 16.8222 19.1505L17.0457 19.4822C17.8503 18.9401 18.6011 18.3222 19.2878 17.637L19.0052 17.3538ZM16.6877 16.2671C17.4997 16.6787 18.2832 17.144 19.0331 17.6602L19.2599 17.3307C18.4953 16.8044 17.6965 16.33 16.8685 15.9104L16.6877 16.2671ZM16.5781 16.0886V16.0888H16.9781V16.0886H16.5781ZM16.7157 16.467C16.7833 16.386 16.8581 16.2966 16.9249 16.2244L16.6313 15.9527C16.5563 16.0337 16.4748 16.1314 16.4087 16.2105L16.7157 16.467ZM16.6814 16.508C16.6924 16.4948 16.7039 16.481 16.7157 16.467L16.4087 16.2105C16.3969 16.2246 16.3857 16.2381 16.3748 16.251L16.6814 16.508ZM15.9109 17.316C16.199 17.0737 16.4594 16.8003 16.6873 16.5006L16.3689 16.2584C16.1589 16.5346 15.9189 16.7865 15.6534 17.01L15.9109 17.316ZM15.6158 17.5274L15.8984 17.3258L15.666 17.0002L15.3834 17.2019L15.6158 17.5274ZM15.1216 17.5026L15.4657 17.5618L15.5335 17.1675L15.1894 17.1084L15.1216 17.5026ZM13.7135 16.9926C14.1565 17.2193 14.6259 17.3898 15.111 17.5005L15.2 17.1105C14.7472 17.0072 14.3091 16.8481 13.8957 16.6365L13.7135 16.9926ZM10.0097 13.2878C10.7962 14.9032 12.1017 16.2083 13.7171 16.9944L13.8921 16.6347C12.3571 15.8878 11.1167 14.6477 10.3693 13.1127L10.0097 13.2878ZM9.50455 11.8938C9.615 12.3787 9.7853 12.8482 10.0114 13.2912L10.3677 13.1093C10.1566 12.6959 9.99766 12.2576 9.89456 11.805L9.50455 11.8938ZM9.44245 11.5396L9.50254 11.8838L9.89658 11.815L9.83649 11.4709L9.44245 11.5396ZM9.68031 11.1053L9.47699 11.3886L9.80196 11.6219L10.0053 11.3386L9.68031 11.1053ZM10.5052 10.3176C10.2056 10.545 9.932 10.8052 9.68975 11.0932L9.99584 11.3507C10.219 11.0854 10.4711 10.8456 10.747 10.6362L10.5052 10.3176ZM10.5989 10.2373C10.5625 10.2681 10.5266 10.2985 10.4951 10.3258L10.7571 10.628C10.7864 10.6026 10.8204 10.5739 10.8573 10.5427L10.5989 10.2373ZM10.7831 10.0784C10.7275 10.1285 10.6623 10.1837 10.5989 10.2373L10.8573 10.5427C10.9195 10.49 10.9898 10.4306 11.051 10.3755L10.7831 10.0784ZM9.34239 7.97188C9.85949 8.72181 10.3259 9.50552 10.7388 10.3176L11.0953 10.1363C10.6744 9.30843 10.1989 8.50942 9.67169 7.74481L9.34239 7.97188ZM7.84945 10.1803C8.37782 9.39759 8.98015 8.66751 9.6484 7.99983L9.36567 7.71686C8.6793 8.40266 8.06063 9.15254 7.51792 9.95653L7.84945 10.1803ZM11.234 15.7804C8.38612 12.8815 7.94394 10.5667 7.8823 10.045L7.48506 10.0919C7.55667 10.6979 8.03604 13.0959 10.9487 16.0607L11.234 15.7804Z" fill="#00DCF0"/>
</svg>
