<svg width="24" height="24" viewBox="0 0 24 24" fill="none" xmlns="http://www.w3.org/2000/svg">
<path d="M11.7071 15.7071C11.3166 16.0976 10.6834 16.0976 10.2929 15.7071C9.90237 15.3166 9.90237 14.6834 10.2929 14.2929L11.7071 15.7071ZM10.2929 9.70711C9.90237 9.31658 9.90237 8.68342 10.2929 8.29289C10.6834 7.90237 11.3166 7.90237 11.7071 8.29289L10.2929 9.70711ZM10.2929 14.2929L13.0808 11.505L14.495 12.9192L11.7071 15.7071L10.2929 14.2929ZM13.0808 12.495L10.2929 9.70711L11.7071 8.29289L14.495 11.0808L13.0808 12.495ZM13.0808 11.505C12.8074 11.7784 12.8074 12.2216 13.0808 12.495L14.495 11.0808C15.0027 11.5884 15.0027 12.4116 14.495 12.9192L13.0808 11.505Z" fill="#00DCF0"/>
<path fill-rule="evenodd" clip-rule="evenodd" d="M12 22C17.5228 22 22 17.5228 22 12C22 6.47715 17.5228 2 12 2C6.47715 2 2 6.47715 2 12C2 17.5228 6.47715 22 12 22ZM20 12C20 16.4183 16.4183 20 12 20C7.58172 20 4 16.4183 4 12C4 7.58172 7.58172 4 12 4C16.4183 4 20 7.58172 20 12Z" fill="#00DCF0"/>
</svg>
