<svg width="24" height="24" viewBox="0 0 24 24" fill="none" xmlns="http://www.w3.org/2000/svg">
<path d="M12.2929 8.29289C12.6834 7.90237 13.3166 7.90237 13.7071 8.29289C14.0976 8.68342 14.0976 9.31658 13.7071 9.70711L12.2929 8.29289ZM13.7071 14.2929C14.0976 14.6834 14.0976 15.3166 13.7071 15.7071C13.3166 16.0976 12.6834 16.0976 12.2929 15.7071L13.7071 14.2929ZM13.7071 9.70711L10.9192 12.495L9.50503 11.0808L12.2929 8.29289L13.7071 9.70711ZM10.9192 11.505L13.7071 14.2929L12.2929 15.7071L9.50503 12.9192L10.9192 11.505ZM10.9192 12.495C11.1926 12.2216 11.1926 11.7784 10.9192 11.505L9.50503 12.9192C8.99734 12.4116 8.99734 11.5884 9.50503 11.0808L10.9192 12.495Z" fill="#00DCF0"/>
<path fill-rule="evenodd" clip-rule="evenodd" d="M12 2C6.47715 2 2 6.47715 2 12C2 17.5228 6.47715 22 12 22C17.5228 22 22 17.5228 22 12C22 6.47715 17.5228 2 12 2ZM4 12C4 7.58172 7.58172 4 12 4C16.4183 4 20 7.58172 20 12C20 16.4183 16.4183 20 12 20C7.58172 20 4 16.4183 4 12Z" fill="#00DCF0"/>
</svg>
