<svg width="236" height="230" viewBox="0 0 236 230" fill="none" xmlns="http://www.w3.org/2000/svg">
<g filter="url(#filter0_d_227_334)">
<rect x="41" y="31" width="154" height="148" rx="20" fill="#595AAE"/>
</g>
<path d="M148.231 120.942C147.62 119.707 145.846 119.151 144.622 119.707L121.254 133.049V78.5689C121.254 76.7776 120.03 75.5423 118.256 75.5423C116.482 75.5423 114.647 76.7776 114.647 78.5689V133.049L91.2783 119.707C90.0549 119.089 88.2808 119.089 87.6691 120.324C87.0573 121.56 87.6691 123.351 88.8926 123.969L114.647 138.484V149.973C114.647 151.765 116.421 153 118.256 153C120.03 153 121.254 151.765 121.254 149.973V139.102L147.008 123.969C148.231 123.351 148.782 122.178 148.231 120.942ZM98.4969 134.84C96.1111 135.458 93.1136 135.458 90.7278 134.222C85.3445 131.196 78.1259 117.854 78.7376 115.445C79.3494 114.209 83.5092 113.036 88.342 113.036C93.1136 113.036 97.9463 114.271 100.944 115.445C103.33 116.68 105.165 119.089 105.715 122.116C106.327 123.351 106.327 125.142 106.327 126.378L110.548 128.787C112.322 122.116 109.325 114.889 103.33 111.244C99.1086 108.836 92.563 108.218 87.7302 108.218C82.3469 108.836 76.3519 109.453 74.5166 113.036C71.5191 118.471 82.2857 134.84 88.2808 138.484C90.6666 139.72 93.0524 140.276 95.4994 140.276C99.7204 140.276 103.88 138.484 106.878 135.458L102.106 133.049C101.494 133.666 100.332 134.284 98.4969 134.84ZM161.445 111.862C159.671 108.836 153.064 108.218 148.231 108.218C145.234 108.218 136.853 108.218 132.632 111.244C129.023 113.036 126.025 116.68 125.414 120.942C124.19 123.351 124.802 126.378 125.414 129.404L129.635 126.995C129.635 125.204 129.635 123.351 130.246 122.178C130.858 119.151 132.632 116.742 135.018 115.507C137.404 113.715 142.787 113.098 147.62 113.098C151.841 113.098 156.001 113.715 157.224 114.889C158.448 116.68 151.229 130.022 145.234 133.666C142.848 134.902 139.851 135.458 137.465 134.902C136.241 134.284 135.079 133.666 133.856 133.111L129.635 135.52C132.02 138.546 136.241 140.337 139.851 140.337C142.848 140.337 145.234 139.102 147.62 137.928C151.841 135.52 156.001 130.084 158.386 125.822C160.772 121.56 163.158 115.507 161.384 111.924L161.445 111.862ZM113.485 109.453V102.782C108.101 100.991 104.492 95.4935 104.492 90.0579C104.492 81.5956 115.259 65.2269 118.256 64.0533C121.254 64.0533 131.47 80.9779 131.47 90.0579C131.47 95.4935 127.86 100.929 122.477 102.782V109.453C131.47 107.044 138.077 99.1378 138.077 90.0579C138.077 80.3602 127.31 58 118.317 58C110.548 58 98.5581 80.422 98.5581 90.0579C98.5581 99.1378 105.165 106.982 113.546 109.453H113.485Z" fill="url(#paint0_linear_227_334)"/>
<defs>
<filter id="filter0_d_227_334" x="0" y="0" width="236" height="230" filterUnits="userSpaceOnUse" color-interpolation-filters="sRGB">
<feFlood flood-opacity="0" result="BackgroundImageFix"/>
<feColorMatrix in="SourceAlpha" type="matrix" values="0 0 0 0 0 0 0 0 0 0 0 0 0 0 0 0 0 0 127 0" result="hardAlpha"/>
<feMorphology radius="2" operator="dilate" in="SourceAlpha" result="effect1_dropShadow_227_334"/>
<feOffset dy="10"/>
<feGaussianBlur stdDeviation="19.5"/>
<feComposite in2="hardAlpha" operator="out"/>
<feColorMatrix type="matrix" values="0 0 0 0 0.205833 0 0 0 0 0.209329 0 0 0 0 0.475 0 0 0 1 0"/>
<feBlend mode="normal" in2="BackgroundImageFix" result="effect1_dropShadow_227_334"/>
<feBlend mode="normal" in="SourceGraphic" in2="effect1_dropShadow_227_334" result="shape"/>
</filter>
<linearGradient id="paint0_linear_227_334" x1="40.2426" y1="220.631" x2="162.939" y2="66.4346" gradientUnits="userSpaceOnUse">
<stop offset="0.0286559" stop-color="#00DCF0"/>
<stop offset="0.938249" stop-color="#C0B5FF"/>
</linearGradient>
</defs>
</svg>
