<svg width="236" height="230" viewBox="0 0 236 230" fill="none" xmlns="http://www.w3.org/2000/svg">
<g filter="url(#filter0_d_367_186)">
<rect x="41" y="31" width="154" height="148" rx="20" fill="#595AAE"/>
</g>
<g clip-path="url(#clip0_367_186)">
<path d="M119.29 106.59C118.5 106.59 117.711 105.8 116.808 105.011L99.7678 77.3813H107.103L119.29 97.6807L128.205 83.02H117.598L114.325 77.3813H132.945C134.525 77.3813 135.428 77.3813 136.217 78.9601C136.217 79.7496 136.217 80.539 136.217 81.4412L122.45 105.011C121.66 105.8 120.87 106.59 119.178 106.59H119.29ZM118.5 60.3524C111.165 60.3524 104.733 63.6229 100.671 68.4722C95.8181 73.3214 93.3355 79.0729 93.3355 86.2905C93.3355 92.8314 95.8181 98.4701 99.8806 103.319C104.733 107.379 107.216 113.92 108.006 119.559C108.796 120.348 108.796 120.348 109.586 120.348H127.415C127.415 120.348 128.205 120.348 128.205 119.559C128.995 113.92 132.268 108.169 136.33 103.319C141.183 98.4701 143.665 92.7186 143.665 85.501C143.665 78.9601 141.183 72.532 136.33 67.6827C131.478 63.6229 124.933 60.3524 118.5 60.3524ZM127.415 127.679H109.586C105.523 127.679 101.461 125.198 100.671 121.138C100.671 116.288 98.1879 111.439 95.0282 108.169C89.3859 102.53 86.1133 94.4102 86.1133 86.2905C86.1133 77.3813 89.3859 69.2616 95.0282 62.7207C101.573 57.082 109.698 53.0221 118.613 53.0221C126.738 53.0221 134.863 56.2925 141.296 62.7207C147.841 69.2616 151 77.3813 151 85.3883C151 94.2974 147.728 102.417 142.086 108.056C138.813 112.116 136.443 116.176 135.54 121.025C134.75 125.085 131.478 127.566 127.415 127.566V127.679ZM131.478 133.317V136.588C131.478 139.069 129.898 141.437 127.415 142.226L126.625 144.707C125.836 146.286 124.143 147.978 122.563 147.978H114.438C111.955 147.978 111.165 146.399 110.375 144.707L109.586 142.226C107.103 141.437 104.733 138.956 104.733 136.588V133.317C104.733 130.836 106.313 130.047 108.006 130.047H128.318C129.898 130.047 131.591 130.836 131.591 133.317H131.478Z" fill="url(#paint0_linear_367_186)"/>
</g>
<defs>
<filter id="filter0_d_367_186" x="0" y="0" width="236" height="230" filterUnits="userSpaceOnUse" color-interpolation-filters="sRGB">
<feFlood flood-opacity="0" result="BackgroundImageFix"/>
<feColorMatrix in="SourceAlpha" type="matrix" values="0 0 0 0 0 0 0 0 0 0 0 0 0 0 0 0 0 0 127 0" result="hardAlpha"/>
<feMorphology radius="2" operator="dilate" in="SourceAlpha" result="effect1_dropShadow_367_186"/>
<feOffset dy="10"/>
<feGaussianBlur stdDeviation="19.5"/>
<feComposite in2="hardAlpha" operator="out"/>
<feColorMatrix type="matrix" values="0 0 0 0 0.205833 0 0 0 0 0.209329 0 0 0 0 0.475 0 0 0 1 0"/>
<feBlend mode="normal" in2="BackgroundImageFix" result="effect1_dropShadow_367_186"/>
<feBlend mode="normal" in="SourceGraphic" in2="effect1_dropShadow_367_186" result="shape"/>
</filter>
<linearGradient id="paint0_linear_367_186" x1="61.2221" y1="215.577" x2="186.717" y2="99.2321" gradientUnits="userSpaceOnUse">
<stop offset="0.0286559" stop-color="#00DCF0"/>
<stop offset="0.938249" stop-color="#C0B5FF"/>
</linearGradient>
<clipPath id="clip0_367_186">
<rect width="65" height="95" fill="white" transform="translate(86 53)"/>
</clipPath>
</defs>
</svg>
