<svg width="236" height="230" viewBox="0 0 236 230" fill="none" xmlns="http://www.w3.org/2000/svg">
<g filter="url(#filter0_d_227_343)">
<rect x="41" y="31" width="154" height="148" rx="20" fill="#595AAE"/>
</g>
<path d="M147.125 129.6C139.856 129.6 134.279 124 134.279 116.7C134.279 113.35 135.375 109.95 138.213 107.15C138.76 106.6 139.308 106.05 140.453 105.45C141.549 108.8 143.242 112.2 143.789 115C143.789 115.55 143.789 116.1 143.789 116.7C143.789 118.4 144.885 120.05 147.125 120.05C149.366 120.05 151.059 118.35 151.059 116.7C151.059 115 149.963 113.9 148.27 113.35L144.934 103.8C145.482 103.8 146.627 103.25 147.175 103.25C150.511 103.25 153.897 104.95 156.685 107.2C158.926 110 160.021 113.4 160.021 116.75C160.021 124.05 154.444 129.65 147.175 129.65L147.125 129.6ZM114.712 104.35C115.807 105.45 116.952 105.45 118.048 104.9L126.412 97.05C126.96 96.5 127.508 95.35 126.412 94.25C125.865 93.15 124.172 93.15 123.624 94.25L114.662 101.55C114.114 102.1 114.114 103.8 114.662 104.35H114.712ZM87.8747 129.6C80.6053 129.6 75.0288 124 75.0288 116.7C75.0288 113.35 76.1242 109.95 78.9623 107.15C81.2028 104.9 84.5388 103.2 87.9245 103.2C90.7128 103.2 93.501 104.3 95.7416 106C92.9534 108.25 90.7128 110.5 90.1651 111.6C89.6174 112.15 89.0697 112.15 88.4722 112.7C87.9245 112.7 87.9245 112.7 87.9245 112.7C85.684 112.7 83.9911 114.4 83.9911 116.65C83.9911 118.35 85.684 120 87.9245 120C89.0199 120 89.6174 120 90.7128 118.9C94.0487 118.9 97.4345 118.9 100.77 118.9C99.6751 125.1 94.0487 129.55 87.9245 129.55L87.8747 129.6ZM100.721 114.45H93.999C95.0943 113.35 96.7872 111.65 99.0278 109.95C99.5755 111.05 100.123 112.75 100.721 114.45ZM160.021 103.8C156.685 100.45 152.204 98.75 147.175 98.75C145.482 98.75 144.387 99.3 142.694 99.3L140.453 93.1V84.1C140.453 80.15 138.213 77.35 135.425 75.7C132.089 74 128.703 74 125.367 74C125.367 75.7 125.367 77.35 125.367 79.05C127.06 79.05 128.155 79.05 129.848 79.05C134.329 79.05 136.022 81.85 136.022 85.8C136.022 87.5 135.474 88.6 135.474 89.75C135.474 90.85 135.474 92 135.474 93.1L110.878 114.45H105.301C105.301 111.65 104.206 108.85 102.513 106.6C106.447 102.65 110.878 98.75 112.023 97.6C113.716 95.9 115.359 94.8 117.052 93.1C117.6 92 118.147 90.85 117.6 90.3C117.052 89.2 116.504 88.6 115.359 88.6C114.811 88.6 104.156 88.6 104.156 88.6V93.1C104.156 93.1 109.185 93.1 109.733 93.1C109.185 93.1 108.04 94.2 108.04 94.2C107.492 94.75 103.559 98.7 99.0776 102.6C95.7416 100.35 91.8082 98.65 87.8747 98.65C82.8459 98.65 78.9125 100.35 75.5765 103.7C72.2406 107.05 70 111.55 70 116.6C70 121.1 72.2406 125.6 75.5765 128.95C78.9125 132.3 83.3936 134 87.8747 134C96.837 134 104.106 127.8 105.202 118.85C105.749 118.85 106.297 118.85 106.297 118.85C108.538 118.85 110.778 119.4 113.019 118.85C114.712 118.3 115.807 116.6 117.5 115.5C118.595 114.4 119.741 113.25 120.836 112.15C124.172 109.35 127.01 107.1 129.798 104.3C131.491 102.6 133.732 100.95 135.375 99.8C135.375 99.25 136.47 98.7 137.068 98.1C137.615 98.65 138.163 99.8 138.76 100.9C137.068 102 135.972 102.6 134.827 103.7C131.491 107.05 129.251 111.55 129.251 116.6C129.251 126.15 137.615 134 147.125 134C157.183 134 165 126.15 165 116.6C165 111.55 163.307 107.05 159.971 103.7L160.021 103.8Z" fill="url(#paint0_linear_227_343)"/>
<defs>
<filter id="filter0_d_227_343" x="0" y="0" width="236" height="230" filterUnits="userSpaceOnUse" color-interpolation-filters="sRGB">
<feFlood flood-opacity="0" result="BackgroundImageFix"/>
<feColorMatrix in="SourceAlpha" type="matrix" values="0 0 0 0 0 0 0 0 0 0 0 0 0 0 0 0 0 0 127 0" result="hardAlpha"/>
<feMorphology radius="2" operator="dilate" in="SourceAlpha" result="effect1_dropShadow_227_343"/>
<feOffset dy="10"/>
<feGaussianBlur stdDeviation="19.5"/>
<feComposite in2="hardAlpha" operator="out"/>
<feColorMatrix type="matrix" values="0 0 0 0 0.205833 0 0 0 0 0.209329 0 0 0 0 0.475 0 0 0 1 0"/>
<feBlend mode="normal" in2="BackgroundImageFix" result="effect1_dropShadow_227_343"/>
<feBlend mode="normal" in="SourceGraphic" in2="effect1_dropShadow_227_343" result="shape"/>
</filter>
<linearGradient id="paint0_linear_227_343" x1="33.5573" y1="176.714" x2="94.411" y2="45.9942" gradientUnits="userSpaceOnUse">
<stop offset="0.0286559" stop-color="#00DCF0"/>
<stop offset="0.938249" stop-color="#C0B5FF"/>
</linearGradient>
</defs>
</svg>
