<svg width="236" height="230" viewBox="0 0 236 230" fill="none" xmlns="http://www.w3.org/2000/svg">
<g filter="url(#filter0_d_270_186)">
<rect x="41" y="31" width="154" height="148" rx="20" fill="#595AAE"/>
</g>
<path d="M112.452 95.291C110.157 95.291 108.29 97.158 108.29 99.4523C108.29 101.747 110.157 103.614 112.452 103.614C114.746 103.614 116.613 101.747 116.613 99.4523C116.613 97.158 114.746 95.291 112.452 95.291ZM112.452 100.839C111.686 100.839 111.065 100.218 111.065 99.4523C111.065 98.6869 111.686 98.0652 112.452 98.0652C113.217 98.0652 113.839 98.6869 113.839 99.4523C113.839 100.218 113.217 100.839 112.452 100.839Z" fill="url(#paint0_linear_270_186)" stroke="url(#paint1_linear_270_186)"/>
<path d="M159.613 126.62L154.639 121.646C153.252 120.259 151.067 119.962 149.321 120.728L145.562 116.969C148.378 111.651 149.903 105.67 149.903 99.4517C149.903 78.8005 133.103 62 112.452 62C91.8005 62 75 78.8005 75 99.4517C75 120.103 91.8005 136.903 112.452 136.903C118.566 136.903 124.588 135.389 129.955 132.548L133.711 136.304C133.424 136.92 133.259 137.59 133.259 138.29C133.259 139.555 133.751 140.746 134.646 141.639L139.62 146.613C140.515 147.508 141.703 148 142.968 148C144.233 148 145.424 147.508 146.317 146.613L159.614 133.316C160.508 132.421 161.001 131.233 161.001 129.968C161.001 128.703 160.508 127.512 159.614 126.619L159.613 126.62ZM147.129 122.459L145.168 124.42L142.521 121.774C143.084 121.017 143.626 120.249 144.128 119.457L147.129 122.459ZM147.129 138.291C144.835 138.291 142.968 136.424 142.968 134.13C142.968 131.835 144.835 129.969 147.129 129.969C149.424 129.969 151.29 131.835 151.29 134.13C151.29 136.424 149.424 138.291 147.129 138.291ZM135.458 134.13L124.58 123.251C123.02 121.693 122.161 119.621 122.161 117.415C122.161 112.865 125.864 109.162 130.415 109.162C132.491 109.162 134.443 109.932 135.965 111.322C135.537 112.171 135.06 112.995 134.541 113.795L134.289 113.543C133.254 112.507 131.878 111.936 130.415 111.936C127.393 111.936 124.936 114.394 124.936 117.415C124.936 118.879 125.506 120.255 126.541 121.289L137.419 132.169L135.458 134.13ZM137.121 108.675C135.206 107.198 132.875 106.388 130.415 106.388C127.873 106.388 125.537 107.26 123.67 108.71L120.216 105.256C121.168 103.986 121.813 102.48 122.05 100.839H138.765C138.621 103.539 138.058 106.18 137.121 108.675H137.121ZM112.451 106.388C108.627 106.388 105.516 103.277 105.516 99.4523C105.516 95.6279 108.627 92.5168 112.451 92.5168C116.276 92.5168 119.387 95.6279 119.387 99.4523C119.387 103.277 116.276 106.388 112.451 106.388ZM122.05 98.0652C121.814 96.4242 121.168 94.9177 120.217 93.6489L132.012 81.853C135.93 86.2013 138.41 91.8456 138.736 98.0654L122.05 98.0652ZM118.255 91.6871C116.986 90.7359 115.479 90.0895 113.838 89.8536V73.1688C120.058 73.4945 125.703 75.9764 130.051 79.8918L118.255 91.6871ZM111.064 89.8536C109.423 90.0895 107.917 90.736 106.648 91.6871L94.852 79.8912C99.2004 75.9745 104.845 73.4944 111.064 73.1681L111.064 89.8536ZM92.8909 81.853L104.687 93.6489C103.735 94.9177 103.089 96.4243 102.853 98.0652H86.1678C86.4942 91.8456 88.9742 86.2012 92.8915 81.8528L92.8909 81.853ZM102.853 100.84C103.089 102.481 103.735 103.987 104.686 105.256L92.8903 117.052C88.9736 112.703 86.4934 107.059 86.1672 100.839L102.853 100.84ZM106.648 107.218C107.917 108.169 109.423 108.814 111.064 109.051V125.736C104.845 125.41 99.2002 122.928 94.8518 119.013L106.648 107.218ZM113.838 109.051C115.48 108.815 116.986 108.169 118.255 107.218L121.709 110.672C120.259 112.538 119.387 114.874 119.387 117.415C119.387 119.873 120.196 122.201 121.669 124.116C119.158 125.057 116.537 125.595 113.838 125.734V109.051ZM129.07 119.897L128.501 119.328C127.991 118.818 127.709 118.138 127.709 117.415C127.709 115.924 128.923 114.711 130.414 114.711C131.137 114.711 131.817 114.992 132.327 115.503L132.887 116.063C131.757 117.461 130.481 118.747 129.07 119.897L129.07 119.897ZM140.775 123.95L143.207 126.382L139.381 130.208L136.944 127.77C138.322 126.58 139.6 125.303 140.775 123.95ZM112.451 134.13C93.3297 134.13 77.7736 118.573 77.7736 99.4523C77.7736 80.3314 93.3302 64.7748 112.451 64.7748C131.572 64.7748 147.129 80.3314 147.129 99.4523C147.129 109.664 142.709 119.192 134.976 125.801L131.045 121.87C137.667 116.363 141.58 108.1 141.58 99.4512C141.58 83.3894 128.512 70.3221 112.451 70.3221C96.3899 70.3221 83.322 83.39 83.322 99.4512C83.322 115.512 96.3899 128.58 112.451 128.58C116.365 128.58 120.149 127.811 123.717 126.311L127.899 130.493C123.126 132.87 117.826 134.129 112.451 134.129V134.13ZM144.354 144.653C143.612 145.392 142.322 145.392 141.58 144.653L136.606 139.678C136.235 139.307 136.032 138.816 136.032 138.291C136.032 137.767 136.235 137.276 136.606 136.904L140.284 133.226C140.244 133.525 140.193 133.82 140.193 134.13C140.193 137.954 143.304 141.065 147.129 141.065C147.438 141.065 147.733 141.014 148.033 140.974L144.354 144.653ZM157.651 131.356L153.973 135.034C154.013 134.735 154.064 134.439 154.064 134.13C154.064 130.305 150.953 127.194 147.129 127.194C146.819 127.194 146.524 127.246 146.224 127.286L149.903 123.607C150.274 123.237 150.765 123.033 151.29 123.033C151.814 123.033 152.305 123.237 152.677 123.607L157.651 128.581C158.022 128.953 158.225 129.444 158.225 129.969C158.225 130.493 158.022 130.984 157.651 131.356H157.651Z" fill="url(#paint2_linear_270_186)" stroke="url(#paint3_linear_270_186)"/>
<path d="M148.516 134.129C148.516 134.895 147.895 135.516 147.129 135.516C146.363 135.516 145.742 134.895 145.742 134.129C145.742 133.363 146.363 132.742 147.129 132.742C147.895 132.742 148.516 133.363 148.516 134.129Z" fill="url(#paint4_linear_270_186)" stroke="url(#paint5_linear_270_186)"/>
<defs>
<filter id="filter0_d_270_186" x="0" y="0" width="236" height="230" filterUnits="userSpaceOnUse" color-interpolation-filters="sRGB">
<feFlood flood-opacity="0" result="BackgroundImageFix"/>
<feColorMatrix in="SourceAlpha" type="matrix" values="0 0 0 0 0 0 0 0 0 0 0 0 0 0 0 0 0 0 127 0" result="hardAlpha"/>
<feMorphology radius="2" operator="dilate" in="SourceAlpha" result="effect1_dropShadow_270_186"/>
<feOffset dy="10"/>
<feGaussianBlur stdDeviation="19.5"/>
<feComposite in2="hardAlpha" operator="out"/>
<feColorMatrix type="matrix" values="0 0 0 0 0.205833 0 0 0 0 0.209329 0 0 0 0 0.475 0 0 0 1 0"/>
<feBlend mode="normal" in2="BackgroundImageFix" result="effect1_dropShadow_270_186"/>
<feBlend mode="normal" in="SourceGraphic" in2="effect1_dropShadow_270_186" result="shape"/>
</filter>
<linearGradient id="paint0_linear_270_186" x1="105.098" y1="109.538" x2="115.635" y2="95.2433" gradientUnits="userSpaceOnUse">
<stop offset="0.0286559" stop-color="#00DCF0"/>
<stop offset="0.938249" stop-color="#C0B5FF"/>
</linearGradient>
<linearGradient id="paint1_linear_270_186" x1="105.098" y1="109.538" x2="115.635" y2="95.2433" gradientUnits="userSpaceOnUse">
<stop offset="0.0286559" stop-color="#00DCF0"/>
<stop offset="0.938249" stop-color="#C0B5FF"/>
</linearGradient>
<linearGradient id="paint2_linear_270_186" x1="42.0095" y1="209.224" x2="150.889" y2="61.506" gradientUnits="userSpaceOnUse">
<stop offset="0.0286559" stop-color="#00DCF0"/>
<stop offset="0.938249" stop-color="#C0B5FF"/>
</linearGradient>
<linearGradient id="paint3_linear_270_186" x1="42.0095" y1="209.224" x2="150.889" y2="61.506" gradientUnits="userSpaceOnUse">
<stop offset="0.0286559" stop-color="#00DCF0"/>
<stop offset="0.938249" stop-color="#C0B5FF"/>
</linearGradient>
<linearGradient id="paint4_linear_270_186" x1="144.678" y1="137.491" x2="148.19" y2="132.726" gradientUnits="userSpaceOnUse">
<stop offset="0.0286559" stop-color="#00DCF0"/>
<stop offset="0.938249" stop-color="#C0B5FF"/>
</linearGradient>
<linearGradient id="paint5_linear_270_186" x1="144.678" y1="137.491" x2="148.19" y2="132.726" gradientUnits="userSpaceOnUse">
<stop offset="0.0286559" stop-color="#00DCF0"/>
<stop offset="0.938249" stop-color="#C0B5FF"/>
</linearGradient>
</defs>
</svg>
