<svg width="236" height="230" viewBox="0 0 236 230" fill="none" xmlns="http://www.w3.org/2000/svg">
<g filter="url(#filter0_d_270_187)">
<rect x="41" y="31" width="154" height="148" rx="20" fill="#595AAE"/>
</g>
<path d="M153.885 74.4755C149.167 69.6816 142.912 66.7564 136.251 66.2264C129.59 65.6971 122.962 67.5991 117.564 71.5888C109.943 65.8443 99.9606 64.4226 91.0713 67.8151C82.1823 71.2076 75.6064 78.9493 73.6183 88.3605C71.6309 97.7723 74.5035 107.563 81.2443 114.345L108.886 142.398C111.2 144.706 114.318 146 117.565 146C120.812 146 123.93 144.707 126.245 142.398L153.886 114.345C159.083 109.047 162 101.88 162 94.4107C162 86.9402 159.083 79.7737 153.886 74.4761L153.885 74.4755ZM147.609 108.123L119.968 136.131C119.332 136.781 118.467 137.147 117.564 137.147C116.661 137.147 115.796 136.781 115.16 136.131L87.5188 107.987C84.0277 104.371 82.0732 99.5139 82.0732 94.4565C82.0732 89.3983 84.0277 84.541 87.5188 80.9258C91.0761 77.3672 95.8735 75.3716 100.872 75.3716C105.871 75.3716 110.668 77.3672 114.225 80.9258C115.061 81.779 116.199 82.2592 117.385 82.2592C118.572 82.2592 119.71 81.779 120.546 80.9258C124.103 77.3672 128.9 75.3716 133.899 75.3716C138.897 75.3716 143.695 77.3672 147.252 80.9258C150.791 84.4934 152.81 89.3243 152.876 94.3825C152.943 99.4406 151.052 104.324 147.608 107.987L147.609 108.123Z" fill="url(#paint0_linear_270_187)"/>
<path d="M109.584 121.999C107.855 121.999 106.817 120.959 106.125 119.574L99.8996 99.129L97.4789 103.287C96.787 104.327 95.75 105.019 94.3662 105.019H78.4586C76.3838 105.019 75 103.634 75 101.554C75 99.4749 76.383 98.0883 78.4586 98.0883H92.9832L98.1707 88.7324C98.8625 87.6925 100.245 87 101.629 87C103.012 87 104.05 88.0399 104.396 89.4256L110.275 107.792L115.117 95.6635C115.463 94.6236 116.846 93.5845 117.884 93.5845C119.267 93.5845 120.304 93.9311 120.996 94.9703L126.184 102.941L132.408 89.7723C132.754 88.7324 134.137 88.0399 135.175 87.6933C136.558 87.6933 137.596 88.04 138.288 89.0791L145.204 98.0892H154.541C156.616 98.0892 158 99.475 158 101.555C158 103.634 156.617 105.02 154.541 105.02H143.129C142.091 105.02 141.054 104.674 140.362 103.635L136.212 98.09L129.987 111.951C129.296 112.99 128.258 114.03 126.875 114.03C125.492 114.03 124.454 113.683 123.762 112.297L118.575 104.674L113.041 119.574C112.35 120.96 111.312 122 109.584 122V121.999Z" fill="url(#paint1_linear_270_187)"/>
<defs>
<filter id="filter0_d_270_187" x="0" y="0" width="236" height="230" filterUnits="userSpaceOnUse" color-interpolation-filters="sRGB">
<feFlood flood-opacity="0" result="BackgroundImageFix"/>
<feColorMatrix in="SourceAlpha" type="matrix" values="0 0 0 0 0 0 0 0 0 0 0 0 0 0 0 0 0 0 127 0" result="hardAlpha"/>
<feMorphology radius="2" operator="dilate" in="SourceAlpha" result="effect1_dropShadow_270_187"/>
<feOffset dy="10"/>
<feGaussianBlur stdDeviation="19.5"/>
<feComposite in2="hardAlpha" operator="out"/>
<feColorMatrix type="matrix" values="0 0 0 0 0.205833 0 0 0 0 0.209329 0 0 0 0 0.475 0 0 0 1 0"/>
<feBlend mode="normal" in2="BackgroundImageFix" result="effect1_dropShadow_270_187"/>
<feBlend mode="normal" in="SourceGraphic" in2="effect1_dropShadow_270_187" result="shape"/>
</filter>
<linearGradient id="paint0_linear_270_187" x1="38.859" y1="202.952" x2="136.501" y2="55.5791" gradientUnits="userSpaceOnUse">
<stop offset="0.0286559" stop-color="#00DCF0"/>
<stop offset="0.938249" stop-color="#C0B5FF"/>
</linearGradient>
<linearGradient id="paint1_linear_270_187" x1="43.1606" y1="146.917" x2="69.4574" y2="62.3115" gradientUnits="userSpaceOnUse">
<stop offset="0.0286559" stop-color="#00DCF0"/>
<stop offset="0.938249" stop-color="#C0B5FF"/>
</linearGradient>
</defs>
</svg>
