<svg width="236" height="230" viewBox="0 0 236 230" fill="none" xmlns="http://www.w3.org/2000/svg">
<g filter="url(#filter0_d_227_372)">
<rect x="41" y="31" width="154" height="148" rx="20" fill="#595AAE"/>
</g>
<path d="M115.397 141.684C94.2522 141.684 76.86 124.327 76.86 103.225C76.86 82.1225 94.2522 64.7656 115.397 64.7656C136.542 64.7656 153.934 82.1225 153.934 103.225C153.934 105.48 153.168 107.735 153.168 110.031C155.427 110.796 156.961 111.521 158.454 113.051C159.221 110.031 159.947 106.245 159.947 103.265C159.947 78.3773 139.528 58 115.357 58C90.4187 58 70 78.3773 70 103.265C70 128.153 90.4187 147.765 115.357 147.765C119.15 147.765 122.903 147 126.696 146.275C125.203 144.785 123.67 142.489 122.903 140.999C120.643 140.999 117.617 141.764 115.357 141.764L115.397 141.684ZM90.459 123.602C88.966 124.367 88.966 126.622 90.459 128.112C91.2257 128.112 91.9521 128.877 92.7188 128.877C93.4855 128.877 94.2119 128.112 94.9786 128.112L112.371 110.031C113.137 110.031 114.631 110.031 115.397 110.031C119.19 110.031 122.217 107.01 122.217 103.225C122.217 100.204 120.724 97.9491 118.424 96.4188C118.424 96.4188 118.424 96.4188 118.424 95.6537V71.5312C118.424 69.276 116.931 67.7457 115.397 67.7457C113.137 67.7457 112.371 69.2357 112.371 71.5312V95.6537C112.371 96.4188 112.371 96.4188 112.371 96.4188C110.111 97.9089 107.851 100.204 107.851 103.225C107.851 103.99 107.851 104.715 108.618 105.48C108.618 105.48 107.851 105.48 107.851 106.245L90.459 123.602ZM147.881 121.347H141.062V128.153H134.242V134.958H141.062V141.764H147.881V134.958H154.701V128.153H147.881V121.347ZM144.088 147C135.776 147 128.996 140.194 128.996 131.173C128.996 122.877 135.816 116.071 144.088 116.071C153.168 116.071 159.947 122.877 159.947 131.173C159.947 140.234 153.127 147 144.088 147ZM144.088 110.031C132.749 110.031 122.943 119.816 122.943 131.133C122.943 143.214 132.749 153 144.088 153C156.194 153 166 143.214 166 131.133C166 119.816 156.194 110.031 144.088 110.031Z" fill="url(#paint0_linear_227_372)"/>
<defs>
<filter id="filter0_d_227_372" x="0" y="0" width="236" height="230" filterUnits="userSpaceOnUse" color-interpolation-filters="sRGB">
<feFlood flood-opacity="0" result="BackgroundImageFix"/>
<feColorMatrix in="SourceAlpha" type="matrix" values="0 0 0 0 0 0 0 0 0 0 0 0 0 0 0 0 0 0 127 0" result="hardAlpha"/>
<feMorphology radius="2" operator="dilate" in="SourceAlpha" result="effect1_dropShadow_227_372"/>
<feOffset dy="10"/>
<feGaussianBlur stdDeviation="19.5"/>
<feComposite in2="hardAlpha" operator="out"/>
<feColorMatrix type="matrix" values="0 0 0 0 0.205833 0 0 0 0 0.209329 0 0 0 0 0.475 0 0 0 1 0"/>
<feBlend mode="normal" in2="BackgroundImageFix" result="effect1_dropShadow_227_372"/>
<feBlend mode="normal" in="SourceGraphic" in2="effect1_dropShadow_227_372" result="shape"/>
</filter>
<linearGradient id="paint0_linear_227_372" x1="33.1737" y1="220.631" x2="153.07" y2="56.256" gradientUnits="userSpaceOnUse">
<stop offset="0.0286559" stop-color="#00DCF0"/>
<stop offset="0.938249" stop-color="#C0B5FF"/>
</linearGradient>
</defs>
</svg>
