<svg width="236" height="230" viewBox="0 0 236 230" fill="none" xmlns="http://www.w3.org/2000/svg">
<g filter="url(#filter0_d_367_189)">
<rect x="41" y="31" width="154" height="148" rx="20" fill="#595AAE"/>
</g>
<path d="M158.573 90.8418C159.287 86.5394 159.287 82.1922 157.143 77.8897L154.285 69.2401L148.523 76.4556L137.044 89.4077L132.041 88.6906L129.897 82.9092L140.662 69.9571L146.379 62.7416L137.044 61.3075C122.706 59.1563 110.512 68.523 107.609 82.1922C107.609 85.7775 107.609 88.6906 108.324 91.5589C108.324 92.276 108.324 92.993 108.324 93.7101C107.609 95.1442 106.894 96.5784 106.18 97.2954L82.5068 123.2C80.3628 125.351 78.9335 128.219 78.2188 131.132C76.7895 139.782 82.5068 148.432 91.1273 149.866C97.6038 150.583 103.321 148.431 106.894 143.367L127.709 115.267C129.138 113.116 131.282 112.399 133.426 112.399C134.14 112.399 134.855 112.399 135.57 112.399C147.049 111.682 156.384 102.315 158.528 90.797L158.573 90.8418ZM91.1273 132.611C90.4126 134.762 91.8419 136.914 93.9859 136.914C96.1298 137.631 98.2738 136.196 98.2738 134.045C98.9884 131.894 97.5591 129.743 95.4152 129.743C93.2712 129.026 91.1273 130.46 91.1273 132.611ZM153.57 90.1247C151.426 99.4915 144.235 105.945 134.9 106.662C134.9 106.662 134.185 106.662 133.47 106.662C129.897 106.662 125.565 108.813 123.421 111.682L102.606 139.782C100.462 143.367 96.1298 144.801 91.8419 144.084C86.8393 143.367 82.5068 138.303 83.9361 132.566C83.9361 129.698 84.6507 128.264 86.7947 126.83L110.468 100.926C111.897 99.4915 113.326 97.3403 113.326 95.1442C113.326 93.7101 113.326 92.2759 113.326 90.8418C112.611 88.6906 112.611 85.8223 113.326 83.6263C114.755 72.8254 125.52 64.8928 136.284 66.327L124.805 80.7132C124.091 81.4303 124.091 81.4303 124.091 82.1473C124.091 82.8644 124.091 82.8644 124.091 83.5815L127.664 91.5141C127.664 92.9482 128.379 93.6653 129.808 93.6653L137.714 95.0994C139.143 95.0994 139.858 94.3823 140.572 93.6653L152.051 79.9961C153.481 82.8644 154.195 86.4946 153.481 90.0799L153.57 90.1247Z" fill="url(#paint0_linear_367_189)"/>
<defs>
<filter id="filter0_d_367_189" x="0" y="0" width="236" height="230" filterUnits="userSpaceOnUse" color-interpolation-filters="sRGB">
<feFlood flood-opacity="0" result="BackgroundImageFix"/>
<feColorMatrix in="SourceAlpha" type="matrix" values="0 0 0 0 0 0 0 0 0 0 0 0 0 0 0 0 0 0 127 0" result="hardAlpha"/>
<feMorphology radius="2" operator="dilate" in="SourceAlpha" result="effect1_dropShadow_367_189"/>
<feOffset dy="10"/>
<feGaussianBlur stdDeviation="19.5"/>
<feComposite in2="hardAlpha" operator="out"/>
<feColorMatrix type="matrix" values="0 0 0 0 0.205833 0 0 0 0 0.209329 0 0 0 0 0.475 0 0 0 1 0"/>
<feBlend mode="normal" in2="BackgroundImageFix" result="effect1_dropShadow_367_189"/>
<feBlend mode="normal" in="SourceGraphic" in2="effect1_dropShadow_367_189" result="shape"/>
</filter>
<linearGradient id="paint0_linear_367_189" x1="46.9278" y1="213.359" x2="162.314" y2="70.8862" gradientUnits="userSpaceOnUse">
<stop offset="0.0286559" stop-color="#00DCF0"/>
<stop offset="0.938249" stop-color="#C0B5FF"/>
</linearGradient>
</defs>
</svg>
