<svg width="236" height="230" viewBox="0 0 236 230" fill="none" xmlns="http://www.w3.org/2000/svg">
<g filter="url(#filter0_d_367_188)">
<rect x="41" y="31" width="154" height="148" rx="20" fill="#595AAE"/>
</g>
<g clip-path="url(#clip0_367_188)">
<path d="M145.67 110.519C144.981 113.275 144.293 115.428 142.915 117.495C142.226 118.872 142.226 120.25 142.915 120.939L147.134 127.226L142.226 132.135L135.939 127.915C135.25 127.226 133.872 127.226 132.494 127.915C130.427 129.293 128.274 129.982 125.518 130.671C124.141 130.671 123.452 132.049 123.452 132.738L122.074 140.402H115.098L113.72 132.738C113.72 132.049 113.031 130.671 111.653 130.671C109.586 129.982 106.744 129.293 104.678 127.915C103.3 127.226 101.922 127.226 101.233 127.915L95.635 132.135L90.0372 127.226L94.2571 120.939C94.946 120.25 94.9461 118.872 94.9461 118.183C93.5681 115.428 92.1902 113.275 91.5013 110.519C91.5013 109.83 90.1234 108.452 89.4344 108.452L81.7698 107.074V100.098L89.4344 98.7205C90.1234 98.7205 91.5013 98.0315 91.5013 96.6536C92.1902 93.8978 92.8792 91.7448 94.2571 89.6779C94.946 88.3 94.946 86.9221 94.2571 86.2331L90.0372 79.9464L94.9461 75.0376L101.233 79.2575C101.922 79.9464 103.3 79.9464 103.989 79.2575C106.744 77.8795 108.897 77.1906 111.653 76.5016C112.342 76.5016 113.72 75.1237 113.72 74.4348L115.098 66.7701H122.074L123.452 73.7458C123.452 75.1237 124.141 76.5016 125.518 76.5016C128.274 77.1906 130.427 77.8795 133.183 79.2575C133.872 79.9464 135.25 79.9464 135.939 79.2575L142.226 75.0376L147.134 79.9464L142.915 86.2331C142.226 86.9221 142.226 88.3 142.915 89.6779C144.293 91.7448 144.981 93.8978 145.67 96.6536C145.67 98.0315 147.048 98.7205 147.737 98.7205L155.402 100.098V107.074L147.737 108.452C147.048 108.452 145.67 109.141 145.67 110.519ZM131.03 103.543C131.03 110.519 125.432 116.117 118.457 116.117C111.481 116.117 105.883 110.519 105.883 103.543C105.883 96.5675 111.481 90.2808 118.457 90.2808C125.432 90.2808 131.03 96.5675 131.03 103.543ZM118.457 84.683C108.036 84.683 99.5965 93.0366 99.5965 103.543C99.5965 113.964 107.95 122.403 118.457 122.403C128.877 122.403 137.317 114.05 137.317 103.543C137.317 93.1227 128.963 84.683 118.457 84.683ZM156.091 93.7255L151.182 93.0366C150.493 90.9697 149.804 89.5918 148.426 88.1278L151.871 83.219C153.938 81.1521 153.249 77.6212 151.182 75.5543L146.273 70.6455C144.206 68.5786 140.676 68.5786 138.609 69.9566L133.7 73.4013C132.322 72.0234 130.255 71.3345 128.791 70.6455L127.413 65.7367C127.413 62.9809 124.657 60.8279 121.815 60.8279H114.151C111.395 60.8279 109.242 62.8947 108.553 65.7367L107.864 71.3345C105.797 71.3345 104.419 72.0234 102.266 73.4013L98.0464 69.9566C95.9795 68.5786 92.4486 68.5786 90.3817 70.6455L85.4729 75.5543C83.406 77.6212 82.7171 81.1521 84.7839 83.219L88.2287 88.1278C86.8508 89.5057 86.1619 91.5726 86.1619 93.0366L80.5641 94.4145C77.8083 94.4145 75.6553 97.1703 75.6553 100.012V107.677C75.6553 110.433 77.7221 112.586 80.5641 113.275L86.1619 113.964C86.8508 116.031 87.5398 117.408 88.2287 119.561L84.7839 123.781C83.406 125.848 83.406 129.379 85.4729 131.446L91.0707 136.355C92.4486 138.422 95.9795 138.422 98.0464 137.044L102.955 133.599C104.333 134.977 106.4 135.666 107.864 135.666L108.553 141.264C109.242 144.019 111.998 146.172 114.84 146.172H121.815C124.571 146.172 127.413 144.105 128.102 141.264L128.791 135.666C130.169 135.666 132.236 134.977 133.7 133.599L138.609 137.044C140.676 138.422 144.206 138.422 146.273 136.355L151.182 131.446C153.249 129.379 153.249 125.848 151.871 123.781L148.426 118.872C149.804 117.495 150.493 115.428 150.493 113.964L156.091 112.586C158.847 112.586 161 109.83 161 106.988V100.012C161 97.2564 159.622 94.4145 156.091 93.7255Z" fill="url(#paint0_linear_367_188)"/>
</g>
<defs>
<filter id="filter0_d_367_188" x="0" y="0" width="236" height="230" filterUnits="userSpaceOnUse" color-interpolation-filters="sRGB">
<feFlood flood-opacity="0" result="BackgroundImageFix"/>
<feColorMatrix in="SourceAlpha" type="matrix" values="0 0 0 0 0 0 0 0 0 0 0 0 0 0 0 0 0 0 127 0" result="hardAlpha"/>
<feMorphology radius="2" operator="dilate" in="SourceAlpha" result="effect1_dropShadow_367_188"/>
<feOffset dy="10"/>
<feGaussianBlur stdDeviation="19.5"/>
<feComposite in2="hardAlpha" operator="out"/>
<feColorMatrix type="matrix" values="0 0 0 0 0.205833 0 0 0 0 0.209329 0 0 0 0 0.475 0 0 0 1 0"/>
<feBlend mode="normal" in2="BackgroundImageFix" result="effect1_dropShadow_367_188"/>
<feBlend mode="normal" in="SourceGraphic" in2="effect1_dropShadow_367_188" result="shape"/>
</filter>
<linearGradient id="paint0_linear_367_188" x1="42.9165" y1="206.929" x2="150.966" y2="60.3385" gradientUnits="userSpaceOnUse">
<stop offset="0.0286559" stop-color="#00DCF0"/>
<stop offset="0.938249" stop-color="#C0B5FF"/>
</linearGradient>
<clipPath id="clip0_367_188">
<rect width="85" height="85" fill="white" transform="translate(76 61)"/>
</clipPath>
</defs>
</svg>
