<svg width="236" height="230" viewBox="0 0 236 230" fill="none" xmlns="http://www.w3.org/2000/svg">
<g filter="url(#filter0_d_367_187)">
<rect x="41" y="31" width="154" height="148" rx="20" fill="#595AAE"/>
</g>
<g clip-path="url(#clip0_367_187)">
<path d="M103.52 102.25H106.534C105.064 107.562 100.506 111.324 95.2876 111.324C94.5526 111.324 94.5526 111.324 94.5526 111.324C88.5252 111.324 84.0415 108.299 82.4979 102.25C89.2603 102.25 96.7577 102.25 103.52 102.25ZM154.606 109.775C154.606 112.062 153.135 113.537 150.857 113.537C148.578 113.537 147.108 112.062 147.108 109.775C147.108 107.488 148.578 106.012 150.857 106.012C153.135 106.012 154.606 107.488 154.606 109.775ZM159.898 106.012C159.163 103.725 156.884 101.512 153.871 99.9631V97.6761C153.871 95.3892 153.871 92.3645 153.871 90.1514C153.871 82.6266 147.843 75.1018 140.346 74.2903C132.113 73.5526 124.542 78.7904 123.072 87.1267C122.337 89.4136 122.337 91.6268 122.337 93.9138V95.3892C122.337 105.939 122.337 115.75 122.337 126.3C122.337 129.324 121.602 131.611 119.324 133.825C117.853 135.3 114.84 136.112 112.561 136.112C111.091 136.112 110.283 136.112 108.812 136.112C108.077 136.112 107.342 136.112 106.534 136.112C102.05 136.112 98.3013 132.349 98.3013 128.587C97.5663 125.562 97.5663 123.275 97.5663 121.062C97.5663 119.587 97.5663 118.775 97.5663 118.037C98.3013 118.037 98.3013 118.037 98.3013 118.037C99.7714 117.3 100.58 117.3 101.315 116.562C108.812 114.275 113.37 106.75 113.37 99.2254C113.37 90.1514 113.37 80.3396 113.37 71.3394V61.5277C113.37 61.5277 113.37 61.5277 113.37 60.79V59.3145H105.137V57.0276H99.1099V68.3148H105.137V66.0278H106.607V95.463H81.8363V66.0278H84.115V68.3148H90.1423V57.0276H84.115L83.3799 59.3145H75.1475V60.79C75.1475 60.79 75.1475 60.79 75.1475 61.5277V72.0771C75.1475 81.1511 75.1475 90.1514 75.1475 99.2254C75.1475 108.299 81.9099 115.824 90.1423 118.111H90.8774V120.398C90.8774 122.685 90.8774 124.16 90.8774 126.447C91.6124 135.521 97.6398 141.497 105.872 143.046C107.342 143.046 108.151 143.046 109.621 143.046C111.091 143.046 112.635 143.046 114.105 143.046C117.853 142.308 120.132 141.571 123.146 139.284C126.894 136.259 129.173 131.759 129.173 126.447V117.373C129.173 109.111 129.173 100.775 129.173 92.5121C129.173 91.0366 129.173 89.4874 129.173 88.7497C130.643 84.2496 134.465 81.2249 138.949 81.2249C142.698 81.2249 147.182 84.9873 147.182 88.7497C147.182 91.7744 147.182 94.0613 147.182 97.0122C147.182 97.7499 147.182 99.2991 147.182 100.037C141.889 103.062 139.684 106.824 141.154 112.136C141.889 116.636 145.638 119.66 150.93 120.398C155.414 120.398 159.163 117.373 160.706 112.873C161.441 110.586 160.706 108.373 159.971 106.086L159.898 106.012Z" fill="url(#paint0_linear_367_187)"/>
</g>
<defs>
<filter id="filter0_d_367_187" x="0" y="0" width="236" height="230" filterUnits="userSpaceOnUse" color-interpolation-filters="sRGB">
<feFlood flood-opacity="0" result="BackgroundImageFix"/>
<feColorMatrix in="SourceAlpha" type="matrix" values="0 0 0 0 0 0 0 0 0 0 0 0 0 0 0 0 0 0 127 0" result="hardAlpha"/>
<feMorphology radius="2" operator="dilate" in="SourceAlpha" result="effect1_dropShadow_367_187"/>
<feOffset dy="10"/>
<feGaussianBlur stdDeviation="19.5"/>
<feComposite in2="hardAlpha" operator="out"/>
<feColorMatrix type="matrix" values="0 0 0 0 0.205833 0 0 0 0 0.209329 0 0 0 0 0.475 0 0 0 1 0"/>
<feBlend mode="normal" in2="BackgroundImageFix" result="effect1_dropShadow_367_187"/>
<feBlend mode="normal" in="SourceGraphic" in2="effect1_dropShadow_367_187" result="shape"/>
</filter>
<linearGradient id="paint0_linear_367_187" x1="42.2096" y1="204.283" x2="151.171" y2="56.7222" gradientUnits="userSpaceOnUse">
<stop offset="0.0286559" stop-color="#00DCF0"/>
<stop offset="0.938249" stop-color="#C0B5FF"/>
</linearGradient>
<clipPath id="clip0_367_187">
<rect width="86" height="86" fill="white" transform="translate(75 57)"/>
</clipPath>
</defs>
</svg>
