<svg width="50" height="96" viewBox="0 0 50 96" fill="none" xmlns="http://www.w3.org/2000/svg">
<path d="M32.7273 79.8473V96H20.6818V80.5346C11.3636 79.8473 4.65909 75.8377 0 71.8282L7.95455 62.4344C12.6136 66.4439 17.9545 68.506 23.9773 68.506C30 68.506 32.6136 65.8711 32.6136 61.747C32.6136 57.7375 30.5682 55.6754 21.9318 53.0406C7.27273 48.3437 2.61364 42.2721 2.61364 32.8783C2.61364 22.7971 10 16.0382 20.5682 14.778V0H32.6136V14.778C39.3182 15.4654 44.6591 18.1002 48.6364 22.7971L40.6818 31.5036C36.7045 28.1814 32.7273 26.1193 27.3864 26.1193C22.7273 26.1193 20 28.1814 20 31.5036C20 35.5131 22.0455 36.8878 31.3636 39.5227C44.0909 43.5322 50 48.9165 50 60.3723C50 70.4535 43.9773 77.8998 32.6136 79.8473H32.7273Z" fill="url(#paint0_linear_23_154)"/>
<defs>
<linearGradient id="paint0_linear_23_154" x1="-19.1804" y1="164.343" x2="100.754" y2="79.5954" gradientUnits="userSpaceOnUse">
<stop offset="0.0286559" stop-color="#00DCF0"/>
<stop offset="0.938249" stop-color="#C0B5FF"/>
</linearGradient>
</defs>
</svg>
