<svg width="88" height="95" viewBox="0 0 88 95" fill="none" xmlns="http://www.w3.org/2000/svg">
<path d="M74.2315 62.9421C73.6197 61.7068 71.8457 61.1508 70.6222 61.7068L47.2537 75.0488V20.5689C47.2537 18.7776 46.0302 17.5423 44.2561 17.5423C42.4821 17.5423 40.6469 18.7776 40.6469 20.5689V75.0488L17.2783 61.7068C16.0549 61.0891 14.2808 61.0891 13.6691 62.3244C13.0573 63.5598 13.6691 65.3511 14.8926 65.9688L40.6469 80.4844V91.9733C40.6469 93.7646 42.4209 95 44.2561 95C46.0302 95 47.2537 93.7646 47.2537 91.9733V81.1021L73.008 65.9688C74.2315 65.3511 74.7821 64.1775 74.2315 62.9421ZM24.4969 76.84C22.1111 77.4577 19.1136 77.4577 16.7278 76.2224C11.3445 73.1957 4.1259 59.8537 4.73764 57.4447C5.34939 56.2094 9.50923 55.0358 14.342 55.0358C19.1136 55.0358 23.9463 56.2711 26.9439 57.4447C29.3297 58.6801 31.1649 61.0891 31.7154 64.1157C32.3272 65.3511 32.3272 67.1424 32.3272 68.3778L36.5482 70.7867C38.3223 64.1157 35.3247 56.8888 29.3297 53.2445C25.1086 50.8355 18.563 50.2178 13.7302 50.2178C8.34692 50.8355 2.35185 51.4532 0.516628 55.0358C-2.48091 60.4714 8.28574 76.84 14.2808 80.4844C16.6666 81.7198 19.0524 82.2757 21.4994 82.2757C25.7204 82.2757 29.8802 80.4844 32.8778 77.4577L28.1062 75.0488C27.4944 75.6665 26.3321 76.2841 24.4969 76.84ZM87.4451 53.8622C85.6711 50.8355 79.0642 50.2178 74.2315 50.2178C71.2339 50.2178 62.8531 50.2178 58.6321 53.2445C55.0228 55.0358 52.0253 58.6801 51.4135 62.9421C50.19 65.3511 50.8018 68.3778 51.4135 71.4044L55.6345 68.9955C55.6345 67.2042 55.6345 65.3511 56.2463 64.1775C56.858 61.1508 58.6321 58.7419 61.0179 57.5065C63.4037 55.7152 68.787 55.0975 73.6197 55.0975C77.8408 55.0975 82.0006 55.7152 83.2241 56.8888C84.4476 58.6801 77.229 72.0221 71.2339 75.6665C68.8482 76.9018 65.8506 77.4577 63.4648 76.9018C62.2413 76.2841 61.079 75.6665 59.8556 75.1105L55.6345 77.5195C58.0203 80.5462 62.2413 82.3375 65.8506 82.3375C68.8482 82.3375 71.2339 81.1021 73.6197 79.9285C77.8408 77.5195 82.0006 72.0839 84.3864 67.8218C86.7722 63.5598 89.158 57.5065 87.3839 53.9239L87.4451 53.8622ZM39.4846 51.4532V44.7822C34.1012 42.9909 30.492 37.4935 30.492 32.0579C30.492 23.5956 41.2586 7.22692 44.2561 6.05332C47.2537 6.05332 57.4698 22.9779 57.4698 32.0579C57.4698 37.4935 53.8605 42.9291 48.4772 44.7822V51.4532C57.4698 49.0442 64.0766 41.1378 64.0766 32.0579C64.0766 22.3602 53.3099 0 44.3173 0C36.5482 0 24.5581 22.422 24.5581 32.0579C24.5581 41.1378 31.1649 48.9824 39.5457 51.4532H39.4846Z" fill="url(#paint0_linear_23_47)"/>
<defs>
<linearGradient id="paint0_linear_23_47" x1="-33.7574" y1="162.631" x2="88.9389" y2="8.43456" gradientUnits="userSpaceOnUse">
<stop offset="0.0286559" stop-color="#00DCF0"/>
<stop offset="0.938249" stop-color="#C0B5FF"/>
</linearGradient>
</defs>
</svg>
