<svg width="88" height="88" viewBox="0 0 88 88" fill="none" xmlns="http://www.w3.org/2000/svg">
<path d="M38.4517 34.291C36.1574 34.291 34.2904 36.158 34.2904 38.4523C34.2904 40.7467 36.1574 42.6136 38.4517 42.6136C40.746 42.6136 42.613 40.7467 42.613 38.4523C42.613 36.158 40.746 34.291 38.4517 34.291ZM38.4517 39.8394C37.6863 39.8394 37.0646 39.2177 37.0646 38.4523C37.0646 37.6869 37.6863 37.0652 38.4517 37.0652C39.2171 37.0652 39.8388 37.6869 39.8388 38.4523C39.8388 39.2177 39.2171 39.8394 38.4517 39.8394Z" fill="url(#paint0_linear_23_144)" stroke="url(#paint1_linear_23_144)"/>
<path d="M85.6131 65.6203L80.6387 60.6459C79.2516 59.2588 77.0669 58.9622 75.3206 59.7276L71.5618 55.9688C74.3776 50.6507 75.9034 44.6695 75.9034 38.4517C75.9034 17.8005 59.1028 1 38.4517 1C17.8005 1 1 17.8005 1 38.4517C1 59.1028 17.8005 75.9034 38.4517 75.9034C44.566 75.9034 50.5876 74.3887 55.9545 71.5476L59.7108 75.3038C59.4241 75.92 59.2587 76.59 59.2587 77.2903C59.2587 78.5554 59.751 79.7456 60.6458 80.6385L65.6202 85.6129C66.515 86.5077 67.7034 87 68.9684 87C70.2334 87 71.4237 86.5077 72.3166 85.6129L85.6136 72.3159C86.5084 71.4211 87.0007 70.2327 87.0007 68.9677C87.0007 67.7027 86.5084 66.5125 85.6136 65.6195L85.6131 65.6203ZM73.1292 61.459L71.1681 63.4201L68.5215 60.7735C69.0844 60.0174 69.6256 59.2489 70.1278 58.457L73.1292 61.459ZM73.1292 77.2911C70.8348 77.2911 68.9679 75.4241 68.9679 73.1298C68.9679 70.8355 70.8348 68.9685 73.1292 68.9685C75.4235 68.9685 77.2905 70.8355 77.2905 73.1298C77.2905 75.4241 75.4235 77.2911 73.1292 77.2911ZM61.4584 73.1298L50.5795 62.251C49.0203 60.693 48.1614 58.6211 48.1614 56.4153C48.1614 51.8645 51.8637 48.1622 56.4145 48.1622C58.4909 48.1622 60.4427 48.9319 61.9655 50.3221C61.537 51.1711 61.0595 51.9947 60.5412 52.7954L60.2886 52.5427C59.2538 51.5067 57.8779 50.9364 56.4145 50.9364C53.3932 50.9364 50.9355 53.3942 50.9355 56.4154C50.9355 57.8786 51.5059 59.2546 52.5406 60.2894L63.4194 71.1689L61.4584 73.1298ZM63.121 47.6753C61.2057 46.1978 58.8755 45.3878 56.4145 45.3878C53.8732 45.3878 51.5373 46.2603 49.6704 47.7099L46.2163 44.2558C47.168 42.9863 47.8126 41.4803 48.0498 39.8394H64.7647C64.6211 42.5386 64.0576 45.1798 63.1213 47.6753H63.121ZM38.4512 45.3878C34.6268 45.3878 31.5157 42.2768 31.5157 38.4523C31.5157 34.6279 34.6268 31.5168 38.4512 31.5168C42.2756 31.5168 45.3867 34.6279 45.3867 38.4523C45.3867 42.2768 42.2756 45.3878 38.4512 45.3878ZM48.0501 37.0652C47.8142 35.4242 47.1677 33.9177 46.2166 32.6489L58.0125 20.853C61.9298 25.2013 64.4098 30.8456 64.7356 37.0654L48.0501 37.0652ZM44.2548 30.6871C42.986 29.7359 41.4794 29.0895 39.8385 28.8536V12.1688C46.0581 12.4945 51.7025 14.9764 56.0509 18.8918L44.2548 30.6871ZM37.0643 28.8536C35.4232 29.0895 33.9167 29.736 32.6479 30.6871L20.852 18.8912C25.2004 14.9745 30.8447 12.4944 37.0644 12.1681L37.0643 28.8536ZM18.8909 20.853L30.6868 32.6489C29.735 33.9177 29.0885 35.4243 28.8526 37.0652H12.1678C12.4942 30.8456 14.9742 25.2012 18.8915 20.8528L18.8909 20.853ZM28.8526 39.8396C29.0886 41.4806 29.7351 42.9871 30.6861 44.2559L18.8903 56.0518C14.9736 51.7035 12.4934 46.0592 12.1672 39.8394L28.8526 39.8396ZM32.6479 46.2177C33.9173 47.1695 35.4234 47.814 37.0643 48.0512V64.736C30.8447 64.4103 25.2002 61.9284 20.8518 58.013L32.6479 46.2177ZM39.8385 48.0512C41.4795 47.8153 42.986 47.1688 44.2548 46.2177L47.7089 49.6718C46.2593 51.5381 45.3869 53.874 45.3869 56.4153C45.3869 58.8731 46.1956 61.2009 47.6688 63.1162C45.1584 64.0568 42.5366 64.595 39.8385 64.7336V48.0512ZM55.0699 58.8966L54.5015 58.3281C53.9912 57.8179 53.7095 57.1379 53.7095 56.4153C53.7095 54.9242 54.9232 53.7106 56.4142 53.7106C57.1369 53.7106 57.8168 53.9923 58.327 54.5026L58.8874 55.063C57.7567 56.4613 56.481 57.7469 55.0698 58.8968L55.0699 58.8966ZM66.7748 62.9501L69.2066 65.3819L65.3809 69.2076L62.9436 66.7702C64.322 65.58 65.5995 64.3026 66.7748 62.9501ZM38.451 73.1298C19.3297 73.1298 3.77357 57.5732 3.77357 38.4523C3.77357 19.3314 19.3302 3.77483 38.451 3.77483C57.5719 3.77483 73.1285 19.3314 73.1285 38.4523C73.1285 48.6642 68.709 58.1919 60.976 64.8009L57.045 60.8699C63.6671 55.363 67.5801 47.0999 67.5801 38.4512C67.5801 22.3894 54.5122 9.32212 38.451 9.32212C22.3899 9.32212 9.32196 22.39 9.32196 38.4512C9.32196 54.5124 22.3899 67.5803 38.451 67.5803C42.3652 67.5803 46.1494 66.8106 49.7168 65.3108L53.8992 69.4932C49.1262 71.8705 43.826 73.1289 38.451 73.1289V73.1298ZM70.3543 83.6526C69.6125 84.392 68.322 84.392 67.5801 83.6526L62.6058 78.6782C62.2355 78.3066 62.0317 77.8156 62.0317 77.2911C62.0317 76.7666 62.2355 76.2756 62.6058 75.904L66.284 72.2257C66.2444 72.5248 66.193 72.8202 66.193 73.1298C66.193 76.9542 69.3041 80.0653 73.1285 80.0653C73.4381 80.0653 73.7335 80.0139 74.0326 79.9737L70.3543 83.6526ZM83.6513 70.3556L79.973 74.0339C80.0127 73.7348 80.0641 73.4394 80.0641 73.1298C80.0641 69.3054 76.953 66.1943 73.1286 66.1943C72.819 66.1943 72.5236 66.2457 72.2245 66.2859L75.9027 62.607C76.2743 62.2367 76.7654 62.033 77.2898 62.033C77.8143 62.033 78.3054 62.2367 78.6769 62.607L83.6513 67.5814C84.0216 67.953 84.2254 68.444 84.2254 68.9685C84.2254 69.493 84.0216 69.9841 83.6513 70.3556H83.6513Z" fill="url(#paint2_linear_23_144)" stroke="url(#paint3_linear_23_144)"/>
<path d="M74.5163 73.1293C74.5163 73.8953 73.8952 74.5164 73.1292 74.5164C72.3632 74.5164 71.7421 73.8953 71.7421 73.1293C71.7421 72.3633 72.3632 71.7422 73.1292 71.7422C73.8952 71.7422 74.5163 72.3633 74.5163 73.1293Z" fill="url(#paint4_linear_23_144)" stroke="url(#paint5_linear_23_144)"/>
<defs>
<linearGradient id="paint0_linear_23_144" x1="31.0978" y1="48.5385" x2="41.6346" y2="34.2433" gradientUnits="userSpaceOnUse">
<stop offset="0.0286559" stop-color="#00DCF0"/>
<stop offset="0.938249" stop-color="#C0B5FF"/>
</linearGradient>
<linearGradient id="paint1_linear_23_144" x1="31.0978" y1="48.5385" x2="41.6346" y2="34.2433" gradientUnits="userSpaceOnUse">
<stop offset="0.0286559" stop-color="#00DCF0"/>
<stop offset="0.938249" stop-color="#C0B5FF"/>
</linearGradient>
<linearGradient id="paint2_linear_23_144" x1="-31.9905" y1="148.224" x2="76.8889" y2="0.50601" gradientUnits="userSpaceOnUse">
<stop offset="0.0286559" stop-color="#00DCF0"/>
<stop offset="0.938249" stop-color="#C0B5FF"/>
</linearGradient>
<linearGradient id="paint3_linear_23_144" x1="-31.9905" y1="148.224" x2="76.8889" y2="0.50601" gradientUnits="userSpaceOnUse">
<stop offset="0.0286559" stop-color="#00DCF0"/>
<stop offset="0.938249" stop-color="#C0B5FF"/>
</linearGradient>
<linearGradient id="paint4_linear_23_144" x1="70.6779" y1="76.4913" x2="74.1901" y2="71.7263" gradientUnits="userSpaceOnUse">
<stop offset="0.0286559" stop-color="#00DCF0"/>
<stop offset="0.938249" stop-color="#C0B5FF"/>
</linearGradient>
<linearGradient id="paint5_linear_23_144" x1="70.6779" y1="76.4913" x2="74.1901" y2="71.7263" gradientUnits="userSpaceOnUse">
<stop offset="0.0286559" stop-color="#00DCF0"/>
<stop offset="0.938249" stop-color="#C0B5FF"/>
</linearGradient>
</defs>
</svg>
