<svg width="89" height="80" viewBox="0 0 89 80" fill="none" xmlns="http://www.w3.org/2000/svg">
<path d="M80.8849 8.4755C76.1666 3.68157 69.9123 0.756428 63.2513 0.226411C56.5903 -0.302892 49.9622 1.59912 44.5642 5.58882C36.9427 -0.155736 26.9606 -1.57743 18.0713 1.81511C9.18227 5.20764 2.60637 12.9493 0.618259 22.3605C-1.36909 31.7723 1.5035 41.5633 8.2443 48.3453L35.8855 76.3983C38.2 78.7065 41.3178 80 44.5651 80C47.8125 80 50.9303 78.7066 53.2448 76.3983L80.886 48.3453C86.0835 43.0471 89 35.88 89 28.4107C89 20.9402 86.0835 13.7737 80.886 8.47608L80.8849 8.4755ZM74.6092 42.1225L46.968 70.1311C46.3324 70.7812 45.4672 71.1466 44.564 71.1466C43.6608 71.1466 42.7957 70.7812 42.16 70.1311L14.5188 41.9872C11.0277 38.3712 9.07316 33.5139 9.07316 28.4565C9.07316 23.3983 11.0277 18.541 14.5188 14.9258C18.0761 11.3672 22.8735 9.37162 27.8721 9.37162C32.8706 9.37162 37.668 11.3672 41.2253 14.9258C42.0614 15.779 43.1985 16.2592 44.3854 16.2592C45.5724 16.2592 46.7104 15.779 47.5456 14.9258C51.1029 11.3672 55.9003 9.37162 60.8988 9.37162C65.8974 9.37162 70.6954 11.3672 74.2521 14.9258C77.7909 18.4934 79.8095 23.3243 79.8765 28.3825C79.9428 33.4406 78.0516 38.3244 74.6083 41.9872L74.6092 42.1225Z" fill="url(#paint0_linear_23_134)"/>
<path d="M36.5835 55.9993C34.8546 55.9993 33.8167 54.9594 33.1249 53.5737L26.8996 33.129L24.4789 37.287C23.787 38.3269 22.75 39.0194 21.3662 39.0194H5.45857C3.38376 39.0194 2 37.6337 2 35.5539C2 33.4749 3.38298 32.0883 5.45857 32.0883H19.9832L25.1707 22.7324C25.8625 21.6925 27.2455 21 28.6292 21C30.0122 21 31.0499 22.0399 31.396 23.4256L37.2753 41.7918L42.1169 29.6635C42.4628 28.6236 43.8458 27.5845 44.8837 27.5845C46.2667 27.5845 47.3044 27.9311 47.9963 28.9703L53.1838 36.9406L59.4085 23.7723C59.7544 22.7324 61.1374 22.0399 62.1752 21.6933C63.5582 21.6933 64.5959 22.04 65.2879 23.0791L72.2043 32.0892H81.5414C83.6162 32.0892 85 33.475 85 35.5547C85 37.6337 83.617 39.0203 81.5414 39.0203H70.1286C69.0908 39.0203 68.0538 38.6737 67.3618 37.6345L63.2122 32.09L56.9868 45.9514C56.2957 46.9899 55.2579 48.0297 53.8749 48.0297C52.4919 48.0297 51.4542 47.6831 50.7622 46.2973L45.5747 38.6737L40.0413 53.5744C39.3502 54.9602 38.3124 56 36.5835 56V55.9993Z" fill="url(#paint1_linear_23_134)"/>
<defs>
<linearGradient id="paint0_linear_23_134" x1="-34.141" y1="136.952" x2="63.5006" y2="-10.4209" gradientUnits="userSpaceOnUse">
<stop offset="0.0286559" stop-color="#00DCF0"/>
<stop offset="0.938249" stop-color="#C0B5FF"/>
</linearGradient>
<linearGradient id="paint1_linear_23_134" x1="-29.8394" y1="80.9166" x2="-3.54256" y2="-3.68846" gradientUnits="userSpaceOnUse">
<stop offset="0.0286559" stop-color="#00DCF0"/>
<stop offset="0.938249" stop-color="#C0B5FF"/>
</linearGradient>
</defs>
</svg>
