<svg width="96" height="95" viewBox="0 0 96 95" fill="none" xmlns="http://www.w3.org/2000/svg">
<path d="M45.3972 83.6838C24.2522 83.6838 6.86003 66.3268 6.86003 45.2247C6.86003 24.1225 24.2522 6.76558 45.3972 6.76558C66.5422 6.76558 83.9344 24.1225 83.9344 45.2247C83.9344 47.4799 83.1677 49.7351 83.1677 52.0305C85.4275 52.7957 86.9609 53.5206 88.454 55.0509C89.2207 52.0305 89.947 48.245 89.947 45.2649C89.947 20.3773 69.5284 0 45.3569 0C20.4187 0 0 20.3773 0 45.2649C0 70.1526 20.4187 89.7647 45.3569 89.7647C49.1501 89.7647 52.9029 88.9996 56.6961 88.2747C55.203 86.7847 53.6696 84.4892 52.9029 82.9992C50.6431 82.9992 47.6166 83.7643 45.3569 83.7643L45.3972 83.6838ZM20.459 65.6019C18.966 66.3671 18.966 68.6223 20.459 70.1123C21.2257 70.1123 21.9521 70.8775 22.7188 70.8775C23.4855 70.8775 24.2119 70.1123 24.9786 70.1123L42.3707 52.0305C43.1375 52.0305 44.6305 52.0305 45.3972 52.0305C49.1904 52.0305 52.2169 49.0102 52.2169 45.2247C52.2169 42.2043 50.7238 39.9491 48.4237 38.4188C48.4237 38.4188 48.4237 38.4188 48.4237 37.6537V13.5312C48.4237 11.276 46.9306 9.74566 45.3972 9.74566C43.1375 9.74566 42.3707 11.2357 42.3707 13.5312V37.6537C42.3707 38.4188 42.3707 38.4188 42.3707 38.4188C40.111 39.9089 37.8512 42.2043 37.8512 45.2247C37.8512 45.9898 37.8512 46.7147 38.6179 47.4799C38.6179 47.4799 37.8512 47.4799 37.8512 48.245L20.459 65.6019ZM77.8815 63.3468H71.0618V70.1526H64.2421V76.9585H71.0618V83.7643H77.8815V76.9585H84.7011V70.1526H77.8815V63.3468ZM74.0883 88.9996C65.7755 88.9996 58.9962 82.1937 58.9962 73.173C58.9962 64.8771 65.8159 58.0712 74.0883 58.0712C83.1677 58.0712 89.947 64.8771 89.947 73.173C89.947 82.234 83.1274 88.9996 74.0883 88.9996ZM74.0883 52.0305C62.7491 52.0305 52.9433 61.8164 52.9433 73.1327C52.9433 85.2141 62.7491 95 74.0883 95C86.1942 95 96 85.2141 96 73.1327C96 61.8164 86.1942 52.0305 74.0883 52.0305Z" fill="url(#paint0_linear_23_146)"/>
<defs>
<linearGradient id="paint0_linear_23_146" x1="-36.8263" y1="162.631" x2="83.0697" y2="-1.744" gradientUnits="userSpaceOnUse">
<stop offset="0.0286559" stop-color="#00DCF0"/>
<stop offset="0.938249" stop-color="#C0B5FF"/>
</linearGradient>
</defs>
</svg>
