<svg width="21" height="21" viewBox="0 0 21 21" fill="none" xmlns="http://www.w3.org/2000/svg">
<g clip-path="url(#clip0)">
<path d="M12.2145 10.4422L20.7195 1.9372C20.9106 1.71401 21.0105 1.42693 20.9991 1.1333C20.9878 0.839682 20.8661 0.561153 20.6583 0.353376C20.4505 0.145599 20.172 0.0238773 19.8784 0.0125359C19.5847 0.00119457 19.2977 0.101069 19.0745 0.2922L10.5695 8.7972L2.06447 0.280533C1.84128 0.0894019 1.55419 -0.0104713 1.26057 0.000870088C0.96695 0.0122114 0.688421 0.133932 0.480644 0.341709C0.272868 0.549486 0.151146 0.828015 0.139804 1.12164C0.128463 1.41526 0.228337 1.70235 0.419468 1.92553L8.92447 10.4422L0.407801 18.9472C0.285673 19.0518 0.186482 19.1805 0.116455 19.3252C0.0464278 19.47 0.00707545 19.6276 0.000869376 19.7883C-0.0053367 19.949 0.0217369 20.1092 0.0803906 20.2589C0.139044 20.4086 0.228012 20.5446 0.341709 20.6583C0.455407 20.772 0.591378 20.861 0.741091 20.9196C0.890804 20.9783 1.05102 21.0053 1.2117 20.9991C1.37237 20.9929 1.53002 20.9536 1.67477 20.8835C1.81951 20.8135 1.94821 20.7143 2.0528 20.5922L10.5695 12.0872L19.0745 20.5922C19.2977 20.7833 19.5847 20.8832 19.8784 20.8719C20.172 20.8605 20.4505 20.7388 20.6583 20.531C20.8661 20.3232 20.9878 20.0447 20.9991 19.7511C21.0105 19.4575 20.9106 19.1704 20.7195 18.9472L12.2145 10.4422Z" fill="white"/>
</g>
<defs>
<clipPath id="clip0">
<rect width="21" height="21" fill="white"/>
</clipPath>
</defs>
</svg>
