<svg width="10" height="6" viewBox="0 0 10 6" fill="none" xmlns="http://www.w3.org/2000/svg">
<path d="M9.70615 1.71127L5.70942 5.70469C5.61653 5.79826 5.50602 5.87253 5.38426 5.92322C5.2625 5.9739 5.1319 6 5 6C4.8681 6 4.7375 5.9739 4.61574 5.92322C4.49398 5.87253 4.38347 5.79826 4.29058 5.70469L0.293851 1.71127C0.200689 1.61819 0.126789 1.50768 0.0763697 1.38606C0.0259507 1.26443 9.81624e-10 1.13408 0 1.00244C-9.81624e-10 0.870797 0.0259507 0.740443 0.0763697 0.618822C0.126789 0.4972 0.200689 0.386692 0.293851 0.293607C0.387014 0.200522 0.497613 0.126683 0.619336 0.0763055C0.741058 0.0259282 0.871519 -9.8081e-10 1.00327 0C1.13502 9.80812e-10 1.26548 0.0259282 1.38721 0.0763055C1.50893 0.126683 1.61953 0.200522 1.71269 0.293607L5 3.58818L8.28731 0.293607C8.47546 0.105613 8.73065 0 8.99673 0C9.26281 0 9.518 0.105613 9.70615 0.293607C9.8943 0.481601 10 0.736576 10 1.00244C10 1.2683 9.8943 1.52328 9.70615 1.71127Z" fill="white"/>
</svg>
