<?xml version="1.0" encoding="UTF-8"?> <!-- Generator: Adobe Illustrator 23.0.0, SVG Export Plug-In . SVG Version: 6.00 Build 0) --> <svg xmlns="http://www.w3.org/2000/svg" xmlns:xlink="http://www.w3.org/1999/xlink" id="Camada_1" x="0px" y="0px" viewBox="0 0 200 25" style="enable-background:new 0 0 200 25;" xml:space="preserve"> <style type="text/css"> .st0{fill:#6B72B2;} .st1{fill:#43488E;} .st2{fill:none;stroke:#FFFFFF;stroke-width:60;stroke-linejoin:round;stroke-miterlimit:10;} .st3{clip-path:url(#SVGID_2_);} .st4{fill:#43498F;} .st5{fill:#434A8F;} .st6{fill:#424B90;} .st7{fill:#424C90;} .st8{fill:#424D91;} .st9{fill:#424E91;} .st10{fill:#414F92;} .st11{fill:#415092;} .st12{fill:#415193;} .st13{fill:#415294;} .st14{fill:#405394;} .st15{fill:#405495;} .st16{fill:#405595;} .st17{fill:#405696;} .st18{fill:#3F5796;} .st19{fill:#3F5897;} .st20{fill:#3F5998;} .st21{fill:#3F5A98;} .st22{fill:#3E5B99;} .st23{fill:#3E5C99;} .st24{fill:#3E5D9A;} .st25{fill:#3E5E9A;} .st26{fill:#3D5F9B;} .st27{fill:#3D609B;} .st28{fill:#3D619C;} .st29{fill:#3D629D;} .st30{fill:#3C639D;} .st31{fill:#3C649E;} .st32{fill:#3C659E;} .st33{fill:#3C669F;} .st34{fill:#3B679F;} .st35{fill:#3B68A0;} .st36{fill:#3B69A0;} .st37{fill:#3B6AA1;} .st38{fill:#3A6BA2;} .st39{fill:#3A6CA2;} .st40{fill:#3A6DA3;} .st41{fill:#3A6EA3;} .st42{fill:#396FA4;} .st43{fill:#3970A4;} .st44{fill:#3971A5;} .st45{fill:#3972A6;} .st46{fill:#3873A6;} .st47{fill:#3874A7;} .st48{fill:#3875A7;} .st49{fill:#3876A8;} .st50{fill:#3777A8;} .st51{fill:#3778A9;} .st52{fill:#3779A9;} .st53{fill:#377AAA;} .st54{fill:#367BAB;} .st55{fill:#367CAB;} .st56{fill:#367DAC;} .st57{fill:#367EAC;} .st58{fill:#357FAD;} .st59{fill:#3580AD;} .st60{fill:#3581AE;} .st61{fill:#3582AE;} .st62{fill:#3483AF;} .st63{fill:#3484B0;} .st64{fill:#3485B0;} .st65{fill:#3486B1;} .st66{fill:#3387B1;} .st67{fill:#3388B2;} .st68{fill:#3389B2;} .st69{fill:#338AB3;} .st70{fill:#328BB4;} .st71{fill:#328CB4;} .st72{fill:#328DB5;} .st73{fill:#328EB5;} .st74{fill:#318FB6;} .st75{fill:#3190B6;} .st76{fill:#3191B7;} .st77{fill:#3192B7;} .st78{fill:#3193B8;} .st79{fill:#3094B9;} .st80{fill:#3095B9;} .st81{fill:#3096BA;} .st82{fill:#3097BA;} .st83{fill:#2F98BB;} .st84{fill:#2F99BB;} .st85{fill:#2F9ABC;} .st86{fill:#2F9BBC;} .st87{fill:#2E9CBD;} .st88{fill:#2E9DBE;} .st89{fill:#2E9EBE;} .st90{fill:#2E9FBF;} .st91{fill:#2DA0BF;} .st92{fill:#2DA1C0;} .st93{fill:#2DA2C0;} .st94{fill:#2DA3C1;} .st95{fill:#2CA4C2;} .st96{fill:#2CA5C2;} .st97{fill:#2CA6C3;} .st98{fill:#2CA7C3;} .st99{fill:#2BA8C4;} .st100{fill:#2BA9C4;} .st101{fill:#2BAAC5;} .st102{fill:#2BABC5;} .st103{fill:#2AACC6;} .st104{fill:#2AADC7;} .st105{fill:#2AAEC7;} .st106{fill:#2AAFC8;} .st107{fill:#29B0C8;} .st108{fill:#29B1C9;} .st109{fill:#29B2C9;} .st110{fill:#29B3CA;} .st111{fill:#28B4CA;} .st112{fill:#28B5CB;} .st113{fill:#28B6CC;} .st114{fill:#28B7CC;} .st115{fill:#27B8CD;} .st116{fill:#27B9CD;} .st117{fill:#27BACE;} .st118{fill:#27BBCE;} .st119{fill:#26BCCF;} .st120{fill:#26BDD0;} .st121{fill:#26BED0;} .st122{fill:#26BFD1;} .st123{fill:#25C0D1;} .st124{fill:#25C1D2;} .st125{fill:#25C2D2;} .st126{fill:#25C3D3;} .st127{fill:#24C4D3;} .st128{fill:#24C5D4;} .st129{fill:#24C6D5;} .st130{fill:#24C7D5;} .st131{fill:#23C8D6;} .st132{fill:#23C9D6;} .st133{fill:#23CAD7;} .st134{fill:#23CBD7;} .st135{fill:#22CCD8;} .st136{fill:#22CDD8;} .st137{fill:#22CED9;} .st138{fill:#22CFDA;} .st139{fill:#21D0DA;} .st140{fill:#21D1DB;} .st141{fill:#21D2DB;} .st142{fill:#21D3DC;} .st143{fill:#20D4DC;} .st144{fill:#20D5DD;} .st145{fill:#20D6DE;} .st146{fill:#20D7DE;} .st147{fill:#1FD8DF;} .st148{fill:#1FD9DF;} .st149{fill:#1FDAE0;} .st150{fill:#1FDBE0;} .st151{fill:#1EDCE1;} .st152{fill:#1EDDE1;} .st153{fill:#1EDEE2;} .st154{clip-path:url(#SVGID_4_);} </style> <g> <g> <path class="st1" d="M19.8,24.2H3c-1.2,0-2.2-1-2.2-2.2V3.1c0-1.2,1-2.2,2.2-2.2h14.1l2.7,4.5H5.3v14.4h14.5V24.2z"></path> </g> <g> <rect x="3" y="10.5" class="st1" width="15.2" height="4.5"></rect> </g> <g> <path class="st1" d="M62.8,24.3h-4.5v-15l-5.9,7.2c-0.4,0.5-1.1,0.8-1.7,0.8c0,0,0,0,0,0c-0.7,0-1.3-0.3-1.7-0.8l-5.9-7.2v15h-4.5 V3c0-0.9,0.6-1.8,1.5-2.1c0.9-0.3,1.9,0,2.5,0.7l8.1,9.9l8.2-9.9c0.6-0.7,1.6-1,2.5-0.7c0.9,0.3,1.5,1.2,1.5,2.1V24.3z"></path> </g> <g> <path class="st1" d="M81.6,24.3c-6.5,0-11.7-5.3-11.7-11.7c0-6.5,5.3-11.7,11.7-11.7c6.5,0,11.7,5.3,11.7,11.7 C93.3,19,88,24.3,81.6,24.3z M81.6,5.3c-4,0-7.2,3.2-7.2,7.2c0,4,3.2,7.2,7.2,7.2c4,0,7.2-3.2,7.2-7.2C88.8,8.5,85.6,5.3,81.6,5.3 z"></path> </g> <g> <path class="st1" d="M187.5,24.2c-6.5,0-11.7-5.3-11.7-11.7c0-6.5,5.3-11.7,11.7-11.7c2.8,0,5.5,1,7.6,2.8L192.2,7 c-1.3-1.1-3-1.7-4.7-1.7c-4,0-7.2,3.2-7.2,7.2s3.2,7.2,7.2,7.2c3.5,0,6.3-2.4,7.1-5.7h-6.8V9.6h9.2c1.2,0,2.2,0.9,2.2,2.1 c0,0.3,0,0.5,0,0.8C199.2,18.9,193.9,24.2,187.5,24.2z"></path> </g> <g> <rect x="134.1" y="0.8" class="st1" width="4.7" height="23.3"></rect> </g> <g> <path class="st1" d="M167,24.2c-0.6,0-1.2-0.3-1.7-0.8L152.5,9v15.2H148V3c0-0.9,0.6-1.8,1.4-2.1c0.9-0.3,1.9-0.1,2.5,0.6 L164.8,16V0.8h4.5V22c0,0.9-0.6,1.8-1.4,2.1C167.6,24.2,167.3,24.2,167,24.2z"></path> </g> <g> <defs> <path id="SVGID_3_" d="M112.2,24.2L112.2,24.2c-0.9,0-1.7-0.5-2.1-1.2L96.8,0.8h5.7l9.7,16.2L119,5.7h-8.2l-2.9-4.9h15.5 c0.9,0,1.7,0.5,2.1,1.2c0.4,0.8,0.4,1.7,0,2.5L114.3,23C113.9,23.8,113.1,24.2,112.2,24.2z"></path> </defs> <clipPath id="SVGID_2_"> <use xlink:href="#SVGID_3_" style="overflow:visible;"></use> </clipPath> <g class="st3"> <path class="st1" d="M102.3,0.8c0,1.5-1.2,2.7-2.7,2.7c-1.5,0-2.7-1.2-2.7-2.7c0-1.5,1.2-2.7,2.7-2.7 C101-1.9,102.3-0.7,102.3,0.8z"></path> <path class="st4" d="M102.5,1.2c0,1.5-1.2,2.7-2.7,2.7c-1.5,0-2.7-1.2-2.7-2.7c0-1.5,1.2-2.7,2.7-2.7 C101.3-1.5,102.5-0.3,102.5,1.2z"></path> <path class="st5" d="M102.7,1.5c0,1.5-1.2,2.7-2.7,2.7c-1.5,0-2.7-1.2-2.7-2.7c0-1.5,1.2-2.7,2.7-2.7 C101.5-1.2,102.7,0,102.7,1.5z"></path> <path class="st6" d="M102.9,1.9c0,1.5-1.2,2.7-2.7,2.7c-1.5,0-2.7-1.2-2.7-2.7c0-1.5,1.2-2.7,2.7-2.7 C101.7-0.8,102.9,0.4,102.9,1.9z"></path> <path class="st7" d="M103.1,2.3c0,1.5-1.2,2.7-2.7,2.7c-1.5,0-2.7-1.2-2.7-2.7c0-1.5,1.2-2.7,2.7-2.7 C101.9-0.5,103.1,0.8,103.1,2.3z"></path> <path class="st8" d="M103.3,2.6c0,1.5-1.2,2.7-2.7,2.7c-1.5,0-2.7-1.2-2.7-2.7c0-1.5,1.2-2.7,2.7-2.7 C102.1-0.1,103.3,1.1,103.3,2.6z"></path> <path class="st9" d="M103.5,3c0,1.5-1.2,2.7-2.7,2.7c-1.5,0-2.7-1.2-2.7-2.7c0-1.5,1.2-2.7,2.7-2.7C102.3,0.2,103.5,1.5,103.5,3z "></path> <path class="st10" d="M103.8,3.3c0,1.5-1.2,2.7-2.7,2.7c-1.5,0-2.7-1.2-2.7-2.7c0-1.5,1.2-2.7,2.7-2.7 C102.5,0.6,103.8,1.8,103.8,3.3z"></path> <path class="st11" d="M104,3.7c0,1.5-1.2,2.7-2.7,2.7c-1.5,0-2.7-1.2-2.7-2.7c0-1.5,1.2-2.7,2.7-2.7C102.8,1,104,2.2,104,3.7z"></path> <path class="st12" d="M104.2,4c0,1.5-1.2,2.7-2.7,2.7c-1.5,0-2.7-1.2-2.7-2.7c0-1.5,1.2-2.7,2.7-2.7C103,1.3,104.2,2.5,104.2,4z"></path> <path class="st13" d="M104.4,4.4c0,1.5-1.2,2.7-2.7,2.7c-1.5,0-2.7-1.2-2.7-2.7c0-1.5,1.2-2.7,2.7-2.7 C103.2,1.7,104.4,2.9,104.4,4.4z"></path> <path class="st14" d="M104.6,4.7c0,1.5-1.2,2.7-2.7,2.7c-1.5,0-2.7-1.2-2.7-2.7c0-1.5,1.2-2.7,2.7-2.7 C103.4,2,104.6,3.2,104.6,4.7z"></path> <path class="st15" d="M104.8,5.1c0,1.5-1.2,2.7-2.7,2.7c-1.5,0-2.7-1.2-2.7-2.7c0-1.5,1.2-2.7,2.7-2.7 C103.6,2.4,104.8,3.6,104.8,5.1z"></path> <path class="st16" d="M105,5.5c0,1.5-1.2,2.7-2.7,2.7c-1.5,0-2.7-1.2-2.7-2.7c0-1.5,1.2-2.7,2.7-2.7C103.8,2.7,105,4,105,5.5z"></path> <path class="st17" d="M105.3,5.8c0,1.5-1.2,2.7-2.7,2.7c-1.5,0-2.7-1.2-2.7-2.7c0-1.5,1.2-2.7,2.7-2.7 C104,3.1,105.3,4.3,105.3,5.8z"></path> <path class="st18" d="M105.5,6.2c0,1.5-1.2,2.7-2.7,2.7c-1.5,0-2.7-1.2-2.7-2.7c0-1.5,1.2-2.7,2.7-2.7 C104.3,3.5,105.5,4.7,105.5,6.2z"></path> <path class="st19" d="M105.7,6.5c0,1.5-1.2,2.7-2.7,2.7c-1.5,0-2.7-1.2-2.7-2.7c0-1.5,1.2-2.7,2.7-2.7 C104.5,3.8,105.7,5,105.7,6.5z"></path> <path class="st20" d="M105.9,6.9c0,1.5-1.2,2.7-2.7,2.7c-1.5,0-2.7-1.2-2.7-2.7c0-1.5,1.2-2.7,2.7-2.7 C104.7,4.2,105.9,5.4,105.9,6.9z"></path> <path class="st21" d="M106.1,7.2c0,1.5-1.2,2.7-2.7,2.7c-1.5,0-2.7-1.2-2.7-2.7c0-1.5,1.2-2.7,2.7-2.7 C104.9,4.5,106.1,5.7,106.1,7.2z"></path> <path class="st22" d="M106.3,7.6c0,1.5-1.2,2.7-2.7,2.7c-1.5,0-2.7-1.2-2.7-2.7c0-1.5,1.2-2.7,2.7-2.7 C105.1,4.9,106.3,6.1,106.3,7.6z"></path> <path class="st23" d="M106.5,8c0,1.5-1.2,2.7-2.7,2.7c-1.5,0-2.7-1.2-2.7-2.7c0-1.5,1.2-2.7,2.7-2.7C105.3,5.2,106.5,6.5,106.5,8 z"></path> <path class="st24" d="M106.8,8.3c0,1.5-1.2,2.7-2.7,2.7c-1.5,0-2.7-1.2-2.7-2.7c0-1.5,1.2-2.7,2.7-2.7 C105.5,5.6,106.8,6.8,106.8,8.3z"></path> <path class="st25" d="M107,8.7c0,1.5-1.2,2.7-2.7,2.7c-1.5,0-2.7-1.2-2.7-2.7c0-1.5,1.2-2.7,2.7-2.7C105.8,5.9,107,7.2,107,8.7z"></path> <path class="st26" d="M107.2,9c0,1.5-1.2,2.7-2.7,2.7c-1.5,0-2.7-1.2-2.7-2.7c0-1.5,1.2-2.7,2.7-2.7C106,6.3,107.2,7.5,107.2,9z"></path> <path class="st27" d="M107.4,9.4c0,1.5-1.2,2.7-2.7,2.7c-1.5,0-2.7-1.2-2.7-2.7c0-1.5,1.2-2.7,2.7-2.7 C106.2,6.7,107.4,7.9,107.4,9.4z"></path> <path class="st28" d="M107.6,9.7c0,1.5-1.2,2.7-2.7,2.7c-1.5,0-2.7-1.2-2.7-2.7c0-1.5,1.2-2.7,2.7-2.7 C106.4,7,107.6,8.2,107.6,9.7z"></path> <path class="st29" d="M107.8,10.1c0,1.5-1.2,2.7-2.7,2.7c-1.5,0-2.7-1.2-2.7-2.7c0-1.5,1.2-2.7,2.7-2.7 C106.6,7.4,107.8,8.6,107.8,10.1z"></path> <path class="st30" d="M108,10.5c0,1.5-1.2,2.7-2.7,2.7c-1.5,0-2.7-1.2-2.7-2.7c0-1.5,1.2-2.7,2.7-2.7C106.8,7.7,108,8.9,108,10.5 z"></path> <path class="st31" d="M108.2,10.8c0,1.5-1.2,2.7-2.7,2.7c-1.5,0-2.7-1.2-2.7-2.7c0-1.5,1.2-2.7,2.7-2.7 C107,8.1,108.2,9.3,108.2,10.8z"></path> <path class="st32" d="M108.5,11.2c0,1.5-1.2,2.7-2.7,2.7c-1.5,0-2.7-1.2-2.7-2.7c0-1.5,1.2-2.7,2.7-2.7 C107.2,8.4,108.5,9.7,108.5,11.2z"></path> <path class="st33" d="M108.7,11.5c0,1.5-1.2,2.7-2.7,2.7c-1.5,0-2.7-1.2-2.7-2.7c0-1.5,1.2-2.7,2.7-2.7 C107.5,8.8,108.7,10,108.7,11.5z"></path> <path class="st34" d="M108.9,11.9c0,1.5-1.2,2.7-2.7,2.7c-1.5,0-2.7-1.2-2.7-2.7c0-1.5,1.2-2.7,2.7-2.7 C107.7,9.2,108.9,10.4,108.9,11.9z"></path> <path class="st35" d="M109.1,12.2c0,1.5-1.2,2.7-2.7,2.7c-1.5,0-2.7-1.2-2.7-2.7c0-1.5,1.2-2.7,2.7-2.7 C107.9,9.5,109.1,10.7,109.1,12.2z"></path> <path class="st36" d="M109.3,12.6c0,1.5-1.2,2.7-2.7,2.7c-1.5,0-2.7-1.2-2.7-2.7c0-1.5,1.2-2.7,2.7-2.7 C108.1,9.9,109.3,11.1,109.3,12.6z"></path> <path class="st37" d="M109.5,12.9c0,1.5-1.2,2.7-2.7,2.7c-1.5,0-2.7-1.2-2.7-2.7c0-1.5,1.2-2.7,2.7-2.7 C108.3,10.2,109.5,11.4,109.5,12.9z"></path> <path class="st38" d="M109.7,13.3c0,1.5-1.2,2.7-2.7,2.7c-1.5,0-2.7-1.2-2.7-2.7c0-1.5,1.2-2.7,2.7-2.7 C108.5,10.6,109.7,11.8,109.7,13.3z"></path> <path class="st39" d="M110,13.7c0,1.5-1.2,2.7-2.7,2.7c-1.5,0-2.7-1.2-2.7-2.7c0-1.5,1.2-2.7,2.7-2.7 C108.7,10.9,110,12.2,110,13.7z"></path> <path class="st40" d="M110.2,14c0,1.5-1.2,2.7-2.7,2.7c-1.5,0-2.7-1.2-2.7-2.7c0-1.5,1.2-2.7,2.7-2.7 C109,11.3,110.2,12.5,110.2,14z"></path> <path class="st41" d="M110.4,14.4c0,1.5-1.2,2.7-2.7,2.7c-1.5,0-2.7-1.2-2.7-2.7c0-1.5,1.2-2.7,2.7-2.7 C109.2,11.7,110.4,12.9,110.4,14.4z"></path> <path class="st42" d="M110.6,14.7c0,1.5-1.2,2.7-2.7,2.7c-1.5,0-2.7-1.2-2.7-2.7c0-1.5,1.2-2.7,2.7-2.7 C109.4,12,110.6,13.2,110.6,14.7z"></path> <path class="st43" d="M110.8,15.1c0,1.5-1.2,2.7-2.7,2.7c-1.5,0-2.7-1.2-2.7-2.7c0-1.5,1.2-2.7,2.7-2.7 C109.6,12.4,110.8,13.6,110.8,15.1z"></path> <path class="st44" d="M111,15.4c0,1.5-1.2,2.7-2.7,2.7c-1.5,0-2.7-1.2-2.7-2.7c0-1.5,1.2-2.7,2.7-2.7 C109.8,12.7,111,13.9,111,15.4z"></path> <path class="st45" d="M111.2,15.8c0,1.5-1.2,2.7-2.7,2.7c-1.5,0-2.7-1.2-2.7-2.7c0-1.5,1.2-2.7,2.7-2.7 C110,13.1,111.2,14.3,111.2,15.8z"></path> <path class="st46" d="M111.5,16.2c0,1.5-1.2,2.7-2.7,2.7c-1.5,0-2.7-1.2-2.7-2.7c0-1.5,1.2-2.7,2.7-2.7 C110.2,13.4,111.5,14.7,111.5,16.2z"></path> <path class="st47" d="M111.7,16.5c0,1.5-1.2,2.7-2.7,2.7c-1.5,0-2.7-1.2-2.7-2.7c0-1.5,1.2-2.7,2.7-2.7 C110.5,13.8,111.7,15,111.7,16.5z"></path> <path class="st48" d="M111.9,16.9c0,1.5-1.2,2.7-2.7,2.7c-1.5,0-2.7-1.2-2.7-2.7c0-1.5,1.2-2.7,2.7-2.7 C110.7,14.1,111.9,15.4,111.9,16.9z"></path> <path class="st49" d="M112.1,17.2c0,1.5-1.2,2.7-2.7,2.7c-1.5,0-2.7-1.2-2.7-2.7c0-1.5,1.2-2.7,2.7-2.7 C110.9,14.5,112.1,15.7,112.1,17.2z"></path> <path class="st50" d="M112.3,17.6c0,1.5-1.2,2.7-2.7,2.7c-1.5,0-2.7-1.2-2.7-2.7c0-1.5,1.2-2.7,2.7-2.7 C111.1,14.9,112.3,16.1,112.3,17.6z"></path> <path class="st51" d="M112.5,17.9c0,1.5-1.2,2.7-2.7,2.7c-1.5,0-2.7-1.2-2.7-2.7c0-1.5,1.2-2.7,2.7-2.7 C111.3,15.2,112.5,16.4,112.5,17.9z"></path> <path class="st52" d="M112.7,18.3c0,1.5-1.2,2.7-2.7,2.7c-1.5,0-2.7-1.2-2.7-2.7c0-1.5,1.2-2.7,2.7-2.7 C111.5,15.6,112.7,16.8,112.7,18.3z"></path> <path class="st53" d="M113,18.6c0,1.5-1.2,2.7-2.7,2.7c-1.5,0-2.7-1.2-2.7-2.7c0-1.5,1.2-2.7,2.7-2.7 C111.7,15.9,113,17.1,113,18.6z"></path> <path class="st54" d="M113.2,19c0,1.5-1.2,2.7-2.7,2.7c-1.5,0-2.7-1.2-2.7-2.7c0-1.5,1.2-2.7,2.7-2.7 C111.9,16.3,113.2,17.5,113.2,19z"></path> <path class="st55" d="M113.4,19.4c0,1.5-1.2,2.7-2.7,2.7c-1.5,0-2.7-1.2-2.7-2.7c0-1.5,1.2-2.7,2.7-2.7 C112.2,16.6,113.4,17.9,113.4,19.4z"></path> <path class="st56" d="M113.6,19.7c0,1.5-1.2,2.7-2.7,2.7c-1.5,0-2.7-1.2-2.7-2.7c0-1.5,1.2-2.7,2.7-2.7 C112.4,17,113.6,18.2,113.6,19.7z"></path> <path class="st57" d="M113.8,20.1c0,1.5-1.2,2.7-2.7,2.7c-1.5,0-2.7-1.2-2.7-2.7c0-1.5,1.2-2.7,2.7-2.7 C112.6,17.4,113.8,18.6,113.8,20.1z"></path> <path class="st58" d="M114,20.4c0,1.5-1.2,2.7-2.7,2.7c-1.5,0-2.7-1.2-2.7-2.7c0-1.5,1.2-2.7,2.7-2.7 C112.8,17.7,114,18.9,114,20.4z"></path> <path class="st59" d="M114.2,20.8c0,1.5-1.2,2.7-2.7,2.7c-1.5,0-2.7-1.2-2.7-2.7c0-1.5,1.2-2.7,2.7-2.7 C113,18.1,114.2,19.3,114.2,20.8z"></path> <path class="st60" d="M114.4,21.1c0,1.5-1.2,2.7-2.7,2.7c-1.5,0-2.7-1.2-2.7-2.7c0-1.5,1.2-2.7,2.7-2.7 C113.2,18.4,114.4,19.6,114.4,21.1z"></path> <path class="st61" d="M114.7,21.5c0,1.5-1.2,2.7-2.7,2.7c-1.5,0-2.7-1.2-2.7-2.7c0-1.5,1.2-2.7,2.7-2.7 C113.4,18.8,114.7,20,114.7,21.5z"></path> <path class="st62" d="M114.9,21.9c0,1.5-1.2,2.7-2.7,2.7c-1.5,0-2.7-1.2-2.7-2.7c0-1.5,1.2-2.7,2.7-2.7 C113.7,19.1,114.9,20.4,114.9,21.9z"></path> <path class="st63" d="M115.1,22.1c0,1.5-1.2,2.7-2.7,2.7c-1.5,0-2.7-1.2-2.7-2.7c0-1.5,1.2-2.7,2.7-2.7 C113.9,19.4,115.1,20.6,115.1,22.1z"></path> <path class="st64" d="M115.3,21.8c0,1.5-1.2,2.7-2.7,2.7c-1.5,0-2.7-1.2-2.7-2.7c0-1.5,1.2-2.7,2.7-2.7 C114.1,19.1,115.3,20.3,115.3,21.8z"></path> <path class="st65" d="M115.5,21.4c0,1.5-1.2,2.7-2.7,2.7c-1.5,0-2.7-1.2-2.7-2.7c0-1.5,1.2-2.7,2.7-2.7 C114.3,18.7,115.5,19.9,115.5,21.4z"></path> <path class="st66" d="M115.7,21.1c0,1.5-1.2,2.7-2.7,2.7c-1.5,0-2.7-1.2-2.7-2.7c0-1.5,1.2-2.7,2.7-2.7 C114.5,18.3,115.7,19.6,115.7,21.1z"></path> <path class="st67" d="M115.9,20.7c0,1.5-1.2,2.7-2.7,2.7c-1.5,0-2.7-1.2-2.7-2.7c0-1.5,1.2-2.7,2.7-2.7 C114.7,18,115.9,19.2,115.9,20.7z"></path> <path class="st68" d="M116.1,20.3c0,1.5-1.2,2.7-2.7,2.7c-1.5,0-2.7-1.2-2.7-2.7c0-1.5,1.2-2.7,2.7-2.7 C114.9,17.6,116.1,18.8,116.1,20.3z"></path> <path class="st69" d="M116.3,20c0,1.5-1.2,2.7-2.7,2.7c-1.5,0-2.7-1.2-2.7-2.7c0-1.5,1.2-2.7,2.7-2.7 C115.1,17.3,116.3,18.5,116.3,20z"></path> <path class="st70" d="M116.5,19.6c0,1.5-1.2,2.7-2.7,2.7c-1.5,0-2.7-1.2-2.7-2.7c0-1.5,1.2-2.7,2.7-2.7 C115.3,16.9,116.5,18.1,116.5,19.6z"></path> <path class="st71" d="M116.8,19.3c0,1.5-1.2,2.7-2.7,2.7c-1.5,0-2.7-1.2-2.7-2.7c0-1.5,1.2-2.7,2.7-2.7 C115.5,16.5,116.8,17.8,116.8,19.3z"></path> <path class="st72" d="M117,18.9c0,1.5-1.2,2.7-2.7,2.7c-1.5,0-2.7-1.2-2.7-2.7c0-1.5,1.2-2.7,2.7-2.7 C115.7,16.2,117,17.4,117,18.9z"></path> <path class="st73" d="M117.2,18.5c0,1.5-1.2,2.7-2.7,2.7c-1.5,0-2.7-1.2-2.7-2.7c0-1.5,1.2-2.7,2.7-2.7 C115.9,15.8,117.2,17,117.2,18.5z"></path> <path class="st74" d="M117.4,18.2c0,1.5-1.2,2.7-2.7,2.7c-1.5,0-2.7-1.2-2.7-2.7c0-1.5,1.2-2.7,2.7-2.7 C116.2,15.5,117.4,16.7,117.4,18.2z"></path> <path class="st75" d="M117.6,17.8c0,1.5-1.2,2.7-2.7,2.7c-1.5,0-2.7-1.2-2.7-2.7c0-1.5,1.2-2.7,2.7-2.7 C116.4,15.1,117.6,16.3,117.6,17.8z"></path> <path class="st76" d="M117.8,17.5c0,1.5-1.2,2.7-2.7,2.7c-1.5,0-2.7-1.2-2.7-2.7c0-1.5,1.2-2.7,2.7-2.7 C116.6,14.7,117.8,16,117.8,17.5z"></path> <path class="st77" d="M118,17.1c0,1.5-1.2,2.7-2.7,2.7c-1.5,0-2.7-1.2-2.7-2.7c0-1.5,1.2-2.7,2.7-2.7 C116.8,14.4,118,15.6,118,17.1z"></path> <path class="st78" d="M118.2,16.7c0,1.5-1.2,2.7-2.7,2.7c-1.5,0-2.7-1.2-2.7-2.7c0-1.5,1.2-2.7,2.7-2.7 C117,14,118.2,15.2,118.2,16.7z"></path> <path class="st79" d="M118.4,16.4c0,1.5-1.2,2.7-2.7,2.7c-1.5,0-2.7-1.2-2.7-2.7c0-1.5,1.2-2.7,2.7-2.7 C117.2,13.7,118.4,14.9,118.4,16.4z"></path> <path class="st80" d="M118.6,16c0,1.5-1.2,2.7-2.7,2.7c-1.5,0-2.7-1.2-2.7-2.7c0-1.5,1.2-2.7,2.7-2.7 C117.4,13.3,118.6,14.5,118.6,16z"></path> <path class="st81" d="M118.8,15.7c0,1.5-1.2,2.7-2.7,2.7c-1.5,0-2.7-1.2-2.7-2.7c0-1.5,1.2-2.7,2.7-2.7 C117.6,12.9,118.8,14.2,118.8,15.7z"></path> <path class="st82" d="M119,15.3c0,1.5-1.2,2.7-2.7,2.7c-1.5,0-2.7-1.2-2.7-2.7c0-1.5,1.2-2.7,2.7-2.7 C117.8,12.6,119,13.8,119,15.3z"></path> <path class="st83" d="M119.2,14.9c0,1.5-1.2,2.7-2.7,2.7c-1.5,0-2.7-1.2-2.7-2.7c0-1.5,1.2-2.7,2.7-2.7 C118,12.2,119.2,13.4,119.2,14.9z"></path> <path class="st84" d="M119.5,14.6c0,1.5-1.2,2.7-2.7,2.7c-1.5,0-2.7-1.2-2.7-2.7c0-1.5,1.2-2.7,2.7-2.7 C118.2,11.9,119.5,13.1,119.5,14.6z"></path> <path class="st85" d="M119.7,14.2c0,1.5-1.2,2.7-2.7,2.7c-1.5,0-2.7-1.2-2.7-2.7c0-1.5,1.2-2.7,2.7-2.7 C118.4,11.5,119.7,12.7,119.7,14.2z"></path> <path class="st86" d="M119.9,13.9c0,1.5-1.2,2.7-2.7,2.7c-1.5,0-2.7-1.2-2.7-2.7c0-1.5,1.2-2.7,2.7-2.7 C118.6,11.1,119.9,12.4,119.9,13.9z"></path> <path class="st87" d="M120.1,13.5c0,1.5-1.2,2.7-2.7,2.7c-1.5,0-2.7-1.2-2.7-2.7c0-1.5,1.2-2.7,2.7-2.7 C118.9,10.8,120.1,12,120.1,13.5z"></path> <path class="st88" d="M120.3,13.1c0,1.5-1.2,2.7-2.7,2.7c-1.5,0-2.7-1.2-2.7-2.7c0-1.5,1.2-2.7,2.7-2.7 C119.1,10.4,120.3,11.6,120.3,13.1z"></path> <path class="st89" d="M120.5,12.8c0,1.5-1.2,2.7-2.7,2.7c-1.5,0-2.7-1.2-2.7-2.7c0-1.5,1.2-2.7,2.7-2.7 C119.3,10.1,120.5,11.3,120.5,12.8z"></path> <path class="st90" d="M120.7,12.4c0,1.5-1.2,2.7-2.7,2.7c-1.5,0-2.7-1.2-2.7-2.7c0-1.5,1.2-2.7,2.7-2.7 C119.5,9.7,120.7,10.9,120.7,12.4z"></path> <path class="st91" d="M120.9,12.1c0,1.5-1.2,2.7-2.7,2.7c-1.5,0-2.7-1.2-2.7-2.7c0-1.5,1.2-2.7,2.7-2.7 C119.7,9.3,120.9,10.6,120.9,12.1z"></path> <path class="st92" d="M121.1,11.7c0,1.5-1.2,2.7-2.7,2.7c-1.5,0-2.7-1.2-2.7-2.7c0-1.5,1.2-2.7,2.7-2.7 C119.9,9,121.1,10.2,121.1,11.7z"></path> <path class="st93" d="M121.3,11.3c0,1.5-1.2,2.7-2.7,2.7c-1.5,0-2.7-1.2-2.7-2.7c0-1.5,1.2-2.7,2.7-2.7 C120.1,8.6,121.3,9.8,121.3,11.3z"></path> <path class="st94" d="M121.5,11c0,1.5-1.2,2.7-2.7,2.7c-1.5,0-2.7-1.2-2.7-2.7c0-1.5,1.2-2.7,2.7-2.7 C120.3,8.3,121.5,9.5,121.5,11z"></path> <path class="st95" d="M121.7,10.6c0,1.5-1.2,2.7-2.7,2.7c-1.5,0-2.7-1.2-2.7-2.7c0-1.5,1.2-2.7,2.7-2.7 C120.5,7.9,121.7,9.1,121.7,10.6z"></path> <path class="st96" d="M121.9,10.3c0,1.5-1.2,2.7-2.7,2.7c-1.5,0-2.7-1.2-2.7-2.7c0-1.5,1.2-2.7,2.7-2.7 C120.7,7.5,121.9,8.8,121.9,10.3z"></path> <path class="st97" d="M122.2,9.9c0,1.5-1.2,2.7-2.7,2.7c-1.5,0-2.7-1.2-2.7-2.7c0-1.5,1.2-2.7,2.7-2.7 C120.9,7.2,122.2,8.4,122.2,9.9z"></path> <path class="st98" d="M122.4,9.5c0,1.5-1.2,2.7-2.7,2.7c-1.5,0-2.7-1.2-2.7-2.7c0-1.5,1.2-2.7,2.7-2.7 C121.1,6.8,122.4,8,122.4,9.5z"></path> <path class="st99" d="M122.6,9.2c0,1.5-1.2,2.7-2.7,2.7c-1.5,0-2.7-1.2-2.7-2.7c0-1.5,1.2-2.7,2.7-2.7 C121.4,6.5,122.6,7.7,122.6,9.2z"></path> <path class="st100" d="M122.8,8.8c0,1.5-1.2,2.7-2.7,2.7c-1.5,0-2.7-1.2-2.7-2.7c0-1.5,1.2-2.7,2.7-2.7 C121.6,6.1,122.8,7.3,122.8,8.8z"></path> <path class="st101" d="M123,8.5c0,1.5-1.2,2.7-2.7,2.7c-1.5,0-2.7-1.2-2.7-2.7c0-1.5,1.2-2.7,2.7-2.7C121.8,5.7,123,7,123,8.5z"></path> <path class="st102" d="M123.2,8.1c0,1.5-1.2,2.7-2.7,2.7c-1.5,0-2.7-1.2-2.7-2.7c0-1.5,1.2-2.7,2.7-2.7 C122,5.4,123.2,6.6,123.2,8.1z"></path> <path class="st103" d="M123.4,7.7c0,1.5-1.2,2.7-2.7,2.7c-1.5,0-2.7-1.2-2.7-2.7c0-1.5,1.2-2.7,2.7-2.7 C122.2,5,123.4,6.2,123.4,7.7z"></path> <path class="st104" d="M123.6,7.4c0,1.5-1.2,2.7-2.7,2.7c-1.5,0-2.7-1.2-2.7-2.7c0-1.5,1.2-2.7,2.7-2.7 C122.4,4.7,123.6,5.9,123.6,7.4z"></path> <path class="st105" d="M123.8,7c0,1.5-1.2,2.7-2.7,2.7c-1.5,0-2.7-1.2-2.7-2.7c0-1.5,1.2-2.7,2.7-2.7 C122.6,4.3,123.8,5.5,123.8,7z"></path> <path class="st106" d="M124,6.7c0,1.5-1.2,2.7-2.7,2.7c-1.5,0-2.7-1.2-2.7-2.7c0-1.5,1.2-2.7,2.7-2.7C122.8,3.9,124,5.2,124,6.7z "></path> <path class="st107" d="M124.2,6.3c0,1.5-1.2,2.7-2.7,2.7c-1.5,0-2.7-1.2-2.7-2.7c0-1.5,1.2-2.7,2.7-2.7 C123,3.6,124.2,4.8,124.2,6.3z"></path> <path class="st108" d="M124.4,5.9c0,1.5-1.2,2.7-2.7,2.7c-1.5,0-2.7-1.2-2.7-2.7c0-1.5,1.2-2.7,2.7-2.7 C123.2,3.2,124.4,4.4,124.4,5.9z"></path> <path class="st109" d="M124.6,5.6c0,1.5-1.2,2.7-2.7,2.7c-1.5,0-2.7-1.2-2.7-2.7c0-1.5,1.2-2.7,2.7-2.7 C123.4,2.9,124.6,4.1,124.6,5.6z"></path> <path class="st110" d="M124.9,5.2c0,1.5-1.2,2.7-2.7,2.7c-1.5,0-2.7-1.2-2.7-2.7c0-1.5,1.2-2.7,2.7-2.7 C123.6,2.5,124.9,3.7,124.9,5.2z"></path> <path class="st111" d="M125.1,4.9c0,1.5-1.2,2.7-2.7,2.7c-1.5,0-2.7-1.2-2.7-2.7c0-1.5,1.2-2.7,2.7-2.7 C123.8,2.1,125.1,3.4,125.1,4.9z"></path> <path class="st112" d="M125.3,4.5c0,1.5-1.2,2.7-2.7,2.7c-1.5,0-2.7-1.2-2.7-2.7c0-1.5,1.2-2.7,2.7-2.7 C124.1,1.8,125.3,3,125.3,4.5z"></path> <path class="st113" d="M125.5,4.1c0,1.5-1.2,2.7-2.7,2.7c-1.5,0-2.7-1.2-2.7-2.7c0-1.5,1.2-2.7,2.7-2.7 C124.3,1.4,125.5,2.6,125.5,4.1z"></path> <path class="st114" d="M125.7,3.8c0,1.5-1.2,2.7-2.7,2.7c-1.5,0-2.7-1.2-2.7-2.7c0-1.5,1.2-2.7,2.7-2.7 C124.5,1.1,125.7,2.3,125.7,3.8z"></path> <path class="st115" d="M125.9,3.4c0,1.5-1.2,2.7-2.7,2.7c-1.5,0-2.7-1.2-2.7-2.7c0-1.5,1.2-2.7,2.7-2.7 C124.7,0.7,125.9,1.9,125.9,3.4z"></path> <path class="st116" d="M126.1,3.1c0,1.5-1.2,2.7-2.7,2.7c-1.5,0-2.7-1.2-2.7-2.7c0-1.5,1.2-2.7,2.7-2.7 C124.9,0.3,126.1,1.6,126.1,3.1z"></path> <path class="st117" d="M125.8,3c0,1.5-1.2,2.7-2.7,2.7c-1.5,0-2.7-1.2-2.7-2.7c0-1.5,1.2-2.7,2.7-2.7 C124.6,0.3,125.8,1.5,125.8,3z"></path> <path class="st118" d="M125.4,3c0,1.5-1.2,2.7-2.7,2.7c-1.5,0-2.7-1.2-2.7-2.7c0-1.5,1.2-2.7,2.7-2.7 C124.1,0.3,125.4,1.5,125.4,3z"></path> <path class="st119" d="M124.9,3c0,1.5-1.2,2.7-2.7,2.7c-1.5,0-2.7-1.2-2.7-2.7c0-1.5,1.2-2.7,2.7-2.7 C123.7,0.3,124.9,1.5,124.9,3z"></path> <path class="st120" d="M124.5,3c0,1.5-1.2,2.7-2.7,2.7c-1.5,0-2.7-1.2-2.7-2.7c0-1.5,1.2-2.7,2.7-2.7 C123.3,0.3,124.5,1.5,124.5,3z"></path> <path class="st121" d="M124.1,3c0,1.5-1.2,2.7-2.7,2.7c-1.5,0-2.7-1.2-2.7-2.7c0-1.5,1.2-2.7,2.7-2.7 C122.9,0.3,124.1,1.5,124.1,3z"></path> <path class="st122" d="M123.7,3c0,1.5-1.2,2.7-2.7,2.7c-1.5,0-2.7-1.2-2.7-2.7c0-1.5,1.2-2.7,2.7-2.7 C122.5,0.3,123.7,1.5,123.7,3z"></path> <path class="st123" d="M123.3,3c0,1.5-1.2,2.7-2.7,2.7c-1.5,0-2.7-1.2-2.7-2.7c0-1.5,1.2-2.7,2.7-2.7 C122.1,0.3,123.3,1.5,123.3,3z"></path> <path class="st124" d="M122.9,3c0,1.5-1.2,2.7-2.7,2.7c-1.5,0-2.7-1.2-2.7-2.7c0-1.5,1.2-2.7,2.7-2.7 C121.6,0.3,122.9,1.5,122.9,3z"></path> <path class="st125" d="M122.5,3c0,1.5-1.2,2.7-2.7,2.7c-1.5,0-2.7-1.2-2.7-2.7c0-1.5,1.2-2.7,2.7-2.7 C121.2,0.3,122.5,1.5,122.5,3z"></path> <path class="st126" d="M122,3c0,1.5-1.2,2.7-2.7,2.7c-1.5,0-2.7-1.2-2.7-2.7c0-1.5,1.2-2.7,2.7-2.7C120.8,0.3,122,1.5,122,3z"></path> <path class="st127" d="M121.6,3c0,1.5-1.2,2.7-2.7,2.7c-1.5,0-2.7-1.2-2.7-2.7c0-1.5,1.2-2.7,2.7-2.7 C120.4,0.3,121.6,1.5,121.6,3z"></path> <path class="st128" d="M121.2,3c0,1.5-1.2,2.7-2.7,2.7c-1.5,0-2.7-1.2-2.7-2.7c0-1.5,1.2-2.7,2.7-2.7C120,0.3,121.2,1.5,121.2,3z "></path> <path class="st129" d="M120.8,3c0,1.5-1.2,2.7-2.7,2.7c-1.5,0-2.7-1.2-2.7-2.7c0-1.5,1.2-2.7,2.7-2.7 C119.6,0.3,120.8,1.5,120.8,3z"></path> <path class="st130" d="M120.4,3c0,1.5-1.2,2.7-2.7,2.7c-1.5,0-2.7-1.2-2.7-2.7c0-1.5,1.2-2.7,2.7-2.7 C119.2,0.3,120.4,1.5,120.4,3z"></path> <path class="st131" d="M120,3c0,1.5-1.2,2.7-2.7,2.7c-1.5,0-2.7-1.2-2.7-2.7c0-1.5,1.2-2.7,2.7-2.7C118.7,0.3,120,1.5,120,3z"></path> <path class="st132" d="M119.5,3c0,1.5-1.2,2.7-2.7,2.7c-1.5,0-2.7-1.2-2.7-2.7c0-1.5,1.2-2.7,2.7-2.7 C118.3,0.3,119.5,1.5,119.5,3z"></path> <path class="st133" d="M119.1,3c0,1.5-1.2,2.7-2.7,2.7c-1.5,0-2.7-1.2-2.7-2.7c0-1.5,1.2-2.7,2.7-2.7 C117.9,0.3,119.1,1.5,119.1,3z"></path> <path class="st134" d="M118.7,3c0,1.5-1.2,2.7-2.7,2.7c-1.5,0-2.7-1.2-2.7-2.7c0-1.5,1.2-2.7,2.7-2.7 C117.5,0.3,118.7,1.5,118.7,3z"></path> <path class="st135" d="M118.3,3c0,1.5-1.2,2.7-2.7,2.7c-1.5,0-2.7-1.2-2.7-2.7c0-1.5,1.2-2.7,2.7-2.7 C117.1,0.3,118.3,1.5,118.3,3z"></path> <path class="st136" d="M117.9,3c0,1.5-1.2,2.7-2.7,2.7c-1.5,0-2.7-1.2-2.7-2.7c0-1.5,1.2-2.7,2.7-2.7 C116.7,0.3,117.9,1.5,117.9,3z"></path> <path class="st137" d="M117.5,3c0,1.5-1.2,2.7-2.7,2.7c-1.5,0-2.7-1.2-2.7-2.7c0-1.5,1.2-2.7,2.7-2.7 C116.2,0.3,117.5,1.5,117.5,3z"></path> <path class="st138" d="M117,3c0,1.5-1.2,2.7-2.7,2.7c-1.5,0-2.7-1.2-2.7-2.7c0-1.5,1.2-2.7,2.7-2.7C115.8,0.3,117,1.5,117,3z"></path> <path class="st139" d="M116.6,3c0,1.5-1.2,2.7-2.7,2.7c-1.5,0-2.7-1.2-2.7-2.7c0-1.5,1.2-2.7,2.7-2.7 C115.4,0.3,116.6,1.5,116.6,3z"></path> <path class="st140" d="M116.2,3c0,1.5-1.2,2.7-2.7,2.7c-1.5,0-2.7-1.2-2.7-2.7c0-1.5,1.2-2.7,2.7-2.7C115,0.3,116.2,1.5,116.2,3z "></path> <path class="st141" d="M115.8,3c0,1.5-1.2,2.7-2.7,2.7c-1.5,0-2.7-1.2-2.7-2.7c0-1.5,1.2-2.7,2.7-2.7 C114.6,0.3,115.8,1.5,115.8,3z"></path> <path class="st142" d="M115.4,3c0,1.5-1.2,2.7-2.7,2.7c-1.5,0-2.7-1.2-2.7-2.7c0-1.5,1.2-2.7,2.7-2.7 C114.2,0.3,115.4,1.5,115.4,3z"></path> <path class="st143" d="M115,3c0,1.5-1.2,2.7-2.7,2.7c-1.5,0-2.7-1.2-2.7-2.7c0-1.5,1.2-2.7,2.7-2.7C113.8,0.3,115,1.5,115,3z"></path> <path class="st144" d="M114.6,3c0,1.5-1.2,2.7-2.7,2.7c-1.5,0-2.7-1.2-2.7-2.7c0-1.5,1.2-2.7,2.7-2.7 C113.3,0.3,114.6,1.5,114.6,3z"></path> <path class="st145" d="M114.1,3c0,1.5-1.2,2.7-2.7,2.7c-1.5,0-2.7-1.2-2.7-2.7c0-1.5,1.2-2.7,2.7-2.7 C112.9,0.3,114.1,1.5,114.1,3z"></path> <path class="st146" d="M113.7,3c0,1.5-1.2,2.7-2.7,2.7c-1.5,0-2.7-1.2-2.7-2.7c0-1.5,1.2-2.7,2.7-2.7 C112.5,0.3,113.7,1.5,113.7,3z"></path> <path class="st147" d="M113.3,3c0,1.5-1.2,2.7-2.7,2.7c-1.5,0-2.7-1.2-2.7-2.7c0-1.5,1.2-2.7,2.7-2.7 C112.1,0.3,113.3,1.5,113.3,3z"></path> <path class="st148" d="M112.9,3c0,1.5-1.2,2.7-2.7,2.7c-1.5,0-2.7-1.2-2.7-2.7c0-1.5,1.2-2.7,2.7-2.7 C111.7,0.3,112.9,1.5,112.9,3z"></path> <path class="st149" d="M112.5,3c0,1.5-1.2,2.7-2.7,2.7c-1.5,0-2.7-1.2-2.7-2.7c0-1.5,1.2-2.7,2.7-2.7 C111.3,0.3,112.5,1.5,112.5,3z"></path> <path class="st150" d="M112.1,3c0,1.5-1.2,2.7-2.7,2.7c-1.5,0-2.7-1.2-2.7-2.7c0-1.5,1.2-2.7,2.7-2.7 C110.8,0.3,112.1,1.5,112.1,3z"></path> <path class="st151" d="M111.6,3c0,1.5-1.2,2.7-2.7,2.7c-1.5,0-2.7-1.2-2.7-2.7c0-1.5,1.2-2.7,2.7-2.7 C110.4,0.3,111.6,1.5,111.6,3z"></path> <path class="st152" d="M111.2,3c0,1.5-1.2,2.7-2.7,2.7c-1.5,0-2.7-1.2-2.7-2.7c0-1.5,1.2-2.7,2.7-2.7C110,0.3,111.2,1.5,111.2,3z "></path> <path class="st153" d="M110.8,3c0,1.5-1.2,2.7-2.7,2.7c-1.5,0-2.7-1.2-2.7-2.7c0-1.5,1.2-2.7,2.7-2.7 C109.6,0.3,110.8,1.5,110.8,3z"></path> </g> </g> <path class="st1" d="M32.1,12.9c0,1.6-1.3,3-2.9,3c-1.6,0-2.9-1.3-2.9-3c0-1.6,1.3-2.9,2.9-2.9C30.8,9.9,32.1,11.3,32.1,12.9z"></path> </g> </svg> 