<svg width="191" height="39" viewBox="0 0 191 39" fill="none" xmlns="http://www.w3.org/2000/svg">
<path fill-rule="evenodd" clip-rule="evenodd" d="M167.983 11.3294C167.983 17.5389 172.994 22.5503 179.204 22.5503C185.413 22.5503 190.533 17.5389 190.533 11.3294V11.3292C190.533 11.0025 190.533 10.7848 190.425 10.4581C190.425 9.36856 189.444 8.49722 188.355 8.49722H179.531V12.8547H185.958C185.304 15.9049 182.581 18.3017 179.204 18.3017C175.391 18.3017 172.232 15.1424 172.232 11.3294C172.232 7.51677 175.391 4.35746 179.204 4.35746C180.838 4.35746 182.472 4.90223 183.779 5.99154L186.612 2.72339C184.542 0.98046 181.927 0 179.204 0C172.994 0 167.983 5.11992 167.983 11.3294ZM55.232 22.6594H59.5894V2.28792C59.5894 1.30746 58.9358 0.544724 58.1733 0.217913C57.3017 -0.108925 56.3213 0.217909 55.7767 0.87153L47.9332 10.3492L40.0895 0.87153C39.5448 0.217909 38.5643 -0.108898 37.6927 0.217913C36.8214 0.544724 36.2766 1.30746 36.2766 2.28792V22.6594H40.6341V8.27945L46.2991 15.1426C46.6259 15.5783 47.2795 15.9051 47.9332 15.9051C48.5868 15.9051 49.1313 15.5782 49.5672 15.1426L55.232 8.27945V22.6594ZM4.35746 13.7266H16.7765V9.36886H4.35746V4.46661H18.3017L15.6872 0.109131H2.17888C0.980456 0.109131 0 1.08959 0 2.28799V20.4806C0 21.679 0.980483 22.6594 2.17888 22.6594H18.3017V18.302H4.35746V13.7266ZM106.977 22.5506C106.215 22.5506 105.452 22.1147 105.017 21.461L103.837 19.5021C103.824 19.495 103.812 19.4879 103.799 19.4806L103.709 19.391L103.492 18.9554L103.382 18.8463L103.165 18.4106L103.056 18.3018L102.838 17.8658L102.729 17.757L102.514 17.3262L102.513 17.3021L100.44 13.8589C100.421 13.8488 100.402 13.8385 100.383 13.8279L100.223 13.5083L100.114 13.3995L99.8966 12.9635L99.7875 12.8547L99.5698 12.419L99.4607 12.3099L99.243 11.8743L99.1339 11.7654L99.025 11.5475L99.0253 11.5094L97.0134 8.16761C96.985 8.15172 96.957 8.13531 96.9292 8.1184L96.7373 7.73445L96.6284 7.62561L96.4104 7.18994L96.3016 7.08083L96.0836 6.64517L95.9748 6.53632L95.7568 6.10039L95.6508 5.99437C95.6492 5.96293 95.6483 5.93131 95.648 5.89966L93.5423 2.40206L93.5201 2.38967L93.4691 2.28803L93.3603 2.1789L93.1423 1.74325L93.0335 1.63439L92.8155 1.19846L92.7067 1.08963L92.4887 0.653978L92.3799 0.544847L92.1619 0.109194V0.109131H97.391H97.6089L106.977 15.687L106.977 15.6872L106.978 15.6867L109.263 11.8776L109.265 11.8742L109.266 11.8733L109.59 11.3333L109.592 11.3294L109.593 11.3284L109.917 10.7876L109.919 10.7849L109.919 10.7842L112.859 5.88468L112.86 5.88268L112.861 5.88218L113.186 5.34032L113.187 5.3379L113.187 5.33729L113.405 4.97502V4.79341H105.67L105.094 3.84005L105.071 3.86754L105.017 3.81298L104.799 3.37733L104.69 3.26847L104.472 2.83255L104.363 2.72371L104.145 2.28806L104.036 2.17893L103.818 1.74328L103.709 1.63442L103.492 1.19849L103.382 1.08966L103.165 0.654006L103.056 0.544876L102.838 0.109222V0.109131H108.227H111.176H114.872H117.653H117.654C118.525 0.109131 119.288 0.544808 119.723 1.30757C120.159 2.07007 120.159 2.94165 119.723 3.70414L117.752 6.98351L117.75 6.99592L117.545 7.40767L117.436 7.51678L117.218 7.95243L117.109 8.06128L116.891 8.49721L116.782 8.60605L116.644 8.88241L116.618 8.9006L116.586 8.92258L114.385 12.5839L114.384 12.6008C114.384 12.6148 114.383 12.6287 114.382 12.6426L114.276 12.8547L114.167 12.9635L113.95 13.3994L113.84 13.5083L113.623 13.9439L113.514 14.0531L113.296 14.4887L113.187 14.5975L113.104 14.7633C113.089 14.7726 113.073 14.7818 113.058 14.7909L111.104 18.0413C111.106 18.0608 111.107 18.0803 111.109 18.0999L111.008 18.3016L110.899 18.4105L110.682 18.8462L110.572 18.9553L110.355 19.3909L110.246 19.4998L110.028 19.9357L109.919 20.0446L109.701 20.4802L109.592 20.5893L109.54 20.6925V20.6926C109.526 20.6988 109.512 20.7049 109.499 20.7108L109.047 21.4611C108.612 22.1147 107.849 22.5506 106.977 22.5506ZM77.564 4.46661C73.7513 4.46661 70.592 7.51707 70.592 11.3297C70.592 15.2515 73.7513 18.302 77.564 18.302C81.3769 18.302 84.5362 15.2515 84.5362 11.3297C84.5362 7.51704 81.3769 4.46661 77.564 4.46661ZM77.564 22.6595C71.3544 22.6595 66.3436 17.5392 66.3436 11.3297C66.3436 5.12022 71.3545 0.109131 77.564 0.109131C83.7735 0.109131 88.7848 5.12022 88.7848 11.3297C88.7848 17.5392 83.7734 22.6595 77.564 22.6595ZM132.469 0.109131V22.5506H127.894V0.109131H132.469ZM157.961 21.8969C158.397 22.3325 158.941 22.5505 159.595 22.5505C159.813 22.5505 160.14 22.5505 160.357 22.4414C161.229 22.1146 161.774 21.3521 161.774 20.3716V0.10903H157.416V14.7069L145.106 0.871544C144.561 0.109076 143.581 -0.108905 142.709 0.217906C141.947 0.544717 141.293 1.30747 141.293 2.28793V22.5505H145.651V7.95263L157.961 21.8969ZM30.067 11.7654C30.067 13.2903 28.7598 14.5976 27.2345 14.5976C25.7096 14.5976 24.4023 13.2903 24.4023 11.7654C24.4023 10.1313 25.7096 8.93286 27.2345 8.93286C28.7598 8.93286 30.067 10.1313 30.067 11.7654ZM65.9081 38.782V34.7513C65.9081 33.662 65.2544 33.0084 64.3828 33.0084C63.7292 33.0084 63.1844 33.3352 62.7487 33.9888C62.5308 33.3352 61.9863 33.0084 61.3326 33.0084C60.679 33.0084 60.1342 33.3352 59.6985 33.8797V33.2261H58.5001V38.782H59.8074V34.8602C60.1342 34.4245 60.4611 34.0977 60.8967 34.0977C61.2235 34.0977 61.5503 34.2065 61.5503 34.9693V38.782H62.8576V34.8602C63.1844 34.4245 63.5112 34.0977 63.9472 34.0977C64.274 34.0977 64.4917 34.2065 64.4917 34.9693V38.782H65.9081ZM69.1761 35.9497C69.1761 37.3659 69.5029 37.9106 70.3743 37.9106C71.1368 37.9106 71.5724 37.3659 71.5724 35.9497C71.5724 34.6425 71.1368 34.0977 70.3743 34.0977C69.6118 34.0977 69.1761 34.6425 69.1761 35.9497ZM72.9885 35.9497C72.9885 37.8015 72.0081 38.9999 70.3743 38.9999C68.7402 38.9999 67.6509 37.8015 67.6509 35.9497C67.6509 34.2065 68.7402 33.0084 70.3743 33.0084C72.0081 33.0084 72.9885 34.0977 72.9885 35.9497ZM77.3462 34.0977C77.9999 34.0977 78.4355 34.5334 78.4355 35.9498C78.4355 37.3659 77.8907 37.9107 77.2371 37.9107C76.8014 37.9107 76.4746 37.6927 76.1478 37.2571V34.8603C76.4746 34.4246 76.8015 34.0977 77.3462 34.0977ZM77.5639 39C78.9803 39 79.8516 37.6927 79.8516 35.9498C79.8517 34.0978 79.0892 33.0084 77.673 33.0084C77.1283 33.0084 76.5835 33.3353 76.1478 33.7709V30.8296L74.8406 30.9384V38.782H76.039L76.1478 38.2375C76.4746 38.6732 77.0194 39 77.5639 39ZM83.1198 38.782H81.7037V33.2262H83.1198V38.782ZM83.2289 31.1564C83.2289 31.5921 82.9021 32.028 82.3573 32.028C81.9217 32.028 81.5948 31.5921 81.5948 31.1564C81.5948 30.7207 81.9217 30.3939 82.3573 30.3939C82.9021 30.3939 83.2289 30.7207 83.2289 31.1564ZM85.2987 30.9384V37.4748C85.2986 38.4552 85.7343 39 86.6059 39C86.9327 39 87.2595 38.8912 87.5863 38.782L87.2595 37.8016C87.2051 37.8016 87.1506 37.8289 87.0961 37.8561C87.0417 37.8834 86.9872 37.9107 86.9328 37.9107C86.7148 37.9107 86.6059 37.6927 86.6059 37.4748V30.8296L85.2987 30.9384ZM90.4189 38.782H89.0025V33.2262H90.4189V38.782ZM90.5278 31.1564C90.5278 31.5921 90.2009 32.028 89.6562 32.028C89.2205 32.028 88.8937 31.5921 88.8937 31.1564C88.8937 30.7207 89.2205 30.3939 89.6562 30.3939C90.2009 30.3939 90.5278 30.7207 90.5278 31.1564ZM95.9748 34.6425V37.2571C95.648 37.6927 95.3212 37.9107 94.7765 37.9107C94.1228 37.9107 93.6871 37.4748 93.6871 35.9498C93.6871 34.6425 94.2317 34.0977 94.8853 34.0977C95.3212 34.0977 95.648 34.3157 95.9748 34.6425ZM97.2821 38.7821V30.9385L95.9748 30.8296V33.6621C95.648 33.2262 95.1032 33.0085 94.5584 33.0085C93.1423 33.0085 92.2708 34.3157 92.2708 35.9498C92.2708 37.8016 93.0335 39 94.4496 39C95.1032 39 95.648 38.5644 95.9748 38.1284L96.0837 38.7821H97.2821ZM102.293 37.257V36.1674H101.748C100.877 36.1674 100.441 36.4942 100.441 37.1479C100.441 37.6927 100.768 38.0195 101.204 38.0195C101.748 38.0195 102.075 37.6927 102.293 37.257ZM104.145 38.0195L103.818 38.8911C103.165 38.8911 102.838 38.6731 102.62 38.1283C102.184 38.6731 101.531 38.9999 100.877 38.9999C99.7875 38.9999 99.1339 38.2374 99.1339 37.257C99.1339 36.0586 100.005 35.2961 101.64 35.2961H102.293V35.0781C102.293 34.3156 101.966 34.0977 101.313 34.0977C100.877 34.0977 100.332 34.2065 99.7874 34.3156L99.4606 33.444C100.223 33.1172 100.877 33.0084 101.531 33.0084C103.056 33.0084 103.709 33.7709 103.709 34.9693V37.257C103.709 37.8015 103.818 37.9106 104.145 38.0195ZM109.265 34.6425V37.2571C108.938 37.6927 108.611 37.9107 108.067 37.9107C107.413 37.9107 106.977 37.4748 106.977 35.9498C106.977 34.6425 107.522 34.0977 108.176 34.0977C108.611 34.0977 108.938 34.3157 109.265 34.6425ZM110.572 38.7821V30.9385L109.265 30.8296V33.6621C108.938 33.2262 108.394 33.0085 107.849 33.0085C106.433 33.0085 105.561 34.3157 105.561 35.9498C105.561 37.8016 106.324 39 107.74 39C108.503 39 108.938 38.5644 109.265 38.1284L109.374 38.7821H110.572ZM116.128 35.5138C116.128 34.5334 115.801 33.9888 115.039 33.9888C114.385 33.9888 113.95 34.4245 113.841 35.5138H116.128ZM117.436 36.3854H113.841C113.95 37.5838 114.494 37.9106 115.257 37.9106C115.801 37.9106 116.128 37.8015 116.673 37.4747L117.218 38.2374C116.673 38.6731 116.019 38.9999 115.148 38.9999C113.405 38.9999 112.424 37.8015 112.424 36.0586C112.424 34.3157 113.405 33.0084 114.93 33.0084C116.564 33.0084 117.436 34.0977 117.436 35.8406V36.3854ZM125.715 34.5334L126.26 33.662C125.715 33.3352 125.061 33.0084 124.299 33.0084C122.991 33.0084 122.12 33.7709 122.12 34.6425C122.12 35.5138 122.665 36.0586 123.754 36.3854C124.843 36.6034 125.061 36.8211 125.061 37.257C125.061 37.6926 124.625 37.9106 124.081 37.9106C123.427 37.9106 122.991 37.6926 122.556 37.3658L121.793 38.1283C122.338 38.6731 123.1 38.9999 124.081 38.9999C125.388 38.9999 126.477 38.3463 126.477 37.1479C126.477 36.1674 125.824 35.7318 124.625 35.4049C123.645 35.187 123.427 34.9693 123.427 34.6424C123.427 34.2065 123.754 33.9888 124.299 33.9888C124.843 33.9888 125.279 34.2065 125.715 34.5334ZM132.578 38.7819H131.38V38.0194C130.944 38.6731 130.399 38.9999 129.637 38.9999C128.656 38.9999 128.112 38.3463 128.112 37.257V33.2261H129.419V37.039C129.419 37.6926 129.637 37.9106 130.073 37.9106C130.617 37.9106 130.944 37.5838 131.271 37.1479V33.2261H132.578V38.7819ZM138.025 34.5334L138.57 33.662C138.025 33.3352 137.371 33.0084 136.609 33.0084C135.301 33.0084 134.43 33.7709 134.43 34.6425C134.43 35.5138 134.975 36.0586 136.064 36.3854C137.154 36.6034 137.371 36.8211 137.371 37.257C137.371 37.6926 136.936 37.9106 136.391 37.9106C135.846 37.9106 135.302 37.6926 134.866 37.3658L134.212 38.1283C134.648 38.6731 135.41 38.9999 136.391 38.9999C137.698 38.9999 138.788 38.3463 138.788 37.1479C138.788 36.1674 138.134 35.7318 136.936 35.4049C136.064 35.187 135.846 34.9693 135.846 34.6424C135.846 34.2065 136.064 33.9888 136.609 33.9888C137.154 33.9888 137.589 34.2065 138.025 34.5334ZM143.69 38.5643C143.254 38.782 142.71 39 142.274 39C141.184 38.8911 140.531 38.3463 140.531 37.1479V34.2066H139.659V33.2261H140.531V31.9188L141.947 31.81V33.2261H143.254L143.145 34.2066H141.947V37.0391C141.947 37.6927 142.056 37.9107 142.492 37.9107C142.709 37.9107 142.926 37.8023 143.143 37.6939L143.145 37.6927L143.69 38.5643ZM147.067 33.9888C147.829 33.9888 148.156 34.5334 148.156 35.5138H145.978C145.978 34.4245 146.413 33.9888 147.067 33.9888ZM145.978 36.3854H149.464V35.8406C149.464 34.0977 148.592 33.0084 147.067 33.0084C145.433 33.0084 144.561 34.3157 144.561 36.0586C144.561 37.8015 145.433 38.9999 147.176 38.9999C148.047 38.9999 148.701 38.6731 149.246 38.2374L148.701 37.4747C148.265 37.8015 147.829 37.9106 147.285 37.9106C146.631 37.9106 146.087 37.5838 145.978 36.3854ZM155.891 34.7513V38.782H154.584V34.9693C154.584 34.2065 154.257 34.0977 153.821 34.0977C153.385 34.0977 153.059 34.4245 152.732 34.8602V38.782H151.316V33.2261H152.514L152.623 33.8797C153.058 33.3352 153.603 33.0084 154.366 33.0084C155.346 33.0084 155.891 33.662 155.891 34.7513ZM159.922 39C160.358 39 160.902 38.782 161.338 38.5643L160.793 37.6927L160.791 37.6939C160.574 37.8023 160.357 37.9107 160.14 37.9107C159.704 37.9107 159.595 37.6927 159.595 37.0391V34.2066H160.684L160.902 33.2261H159.595V31.81L158.179 31.9188V33.2261H157.307V34.2066H158.179V37.1479C158.179 38.3463 158.832 38.8911 159.922 39ZM165.478 37.257V36.1674H164.933C164.062 36.1674 163.626 36.4942 163.626 37.1479C163.626 37.6927 163.844 38.0195 164.388 38.0195C164.824 38.0195 165.151 37.6927 165.478 37.257ZM163.626 32.1368L163.19 31.3743L165.478 30.067L166.022 31.1563L163.626 32.1368ZM167.221 38.0195L166.894 38.8911C166.349 38.8911 165.914 38.6731 165.696 38.1283C165.26 38.6731 164.715 38.9999 164.062 38.9999C162.863 38.9999 162.209 38.2374 162.209 37.257C162.209 36.0586 163.081 35.2961 164.715 35.2961H165.478V35.0781C165.478 34.3156 165.151 34.0977 164.388 34.0977C164.129 34.0977 163.733 34.1662 163.253 34.249L163.056 34.283C162.993 34.2938 162.928 34.3047 162.863 34.3156L162.645 33.444C163.299 33.1172 163.953 33.0084 164.606 33.0084C166.131 33.0084 166.785 33.7709 166.785 34.9693V37.257C166.785 37.8015 166.894 37.9106 167.221 38.0195ZM169.944 38.7819H171.578L173.321 33.2261H172.014L170.707 37.6927L169.508 33.2261H168.092L169.944 38.7819ZM177.897 35.5138C177.897 34.5334 177.57 33.9888 176.807 33.9888C176.262 33.9888 175.827 34.4245 175.718 35.5138H177.897ZM179.204 36.3854H175.718C175.827 37.5838 176.372 37.9106 177.134 37.9106C177.57 37.9106 178.006 37.8015 178.55 37.4747L179.095 38.2374C178.55 38.6731 177.788 38.9999 177.025 38.9999C175.282 38.9999 174.302 37.8015 174.302 36.0586C174.302 34.3157 175.173 33.0084 176.807 33.0084C178.333 33.0084 179.313 34.0977 179.313 35.8406C179.313 36.0586 179.313 36.2766 179.204 36.3854ZM181.056 30.9384V37.4748C181.056 38.4552 181.601 39 182.472 39C182.799 39 183.126 38.8912 183.344 38.782L183.017 37.8016C182.972 37.8016 182.945 37.8203 182.914 37.8422C182.871 37.8732 182.818 37.9107 182.69 37.9107C182.472 37.9107 182.472 37.6927 182.472 37.4748V30.8296L181.056 30.9384Z" fill="white"/>
</svg>
