<svg width="53" height="52" viewBox="0 0 53 52" fill="none" xmlns="http://www.w3.org/2000/svg">
<path d="M24.7156 6.27932C23.6526 5.26538 22.2403 4.69971 20.7715 4.69971C19.3027 4.69971 17.8903 5.2654 16.8278 6.27932L6.30872 16.7967C5.26905 17.8463 4.68555 19.2641 4.68555 20.7416C4.68555 22.2192 5.26909 23.6369 6.30872 24.6866L27.344 45.7218C28.3932 46.7615 29.811 47.345 31.288 47.345C32.7651 47.345 34.1825 46.7614 35.2317 45.7218L45.7508 35.2044C46.7905 34.1548 47.374 32.737 47.374 31.2595C47.374 29.782 46.7904 28.3642 45.7508 27.3145L24.7156 6.27932ZM17.1943 13.8002L13.8296 17.1657L12.0773 16.2896L16.3181 12.0492L17.1943 13.8002ZM43.1223 32.5744L32.6015 43.0931C32.2479 43.4314 31.7772 43.6202 31.2879 43.6202C30.7986 43.6202 30.3279 43.4314 29.9744 43.0931L8.93807 22.0568C8.54337 21.6297 8.35618 21.0507 8.42716 20.4735C8.49813 19.8962 8.81937 19.379 9.30579 19.0603L12.1662 20.4922H12.1666C12.8643 20.8421 13.655 20.9628 14.4257 20.8375C15.196 20.7126 15.9078 20.3473 16.459 19.7949L19.8246 16.4294C20.3774 15.8778 20.7422 15.1664 20.8671 14.3956C20.9925 13.6253 20.8717 12.8347 20.5218 12.1366L19.0899 9.27698V9.27739C19.4082 8.79015 19.925 8.46849 20.5027 8.39752C21.08 8.32614 21.6594 8.51331 22.086 8.90843L43.1223 29.9447C43.4689 30.2942 43.6635 30.7669 43.6635 31.2591C43.6635 31.7518 43.4689 32.2241 43.1223 32.574L43.1223 32.5744Z" fill="#00DCF0"/>
<path d="M37.8633 32.5744C38.2119 32.923 38.4078 33.3957 38.4078 33.8888C38.4078 34.3818 38.2119 34.8546 37.8633 35.2032L35.2319 37.8346C34.76 38.2924 34.0814 38.4671 33.4472 38.2936C32.8127 38.1201 32.3175 37.6246 32.144 36.9904C31.9705 36.3558 32.1452 35.6772 32.603 35.2053L35.234 32.5743C35.5826 32.2257 36.0553 32.0298 36.5484 32.0298C37.0419 32.0298 37.5146 32.2257 37.8632 32.5743L37.8633 32.5744Z" fill="#00DCF0"/>
<path d="M52.0526 18.0487C52.1053 18.7074 51.8048 19.3449 51.2628 19.723C50.7208 20.1012 50.0185 20.1629 49.4189 19.8857C48.8192 19.6085 48.4116 19.0332 48.3481 18.3754C48.2003 15.7303 47.0918 13.2306 45.2307 11.3451C43.3697 9.45999 40.8845 8.31908 38.2415 8.13687L39.7452 9.93025C40.1494 10.4412 40.2565 11.1264 40.0278 11.7365C39.7991 12.3462 39.2679 12.7923 38.6274 12.9115C37.9871 13.031 37.3309 12.8065 36.898 12.3201L32.7833 7.4156C32.4907 7.06739 32.3359 6.62454 32.3484 6.17004C32.3608 5.71558 32.5393 5.28145 32.8505 4.94988L36.9653 0.55753L36.9648 0.557115C37.423 0.0902024 38.0929 -0.101546 38.7288 0.0520162C39.3647 0.205578 39.8731 0.682043 40.0678 1.30671C40.2624 1.93134 40.1142 2.61199 39.678 3.09967L38.4163 4.44649V4.44607C41.9441 4.69717 45.264 6.21002 47.768 8.70762C50.2718 11.2053 51.793 14.5215 52.0528 18.0488L52.0526 18.0487Z" fill="#00DCF0"/>
<path d="M19.275 44.5845C19.5676 44.9327 19.7224 45.3755 19.7099 45.83C19.6975 46.2845 19.519 46.7186 19.2077 47.0502L15.093 51.4425L15.0934 51.4429C14.6352 51.9099 13.9654 52.1016 13.3295 51.948C12.6936 51.7945 12.1852 51.318 11.9905 50.6933C11.7959 50.0687 11.944 49.3881 12.3802 48.9004L13.6349 47.5607V47.5611C10.1072 47.3083 6.78814 45.7934 4.28544 43.2946C1.78273 40.7953 0.26337 37.4783 0.00603428 33.9505C-0.0470904 33.2918 0.253394 32.6543 0.795435 32.2762C1.33748 31.8981 2.03972 31.8363 2.63939 32.1135C3.23953 32.3907 3.6471 32.9656 3.71017 33.6234C3.85792 36.2697 4.96689 38.7702 6.8288 40.6562C8.69029 42.5425 11.1767 43.6838 13.8205 43.8661L12.3135 42.069H12.3131C11.9092 41.558 11.8018 40.8728 12.0304 40.2627C12.2591 39.6526 12.7904 39.2069 13.4308 39.0874C14.0712 38.9683 14.7274 39.1928 15.1606 39.6792L19.275 44.5845Z" fill="#00DCF0"/>
</svg>
